<?xml version="1.0" encoding="iso-8859-1"?>
<!-- Generator: Adobe Illustrator 18.1.1, SVG Export Plug-In . SVG Version: 6.00 Build 0)  -->
<svg version="1.1" id="Capa_1" xmlns="http://www.w3.org/2000/svg" xmlns:xlink="http://www.w3.org/1999/xlink" x="0px" y="0px"
	 viewBox="0 0 611.997 611.997" style="enable-background:new 0 0 611.997 611.997;" xml:space="preserve">
<g>
	<g>
		<path d="M404.199,143.793H207.798c-30.857,0-55.874,25.018-55.874,55.885v212.643c0,30.865,25.018,55.886,55.874,55.886h196.403
			c30.86,0,55.874-25.019,55.874-55.886V199.678C460.075,168.811,435.059,143.793,404.199,143.793z"/>
		<path d="M578.497,329.491c12.974,0,23.491-10.517,23.491-23.491c0-12.974-10.517-23.491-23.491-23.491h-53.624v-53.075h53.624
			c12.974,0,23.491-10.517,23.491-23.491s-10.517-23.491-23.491-23.491h-54.1c-4.596-51.934-44.108-93.966-94.856-102.416V23.491
			C429.541,10.517,419.024,0,406.05,0c-12.974,0-23.491,10.517-23.491,23.491V78.46h-53.072V23.491
			C329.487,10.517,318.971,0,305.997,0s-23.492,10.517-23.492,23.491V78.46h-53.07V23.491C229.434,10.517,218.917,0,205.943,0
			c-12.974,0-23.491,10.517-23.491,23.491v56.544c-50.749,8.45-90.262,50.482-94.856,102.416H33.498
			c-12.974,0-23.491,10.517-23.491,23.491c0,12.974,10.517,23.491,23.491,23.491h53.624v53.075H33.498
			c-12.974,0-23.491,10.517-23.491,23.491c0,12.974,10.517,23.491,23.491,23.491h53.624v53.074H33.498
			c-12.974,0-23.491,10.517-23.491,23.491c0,12.974,10.517,23.491,23.491,23.491h54.1c4.594,51.932,44.108,93.965,94.856,102.413
			v56.549c0,12.974,10.517,23.491,23.491,23.491s23.491-10.517,23.491-23.491v-54.974h53.07v54.974
			c0,12.974,10.518,23.491,23.492,23.491s23.491-10.517,23.491-23.491v-54.974h53.072v54.974c0,12.974,10.517,23.491,23.491,23.491
			c12.974,0,23.491-10.517,23.491-23.491v-56.545c50.749-8.448,90.261-50.48,94.856-102.413h54.1
			c12.974,0,23.491-10.517,23.491-23.491s-10.517-23.491-23.491-23.491h-53.624v-53.074h53.622V329.491z M487.352,419.413
			c0,42.238-34.364,76.602-76.607,76.602H201.249c-42.241,0-76.605-34.362-76.605-76.602v-226.83
			c0-42.24,34.364-76.604,76.605-76.604h209.496c42.241,0,76.607,34.364,76.607,76.604L487.352,419.413L487.352,419.413z"/>
	</g>
</g>
<g>
</g>
<g>
</g>
<g>
</g>
<g>
</g>
<g>
</g>
<g>
</g>
<g>
</g>
<g>
</g>
<g>
</g>
<g>
</g>
<g>
</g>
<g>
</g>
<g>
</g>
<g>
</g>
<g>
</g>
</svg>
