<?xml version="1.0" encoding="utf-8"?>
<!-- Generator: Adobe Illustrator 16.0.0, SVG Export Plug-In . SVG Version: 6.00 Build 0)  -->
<!DOCTYPE svg PUBLIC "-//W3C//DTD SVG 1.1//EN" "http://www.w3.org/Graphics/SVG/1.1/DTD/svg11.dtd">
<svg version="1.1" id="Capa_1" xmlns="http://www.w3.org/2000/svg" xmlns:xlink="http://www.w3.org/1999/xlink" x="0px" y="0px"
	 width="800px" height="800px" viewBox="0 0 800 800" enable-background="new 0 0 800 800" xml:space="preserve">
<g>
	<path fill="#ED1F34" d="M128.032,659.064v-1c0-6.563-5.34-11.903-11.903-11.903H24.807V153.839h750.387v492.322H167.742
		c-6.563,0-11.903,5.34-11.903,11.903v1H128.032z M236.559,330.893c-6.563,0-11.903,5.34-11.903,11.903v114.408
		c0,6.563,5.34,11.903,11.903,11.903h94.333v94.333c0,6.563,5.34,11.903,11.903,11.903h114.408c6.563,0,11.903-5.34,11.903-11.903
		v-94.333h94.333c6.563,0,11.903-5.34,11.903-11.903V342.796c0-6.563-5.34-11.903-11.903-11.903h-94.333v-94.333
		c0-6.563-5.34-11.903-11.903-11.903H342.796c-6.563,0-11.903,5.34-11.903,11.903v94.333H236.559z"/>
	<path fill="#ED1F34" d="M167.742,645.161h606.451V154.839H25.807v490.322h90.322c7.128,0,12.903,5.777,12.903,12.903h25.807
		C154.839,650.938,160.614,645.161,167.742,645.161z M223.656,342.796c0-7.126,5.776-12.903,12.903-12.903h93.333v-93.333
		c0-7.126,5.775-12.903,12.903-12.903h114.408c7.128,0,12.903,5.777,12.903,12.903v93.333h93.333
		c7.128,0,12.903,5.777,12.903,12.903v114.408c0,7.126-5.775,12.903-12.903,12.903h-93.333v93.333
		c0,7.127-5.775,12.903-12.903,12.903H342.796c-7.128,0-12.903-5.776-12.903-12.903v-93.333h-93.333
		c-7.127,0-12.903-5.777-12.903-12.903V342.796z"/>
	<path fill="#FFFFFF" d="M355.699,457.204v93.334h88.602v-93.334c0-7.126,5.775-12.903,12.903-12.903h93.334v-88.602h-93.334
		c-7.128,0-12.903-5.777-12.903-12.903v-93.333h-88.602v93.333c0,7.126-5.775,12.903-12.903,12.903h-93.333v88.602h93.333
		C349.924,444.301,355.699,450.078,355.699,457.204z"/>
	<path d="M236.559,470.107h93.333v93.333c0,7.127,5.775,12.903,12.903,12.903h114.408c7.128,0,12.903-5.776,12.903-12.903v-93.333
		h93.333c7.128,0,12.903-5.777,12.903-12.903V342.796c0-7.126-5.775-12.903-12.903-12.903h-93.333v-93.333
		c0-7.126-5.775-12.903-12.903-12.903H342.796c-7.128,0-12.903,5.777-12.903,12.903v93.333h-93.333
		c-7.127,0-12.903,5.777-12.903,12.903v114.408C223.656,464.33,229.432,470.107,236.559,470.107z M249.462,355.699h93.333
		c7.128,0,12.903-5.777,12.903-12.903v-93.333h88.602v93.333c0,7.126,5.775,12.903,12.903,12.903h93.334v88.602h-93.334
		c-7.128,0-12.903,5.777-12.903,12.903v93.334h-88.602v-93.334c0-7.126-5.775-12.903-12.903-12.903h-93.333V355.699z"/>
	<path d="M787.097,129.032H12.903C5.775,129.032,0,134.81,0,141.936v516.129c0,7.126,5.775,12.903,12.903,12.903h103.226
		c7.128,0,12.903-5.777,12.903-12.903s-5.775-12.903-12.903-12.903H25.807V154.839h748.387v490.322H167.742
		c-7.128,0-12.903,5.777-12.903,12.903s5.775,12.903,12.903,12.903h619.354c7.128,0,12.903-5.777,12.903-12.903V141.936
		C800,134.81,794.225,129.032,787.097,129.032z"/>
</g>
</svg>
