<svg xmlns="http://www.w3.org/2000/svg" width="525pt" height="525pt" fill-rule="evenodd" viewBox="0 0 525 524.99999"><path d="M0 262.496C0 407.241 117.756 525 262.491 525 407.236 525 525 407.241 525 262.496 525 117.758 407.236 0 262.491 0 117.756 0 0 117.758 0 262.496Z" style="fill:#295aa0;stroke:none;stroke-width:2.55897"/><path d="M3.928 262.496c0-142.573 115.993-258.565 258.563-258.565 142.583 0 258.576 115.992 258.576 258.565 0 142.58-115.993 258.579-258.576 258.579-142.57 0-258.563-115.998-258.563-258.579z" style="fill:#fff;stroke:none;stroke-width:2.55897"/><path d="M76.444 262.496c0 102.592 83.466 186.06 186.047 186.06 102.594 0 186.055-83.468 186.055-186.06 0-102.589-83.46-186.055-186.055-186.055-102.581 0-186.047 83.466-186.047 186.055zm1.963 0c0-101.504 82.583-184.092 184.084-184.092 101.514 0 184.095 82.588 184.095 184.092 0 101.51-82.58 184.095-184.095 184.095-101.501 0-184.084-82.586-184.084-184.095z" style="fill:#295aa0;stroke:none;stroke-width:2.55897"/><path d="m231.77 359.595 5.915 8.176 8.173-5.913-5.912-8.175z" style="fill:#ec6a24;stroke:none" transform="matrix(2.55897 0 0 2.55897 -497.427 -709.965)"/><path d="m306.359 385.411-11.297-17.64h-9.633v30.021h9.178v-17.06l11.334 17.06h9.596v-30.021h-9.178zM340.031 367.771v16.834c0 2.255 0 5.666-4.14 5.666-4.141 0-4.141-3.411-4.141-5.666v-16.834h-9.684v17.935c0 10.412 7.518 12.596 13.825 12.596 6.304 0 13.822-2.184 13.822-12.596v-17.935zM250.138 367.771l9.336 12.91.004-12.91zM271.481 382.517l10.053-14.746h-10.746l-10.008 14.714 11.074 15.307h10.704zM250.134 397.792h9.269l-9.267-12.81zM218.849 428.194l-.909-1.584 3.662-2.097-.021-.037-5.072-.364-1.041-1.816 5.75.6 2.748-5.784 1.099 1.918-2.568 4.922.022.035 4.056-2.324.906 1.584zM217.009 410.56l-4.836.302-.01-.027 3.938-2.768zm2.285-4.811-.645-1.767-8.251 6.421.681 1.875 10.492-.273-.625-1.713-2.494.15-1.17-3.216zM207.208 399.294l-.371-2.135 7.135-4.593-.006-.028-7.697 1.332-.284-1.627 9.805-1.699.373 2.148-7.08 4.571.006.025 7.641-1.322.283 1.629zM209.632 379.001l.023-3.223 5.203.039c.268.514.502 1.401.494 2.698-.023 3.193-2.203 4.873-5.154 4.851-2.951-.019-5.105-1.732-5.082-4.925.008-1.141.272-2.038.445-2.42l1.639.111c-.359.582-.623 1.379-.631 2.291-.013 1.939 1.576 2.99 3.643 3.006 2.238.015 3.672-.985 3.686-2.854a2.949 2.949 0 0 0-.178-1.056l-2.68-.02-.012 1.512zM208.87 361.921l-.004.027 7.676 3.168-.432 2.11-10.15-.022.342-1.676 7.795.166.004-.029-7.215-3 .445-2.18 7.813.082.004-.027-7.223-2.959.33-1.621 9.34 4.002-.438 2.137zM216.067 348.597c-2.527-1.053-3.078-2.287-2.634-3.352.443-1.066 1.709-1.543 4.234-.49 2.527 1.053 3.078 2.285 2.635 3.352-.446 1.066-1.709 1.543-4.235.49zm-.724 1.738c3.302 1.375 5.453.219 6.248-1.691.795-1.909.103-4.25-3.199-5.627-3.303-1.375-5.453-.217-6.248 1.691-.795 1.906-.104 4.25 3.199 5.627zM218.005 333.2l1.178-1.818 8.355 1.475.016-.026-6.557-4.248.901-1.389 8.349 5.413-1.187 1.83-8.297-1.454-.016.024 6.508 4.219-.9 1.386zM234.997 312.314l1.654-1.401 7.573 3.824.021-.017-5.049-5.963 1.264-1.068 6.428 7.593-1.664 1.41-7.524-3.791-.021.02 5.01 5.918-1.262 1.068zM252.866 306.679l-1.152-4.705.025-.014 3.42 3.387zm5.135 1.402 1.627-.945-7.773-6.992-1.725 1.004 2.115 10.279 1.578-.916-.588-2.43 2.959-1.719zM263.286 296.251l-2.07.809-.53-1.354 5.829-2.277.529 1.353-2.059.805 3.092 7.914-1.699.664zM274.491 291.077l1.774-.427 2.336 9.671-1.774.428zM287.208 293.798c-.24-2.727.598-3.787 1.748-3.889 1.149-.101 2.159.799 2.397 3.526.241 2.726-.597 3.787-1.747 3.888-1.15.102-2.16-.798-2.398-3.525zm-1.875.166c.313 3.562 2.338 4.932 4.396 4.75 2.06-.18 3.812-1.879 3.499-5.445-.312-3.563-2.335-4.932-4.393-4.75-2.061.179-3.814 1.879-3.502 5.445zM301.734 288.358l2.161.196 2.591 8.078.03.002.701-7.779 1.646.148-.894 9.91-2.172-.195-2.584-8.02-.028-.004-.697 7.725-1.646-.15zM318.303 297.138l2.545-4.121.029.006-.018 4.814zm2.601 4.642 1.815.496-.469-10.443-1.924-.527-5.844 8.719 1.76.48 1.32-2.121 3.299.902zM332.975 295.62l1.66.758-3.524 7.73 2.983 1.36-.602 1.324-4.642-2.117zM354.973 308.96l-4.163 4.92c-1.068 1.262-1.035 1.998-.22 2.689.795.672 1.535.59 2.605-.673l4.16-4.918 1.393 1.177-4.162 4.92c-1.693 2.002-3.51 1.811-4.936.604-1.435-1.215-1.925-2.975-.232-4.977l4.16-4.92zM365.26 318.702l1.385 1.666-3.899 7.537.02.022 6.009-4.992 1.057 1.273-7.654 6.356-1.395-1.676 3.864-7.488-.02-.024-5.967 4.955-1.055-1.271zM374.971 331.759l.945 1.56-8.51 5.159-.945-1.561zM379.852 340.519l.769 1.81-6.271 4.85.009.025 7.868-1.097.736 1.732-10.346 1.098-.752-1.772zM385.467 355.751l1.242 5.082-1.412.344-.809-3.309-2.576.629.766 3.131-1.412.346-.766-3.131-2.853.697.841 3.447-1.41.346-1.277-5.221zM383.973 371.806l2.929-.235.057.741c.082 1.021-.154 1.642-1.289 1.732-1.012.082-1.561-.533-1.639-1.5zm-5.745-1.371.147 1.818 4.262-.34.035.412c.053.668-.166 1.157-.928 1.461l-3.148 1.239.154 1.931 3.678-1.594c.898-.386 1.037-.812 1.062-1.187l.045-.002c.258 1.094 1.19 1.834 2.483 1.73 1.818-.144 2.519-1.402 2.377-3.164l-.247-3.097zM380.602 383.993a4.056 4.056 0 0 0-.776 2.055c-.062.797.322 1.541 1.317 1.619.712.055 1.056-.332 1.609-1.178l.584-.882c.617-.938 1.447-1.516 2.726-1.416 1.778.136 2.586 1.673 2.456 3.337-.08 1.051-.409 1.77-.516 2.047l-1.516-.205c.207-.426.508-.988.573-1.828.072-.91-.375-1.416-1.057-1.469-.74-.058-1.062.416-1.42.948l-.678 1.017c-.746 1.115-1.414 1.621-2.806 1.514-2.02-.16-2.873-1.67-2.725-3.561.076-.994.279-1.752.617-2.224zM386.775 398.716l-.388 1.783-9.723-2.115.387-1.781zM382.08 410.14l.764-2.088 1.367.498-2.149 5.879-1.365-.5.758-2.074-7.982-2.916.627-1.713zM372.34 420.962l6.635.34-.959 1.721-4.418-.247 2.584 3.532-.959 1.717-3.809-5.489-3.449-1.926.89-1.591zM254.935 448.415l.379-.586-8.182-5.273-.707 1.097 5.879 3.789-.094.096c-2.051 2.129-5.336 1.981-9.027-.4l-.069-.043c-.019.281-.078 1.293-.086 1.39a.385.385 0 0 0 .016.014c5.088 3.279 9.535 3.24 11.891-.084z" style="fill:#295aa0;stroke:none" transform="matrix(2.55897 0 0 2.55897 -497.427 -709.965)"/><path d="m258.095 452.886 1.828-2.838-2.049-1.32-5.047 7.828-.088-.125c-.709-1.004-1.822-2.006-3.199-2.897-3.605-2.324-6.566-2.461-7.91-.379-1.342 2.084.006 4.721 3.611 7.045 3.594 2.319 6.553 2.457 7.895.375l4.252-6.593 1.519.98.707-1.096zm-12.131 6.26c-2.287-1.477-3.115-3.207-2.205-4.618.91-1.414 2.828-1.373 5.117.102 2.291 1.478 3.107 3.203 2.195 4.615-.91 1.41-2.814 1.379-5.107-.099zM270.511 461.316c2.564.763 5.439.564 6.084-1.598.644-2.16-1.653-3.902-4.215-4.666-2.563-.766-5.441-.565-6.084 1.598-.647 2.162 1.656 3.902 4.215 4.666zm1.511-5.063c1.356.404 2.663 1.348 2.239 2.77-.426 1.431-2.033 1.496-3.393 1.089-1.361-.404-2.664-1.336-2.238-2.765.426-1.422 2.025-1.498 3.392-1.094z" style="fill:#295aa0;stroke:none" transform="matrix(2.55897 0 0 2.55897 -497.427 -709.965)"/><path d="m279.505 457.175-2.108 7.072-12.906-3.846-.367 1.233 4.504 1.344-.703 2.353 2.336.697.701-2.357 6.068 1.812-.414 1.379-3.869-1.154-.365 1.233 3.869 1.154-.951 3.187-9.006-2.685.928-3.121-2.334-.698-.922 3.096c-.209.699.107 1.414.709 1.596l12.592 3.756 4.576-15.352zM313.31 462.757c.655 2.197 3.034 3.219 5.668 2.434 2.588-.776 4.067-2.989 3.419-5.149-.264-.891-.842-1.609-1.674-2.1l-.215-.119 1.707-.509-.371-1.25-3.996 1.195-.45-1.506-2.402.715.453 1.51-3.924 1.172.373 1.246 1.77-.53-.106.217c-.427.861-.517 1.785-.252 2.674zm3.76-3.955c1.463-.436 2.639.662 3.018 1.93.447 1.498-.16 2.873-1.467 3.265-1.266.379-2.576-.453-3.016-1.926-.443-1.488.198-2.888 1.465-3.269z" style="fill:#295aa0;stroke:none" transform="matrix(2.55897 0 0 2.55897 -497.427 -709.965)"/><path d="m326.719 457.03-.967-3.234-2.334.697 2.902 9.711-10.968 3.276.369 1.234 10.969-3.275 1.355 4.533 2.334-.697-3.285-10.997 1.721-.515-.374-1.248z" style="fill:#295aa0;stroke:none" transform="matrix(2.55897 0 0 2.55897 -497.427 -709.965)"/><path d="m403.413 454.782-17.971-28.484-29.715 18.752 1.776 2.815 24.45-15.423 16.194 25.67-4.808 3.034-8.752-13.864-5.28 3.331 8.752 13.855-5.048 3.193-8.75-13.864-5.3 3.344 8.747 13.865-5.977 3.78 1.776 2.801 33.89-21.38-1.773-2.815zM276.08 464.409l.06 12.434-3.03.015-.058-12.434-6.034.028.13 25.94-16.738.085-.1-20.986 11.531-.054-.02-3.344-17.76.09.12 24.25c.009 1.863 1.283 3.353 2.882 3.348l20.096-.105.064 12.116 6.034-.03-.131-25.39 3.035-.016.12 25.395 6.006-.035-.205-41.338zM100.508 412.416a3.28 3.28 0 1 1-6.56 0 3.284 3.284 0 0 1 3.282-3.286 3.283 3.283 0 0 1 3.278 3.286zM424.486 412.416a3.282 3.282 0 1 0 6.561 0 3.28 3.28 0 1 0-6.561 0z" style="fill:#295aa0;stroke:none;stroke-width:2.55897"/></svg>