<?xml version="1.0" encoding="utf-8"?>
<!-- Generator: Adobe Illustrator 27.4.0, SVG Export Plug-In . SVG Version: 6.00 Build 0)  -->
<svg version="1.1" id="Layer_1" xmlns="http://www.w3.org/2000/svg" xmlns:xlink="http://www.w3.org/1999/xlink" x="0px" y="0px"
	 viewBox="0 0 418 232.6" style="enable-background:new 0 0 418 232.6;" xml:space="preserve">
<style type="text/css">
	.st0{fill:#C10230;}
	.st1{fill:#00629B;}
	.st2{fill:#FFFFFF;}
	.st3{fill:none;}
	.st4{fill:#CCCCCC;}
</style>
<g>
	<path class="st1" d="M229,5c11.6,14.3,23.3,28.5,35,42.7l-5.5,3.6c-10-13.1-19.9-26.2-29.8-39.4c-2.2-2.9-3.4-3.3-5.7-0.3
		c-2.7,3.5-5.9,6.7-9.2,10.4c2.6,0.6,4.2-1.5,7.1-1.2c-3.5,4-6.7,7.9-10.1,11.5c-2,2.1-2.8,4.2-2.5,7.1c0.9,9.9,1.5,19.9,1.5,30.1
		c-3-9.7-5.9-19.3-8.8-29c-2-0.2-2.8,1.3-3.8,2.2c-9.1,8.1-18,16.4-27.3,24.2c-4.2,3.6-7.1,7.6-8.4,13.1c-1,4.3-2.7,8.4-4.1,12.7
		c-0.2-0.1-0.5-0.2-0.8-0.3c0-6.7,0.1-13.3,0-20c0-2.3,1.3-3.7,2.8-5c7.7-7,15.5-14.1,23.2-21.1c-0.6-0.7-1.2-1.4-1.9-2.1
		c-7.6,4.2-15.2,8.4-22.8,12.7c-0.2-0.2-0.4-0.4-0.6-0.6c3-3.4,5.9-6.8,9-10.1c1.7-1.8,1.9-3,0.1-4.9c-4.5-4.7-8.8-9.5-13.2-14.3
		c-1.2-1.3-2.2-2.5-3.8-0.3c-7.6,10.1-15.3,20.1-22.3,30.9c5.7-3.4,11.3-6.8,17-10.2c0.2,0.2,0.4,0.5,0.6,0.7
		c-11.2,14.3-22.5,28.6-33.7,42.9c-0.2-0.1-0.5-0.2-0.7-0.3c1.5-4.2,2.9-8.4,4.4-12.6c-0.2-0.1-0.4-0.3-0.7-0.4
		C104,86.8,94.1,96,84.2,105.3c-0.3-0.2-0.5-0.4-0.8-0.6c3.2-4.9,6.3-9.8,9.5-14.7c-0.2-0.2-0.4-0.4-0.6-0.7c-18,11-36.1,22-54.1,33
		c-0.2-0.3-0.4-0.5-0.6-0.8c6.2-5.6,12.3-11.3,18.5-16.9c30.2-27.4,60.5-54.8,90.6-82.4c2.8-2.5,4.5-2.7,7.3-0.3
		c5.4,4.7,11.4,8.7,16.9,13.3c2.5,2.1,4.2,2.1,6.9,0.2c14.6-10.5,29.4-20.8,43.9-31.4C224.9,1.9,226.5,2,229,5z"/>
	<path class="st1" d="M411.8,133.4c-7.1-7.7-14.2-15.3-21.2-23c-1.8-1.9-3.6-3.9-5.4-5.9c-3.3-3.6-6.6-7.2-9.9-10.8
		c-0.2,0.2-0.5,0.3-0.8,0.4c0.5,1.3,1,2.7,1.5,4c-0.4-0.2-0.8-0.4-1.2-0.6c-2-1-4.1-1.8-6.2-2.4c-6.4-9.5-12.9-19.1-19.5-28.9
		c-6.4,9.4-12.5,18.4-18.7,27.3c-0.3-0.1-0.6-0.2-1-0.4c0.6-4.9,1.2-9.7,1.9-15.8c-4.1,2.7-8.2,5.4-12.2,8v-9.6
		c8.9-7.1,18.1-14,27.2-21.1c1.8-1.4,3-2.1,4.8,0.2c20.2,25.6,40.6,51.2,60.9,76.7C412.3,132,412.3,132.5,411.8,133.4z"/>
	<path class="st1" d="M257.7,67.6l-3.7,0.2l-1.3,1.1l-0.2,7.9c-5.1-0.4-9.6-0.8-15.3-1.3c3-2.8,5.2-5.2,7.7-7.2
		c2.3-1.8,2.3-3.4,1-5.9c-4.9-9.7-9.6-19.6-13.7-29.9c0.8,1.1,1.7,2.1,2.5,3.2C242.5,46.5,249.8,56.8,257.7,67.6z"/>
	<path class="st1" d="M169.1,85.6c1.1-9.3,3.9-16.2,11.4-20.9c4.6-2.8,8.5-6.7,13.3-9.5C185.8,65,177.8,74.8,169.1,85.6z"/>
	<path class="st1" d="M362.7,93.8c-2-0.3-4-0.5-6.1-0.6c-1.7-1.7-3.3-3.4-4.9-5.1c-3.3-3.6-0.6-8.4-0.4-12.9
		C355.1,81.3,358.9,87.5,362.7,93.8z"/>
</g>
<g>
	<path class="st0" d="M25.9,189.4c-0.8-0.7-1.8-1.4-3-2.1c-1.1-0.7-2.6-1-4.5-1c-1.7,0-3,0.5-4.1,1.4c-1,0.9-1.5,2.1-1.5,3.5
		c0,1.1,0.3,2,0.8,2.8c0.5,0.8,1.3,1.6,2.4,2.4c0.2,0.1,0.5,0.4,1,0.7c0.5,0.4,1,0.7,1.5,1.1c0.5,0.4,1,0.7,1.5,1
		c0.5,0.3,0.8,0.6,1.1,0.7c1.1,0.8,2.1,1.5,3,2.3c0.9,0.8,1.7,1.7,2.4,2.6c0.7,1,1.2,2.1,1.6,3.4c0.4,1.3,0.6,2.7,0.6,4.4
		c0,2.3-0.3,4.2-1,5.9c-0.7,1.7-1.5,3-2.4,4.1c-1.7,2-3.7,3.2-6,3.9c-2.2,0.6-4.5,0.9-6.8,0.9c-1.3,0-2.8-0.1-4.7-0.4
		c-1.8-0.3-3.6-0.8-5.3-1.7l-0.4-0.7c0-0.7,0.1-1.4,0.1-2.1c0-0.7,0.1-1.4,0.1-2.2c0-0.6,0.1-1.3,0.1-1.9c0-0.6,0-1.3,0-1.9l0.5-0.2
		c1.2,1.1,2.4,1.9,3.8,2.4c1.4,0.6,2.9,0.8,4.4,0.8c1.2,0,2.3-0.2,3.1-0.6s1.5-0.9,1.9-1.5c0.5-0.6,0.8-1.2,1-1.9
		c0.2-0.7,0.3-1.3,0.3-1.9c0-1.5-0.4-2.7-1.3-3.6c-0.9-1-2.1-2-3.7-3.1l-2.8-1.9c-0.9-0.6-1.8-1.3-2.7-2c-0.9-0.7-1.7-1.6-2.5-2.6
		c-0.8-1-1.4-2.2-1.9-3.5c-0.5-1.3-0.7-2.9-0.7-4.7c0-2.4,0.4-4.4,1.1-6.1c0.8-1.6,1.6-2.9,2.6-3.9c1.6-1.5,3.3-2.5,5.3-3
		c2-0.5,3.9-0.7,5.8-0.7c1.7,0,3.4,0.2,5.1,0.5c1.7,0.3,3.3,0.9,4.9,1.6l0.3,0.5c-0.1,0.7-0.2,1.4-0.2,2.1c0,0.7-0.1,1.4-0.1,2.1
		l-0.2,3.8L25.9,189.4z"/>
	<path class="st0" d="M46.3,206.1v12.1H49c1.8,0,3.3-0.1,4.5-0.1c1.2,0,2.2,0,3-0.1s1.6,0,2.2-0.1c0.6,0,1.3-0.1,2.1-0.1l0.4,0.4
		c-0.1,0.9-0.2,1.6-0.2,2.2c0,0.6-0.1,1.1-0.1,1.7s0,1.1-0.1,1.7s-0.1,1.4-0.1,2.3l-0.4,0.4H49.8c-2.1,0-3.8,0-5.2,0
		c-1.4,0-2.5,0-3.5,0c-1,0-1.9,0-2.8,0.1c-0.8,0-1.8,0.1-2.9,0.1l-0.3-0.4c0-1.3,0.1-2.6,0.1-3.8c0-1.2,0-2.4,0.1-3.8
		c0-1.3,0-2.8,0-4.4c0-1.6,0-3.5,0-5.6c0-2.4,0-4.9,0-7.6c0-2.6,0-5.3-0.1-7.8c0-2.6-0.1-5-0.1-7.4c-0.1-2.3-0.1-4.4-0.2-6.2
		l0.3-0.4c4.2,0,8.4,0.1,12.7,0c4.3,0,8.4-0.1,12.3-0.2l0.3,0.3c-0.1,0.8-0.1,1.5-0.2,2c0,0.6,0,1.1-0.1,1.6c0,0.5,0,1.1-0.1,1.6
		c0,0.6-0.1,1.3-0.1,2.1l-0.4,0.4h-1.2c-1,0-2,0-3,0c-1,0-2,0-3,0h-3.9h-2.5c0,1.2,0,2.2,0,3c0,0.8,0,1.6,0,2.4c0,0.8,0,1.6,0,2.4
		c0,0.9,0,1.9,0,3.2H49c0.8,0,1.6,0,2.4,0c0.7,0,1.5,0,2.3,0c0.8,0,1.6,0,2.4-0.1c0.8,0,1.8-0.1,3-0.1l0.4,0.4
		c-0.1,0.8-0.1,1.5-0.2,2.1c0,0.6,0,1.1-0.1,1.5c0,0.5,0,1-0.1,1.5s-0.1,1.2-0.1,2l-0.4,0.4c-1.6,0-3.2-0.1-4.8-0.1
		c-1.6,0-3.2,0-4.8,0H46.3z"/>
	<path class="st0" d="M75.7,196.2l0.4,12.3c0,2.2,0.1,4.1,0.1,5.6c0,1.5,0.1,2.9,0.1,4.1c0,1.2,0.1,2.5,0.1,3.7s0.1,2.6,0.2,4.2
		l-0.4,0.4c-1,0-1.9,0-2.6,0c-0.7,0-1.4,0-2,0s-1.2,0-1.9,0.1c-0.6,0-1.4,0.1-2.2,0.1l-0.4-0.4c0-2,0.1-4,0.1-5.9c0-1.9,0-3.9,0-6.1
		c0-1.6,0-3.5,0-5.7c0-2.2,0-4.4-0.1-6.6c0-2.2,0-4.3-0.1-6.2c0-1.9,0-3.4,0-4.5c0-0.4,0-1.1,0-1.9c0-0.8,0-1.7-0.1-2.7
		c0-1-0.1-2.1-0.1-3.3c0-1.2-0.1-2.4-0.1-3.7l0.4-0.4c1.2,0,2.3,0,3.1,0s1.5,0,2.2,0c0.7,0,1.4,0,2.2-0.1c0.8,0,1.7-0.1,2.9-0.1
		l0.5,0.4c0.4,0.9,0.9,1.8,1.3,2.5c0.4,0.8,0.9,1.6,1.4,2.7c0.6,1,1.3,2.3,2.1,3.9c0.8,1.6,2,3.6,3.3,6l7.5,13.7l-0.3-13.5l-0.2-7.3
		c0-1,0-1.9,0-2.5c0-0.6,0-1.2-0.1-1.7c0-0.5,0-1-0.1-1.5s-0.1-1.2-0.1-2l0.4-0.4c1,0,1.9,0,2.6,0c0.7,0,1.3,0,1.9,0s1.2,0,1.8,0
		c0.6,0,1.3-0.1,2.2-0.1l0.3,0.4c0,2.5,0,4.9,0,7.2c0,2.3,0,4.4,0,6.3c0,1.9,0,3.6,0,5c0,1.4,0,2.5,0,3.2c0,1.3,0,2.9,0,4.9
		s0,4.1,0,6.4s0,4.6,0.1,7c0,2.4,0.1,4.5,0.2,6.5l-0.4,0.4c-1.2,0-2.1,0-2.8,0c-0.7,0-1.4,0-2.1,0c-0.6,0-1.3,0-2,0.1
		c-0.7,0-1.6,0.1-2.7,0.1l-0.5-0.4c-0.4-0.8-0.7-1.4-1-2c-0.3-0.6-0.7-1.3-1.1-2.1c-0.5-0.8-1.1-1.9-1.8-3.2c-0.7-1.3-1.7-3.1-3-5.3
		L75.7,196.2z"/>
	<path class="st0" d="M132.7,189.4c-0.8-0.7-1.8-1.4-3-2.1c-1.1-0.7-2.6-1-4.5-1c-1.7,0-3,0.5-4.1,1.4c-1,0.9-1.5,2.1-1.5,3.5
		c0,1.1,0.3,2,0.8,2.8c0.5,0.8,1.3,1.6,2.4,2.4c0.2,0.1,0.5,0.4,1,0.7c0.5,0.4,1,0.7,1.5,1.1c0.5,0.4,1,0.7,1.5,1
		c0.5,0.3,0.8,0.6,1.1,0.7c1.1,0.8,2.1,1.5,3,2.3c0.9,0.8,1.7,1.7,2.4,2.6c0.7,1,1.2,2.1,1.6,3.4c0.4,1.3,0.6,2.7,0.6,4.4
		c0,2.3-0.3,4.2-1,5.9c-0.7,1.7-1.5,3-2.4,4.1c-1.7,2-3.7,3.2-6,3.9c-2.2,0.6-4.5,0.9-6.8,0.9c-1.3,0-2.8-0.1-4.7-0.4
		s-3.6-0.8-5.3-1.7l-0.4-0.7c0-0.7,0.1-1.4,0.1-2.1c0-0.7,0.1-1.4,0.1-2.2c0-0.6,0.1-1.3,0.1-1.9c0-0.6,0-1.3,0-1.9l0.5-0.2
		c1.2,1.1,2.4,1.9,3.8,2.4c1.4,0.6,2.9,0.8,4.4,0.8c1.2,0,2.3-0.2,3.1-0.6c0.8-0.4,1.5-0.9,1.9-1.5c0.5-0.6,0.8-1.2,1-1.9
		c0.2-0.7,0.3-1.3,0.3-1.9c0-1.5-0.4-2.7-1.3-3.6s-2.1-2-3.7-3.1l-2.8-1.9c-0.9-0.6-1.8-1.3-2.7-2c-0.9-0.7-1.7-1.6-2.5-2.6
		c-0.8-1-1.4-2.2-1.9-3.5c-0.5-1.3-0.7-2.9-0.7-4.7c0-2.4,0.4-4.4,1.1-6.1c0.8-1.6,1.6-2.9,2.6-3.9c1.6-1.5,3.3-2.5,5.3-3
		c2-0.5,3.9-0.7,5.8-0.7c1.7,0,3.4,0.2,5.1,0.5c1.7,0.3,3.3,0.9,4.9,1.6l0.3,0.5c-0.1,0.7-0.2,1.4-0.2,2.1c0,0.7-0.1,1.4-0.1,2.1
		l-0.2,3.8L132.7,189.4z"/>
	<path class="st0" d="M159.8,178.6c4.7,0,8.5,1.2,11.5,3.6s5.1,5.9,6.4,10.6c0.4,1.6,0.8,3.2,0.9,4.9c0.2,1.7,0.3,3.5,0.3,5.5
		c0,1.6-0.1,3.1-0.2,4.6c-0.2,1.5-0.4,3.1-0.8,4.6c-1.2,4.9-3.3,8.6-6.4,11.2c-3.1,2.6-7.1,3.8-12,3.8c-0.5,0-1.3,0-2.4-0.1
		c-1.1-0.1-2.3-0.3-3.6-0.7c-1.3-0.4-2.7-1-4.1-1.9c-1.4-0.8-2.8-2-4-3.6c-1.6-1.9-2.8-4.3-3.6-7.3s-1.3-6.4-1.3-10.5
		c0-3.9,0.4-7.3,1.2-10.4c0.8-3.1,2-5.7,3.7-7.8c1.6-2.1,3.6-3.8,6.1-4.9C153.7,179.2,156.5,178.6,159.8,178.6z M167.4,203
		c0-2.2-0.1-4.3-0.4-6.5c-0.1-0.8-0.3-1.8-0.6-3c-0.3-1.1-0.7-2.2-1.2-3.3c-0.5-1-1.2-1.9-2.1-2.6c-0.9-0.7-2-1.1-3.4-1.1
		c-1.8,0-3.3,0.6-4.3,1.8c-1,1.2-1.8,2.7-2.4,4.4c-0.6,1.7-0.9,3.5-1.1,5.4c-0.2,1.9-0.2,3.5-0.2,4.8c0,0.5,0,1.2,0,2.1
		c0,0.9,0.1,2,0.2,3.1c0.1,1.1,0.3,2.3,0.6,3.4c0.3,1.2,0.6,2.2,1.1,3.2c0.1,0.3,0.3,0.6,0.6,1.1c0.3,0.5,0.6,1,1.1,1.5
		c0.5,0.5,1.1,0.9,1.8,1.3c0.7,0.4,1.6,0.5,2.5,0.5c1.2,0,2.3-0.3,3.3-1c1.1-0.7,1.9-1.8,2.5-3.2s1.1-2.9,1.4-4.4
		c0.3-1.5,0.5-3,0.6-4.4C167.4,204.9,167.4,203.8,167.4,203z"/>
	<path class="st0" d="M185,179.5c0.5,0,1.5,0,2.9,0s2.9,0,4.5-0.1c1.6,0,3.1,0,4.5-0.1c1.4,0,2.4,0,3.1,0c1.7,0,3.5,0.1,5.2,0.3
		c1.7,0.2,3.2,0.6,4.5,1.3c2,1.1,3.4,2.7,4.3,4.8s1.3,4.5,1.3,7.2c0,2.4-0.3,4.4-0.9,6c-0.6,1.5-1.3,2.7-2.1,3.6
		c-0.7,0.9-1.4,1.5-2.1,2c-0.7,0.4-1.3,0.8-1.9,1l3,6.7c1,2.3,2.1,4.6,3.1,6.9c1.1,2.3,2.2,4.5,3.5,6.8l-0.3,0.5
		c-1.4,0-2.5,0.1-3.5,0.1c-0.9,0-1.8,0.1-2.6,0.1c-0.8,0-1.6,0.1-2.4,0.1c-0.8,0-1.8,0.1-2.9,0.1l-0.5-0.4c-0.3-0.7-0.5-1.3-0.7-1.9
		c-0.2-0.6-0.5-1.3-0.9-2.3c-0.4-1-0.9-2.2-1.5-3.8c-0.6-1.6-1.5-3.8-2.6-6.5l-1.6-3.9c-0.6,0-1.1,0.1-1.3,0.1c-0.2,0-0.7,0-1.3,0
		c0,3.1,0,6.1,0,9.1c0,3,0.1,6,0.4,9.1l-0.3,0.4c-1.3,0-2.3,0-3.2,0c-0.8,0-1.6,0-2.3,0c-0.7,0-1.5,0-2.2,0s-1.7,0.1-2.9,0.1
		l-0.4-0.4c0.1-4.3,0.2-8.3,0.2-12c0-3.7,0.1-6.8,0.1-9.1c0-2.3,0-4.6,0-6.9c0-2.3-0.1-4.6-0.1-6.9c0-1.3,0-2.5,0-3.5
		c0-1,0-1.9-0.1-2.8c0-0.9-0.1-1.7-0.1-2.5c0-0.8-0.1-1.7-0.1-2.7L185,179.5z M195.8,200.5c0.4,0,1.1,0.1,1.9,0
		c0.8,0,1.5-0.1,2.1-0.3c1-0.3,1.8-0.7,2.4-1.2c0.6-0.6,1-1.2,1.3-1.9c0.3-0.7,0.5-1.4,0.6-2.1c0.1-0.7,0.1-1.3,0.1-1.8
		c0-0.8-0.1-1.5-0.2-2.2c-0.2-0.7-0.4-1.4-0.8-2c-0.5-0.8-1.1-1.3-1.8-1.6c-0.7-0.3-1.6-0.4-2.7-0.4c-0.5,0-1,0-1.5,0
		s-0.9,0.1-1.4,0.1c0,1.8,0,3.2,0,4.3c0,1.1,0,2.1,0,3s0,1.8,0,2.7C195.8,198,195.8,199.2,195.8,200.5z"/>
	<path class="st0" d="M245.1,189.4c-0.8-0.7-1.8-1.4-3-2.1c-1.1-0.7-2.6-1-4.5-1c-1.7,0-3,0.5-4.1,1.4c-1,0.9-1.5,2.1-1.5,3.5
		c0,1.1,0.3,2,0.8,2.8c0.5,0.8,1.3,1.6,2.4,2.4c0.2,0.1,0.5,0.4,1,0.7c0.5,0.4,1,0.7,1.5,1.1c0.5,0.4,1,0.7,1.5,1
		c0.5,0.3,0.8,0.6,1.1,0.7c1.1,0.8,2.1,1.5,3,2.3s1.7,1.7,2.4,2.6c0.7,1,1.2,2.1,1.6,3.4c0.4,1.3,0.6,2.7,0.6,4.4
		c0,2.3-0.3,4.2-1,5.9c-0.7,1.7-1.5,3-2.4,4.1c-1.7,2-3.7,3.2-6,3.9c-2.2,0.6-4.5,0.9-6.8,0.9c-1.3,0-2.8-0.1-4.7-0.4
		c-1.8-0.3-3.6-0.8-5.3-1.7l-0.4-0.7c0-0.7,0.1-1.4,0.1-2.1c0-0.7,0.1-1.4,0.1-2.2c0-0.6,0.1-1.3,0.1-1.9c0-0.6,0-1.3,0-1.9l0.5-0.2
		c1.2,1.1,2.4,1.9,3.8,2.4c1.4,0.6,2.9,0.8,4.4,0.8c1.2,0,2.3-0.2,3.1-0.6c0.8-0.4,1.5-0.9,1.9-1.5c0.5-0.6,0.8-1.2,1-1.9
		c0.2-0.7,0.3-1.3,0.3-1.9c0-1.5-0.4-2.7-1.3-3.6c-0.9-1-2.1-2-3.7-3.1l-2.8-1.9c-0.9-0.6-1.8-1.3-2.7-2c-0.9-0.7-1.7-1.6-2.5-2.6
		c-0.8-1-1.4-2.2-1.9-3.5c-0.5-1.3-0.7-2.9-0.7-4.7c0-2.4,0.4-4.4,1.1-6.1c0.8-1.6,1.6-2.9,2.6-3.9c1.6-1.5,3.3-2.5,5.3-3
		c2-0.5,3.9-0.7,5.8-0.7c1.7,0,3.4,0.2,5.1,0.5c1.7,0.3,3.3,0.9,4.9,1.6l0.3,0.5c-0.1,0.7-0.2,1.4-0.2,2.1c0,0.7-0.1,1.4-0.1,2.1
		l-0.2,3.8L245.1,189.4z"/>
	<path class="st0" d="M284.7,217.2c1.9,0,3.4,0,4.7,0c1.3,0,2.4-0.1,3.3-0.1c1,0,1.9-0.1,2.7-0.1c0.8,0,1.8-0.1,2.8-0.2l0.4,0.4
		c-0.1,1-0.2,1.8-0.2,2.4c0,0.7-0.1,1.3-0.1,1.9c0,0.6-0.1,1.3-0.1,2c0,0.7,0,1.5,0,2.5l-0.6,0.4c-1.4,0-2.9-0.1-4.4,0
		c-1.6,0-3.1,0-4.7,0h-9.2c-2,0-3.9,0.1-5.8,0.1c-1.9,0-3.9,0-5.9,0.1l-0.4-1c0.2-0.2,0.4-0.5,0.6-0.8c0.2-0.3,0.3-0.5,0.5-0.8
		c1.3-1.7,2.5-3.4,3.8-5.1c1.2-1.7,2.5-3.4,3.7-5.1c0.7-1,1.4-2,2.1-3c0.7-1,1.4-2,2.1-3c1.1-1.6,2-3,2.7-4.1
		c0.7-1.2,1.3-2.2,1.7-3.1c0.4-0.9,0.7-1.7,0.9-2.5c0.2-0.8,0.3-1.6,0.3-2.4c0-2-0.6-3.7-1.7-5.1c-1.1-1.4-2.8-2.1-4.9-2.1
		c-1,0-2,0.1-2.9,0.4c-0.9,0.3-1.7,0.6-2.5,1c-0.8,0.4-1.5,0.8-2.1,1.3c-0.6,0.5-1.2,0.9-1.6,1.3l-0.6-0.4c0-1.1,0.1-1.9,0.1-2.7
		c0-0.7,0-1.4,0-2c0-0.6,0-1.3,0-1.9c0-0.6,0-1.4,0-2.4l0.4-0.6c2-1,4-1.7,6-2.4c2.1-0.6,4.2-0.9,6.3-0.9c2,0,3.9,0.3,5.7,0.9
		c1.8,0.6,3.4,1.6,4.7,2.8c1.3,1.3,2.4,2.9,3.2,4.8c0.8,1.9,1.2,4.1,1.2,6.7c0,1.7-0.2,3.2-0.5,4.5c-0.3,1.3-0.8,2.6-1.5,3.9
		c-0.6,1.3-1.4,2.5-2.4,3.8c-0.9,1.3-2,2.7-3.1,4.2c-0.4,0.5-0.8,1.1-1.3,1.7c-0.4,0.6-0.8,1.1-1.3,1.6L284.7,217.2z"/>
	<path class="st0" d="M332.8,203.3c0,2.4-0.1,5.1-0.4,7.9c-0.3,2.8-0.9,5.4-1.9,7.8c-1,2.4-2.6,4.4-4.7,6c-2.1,1.6-4.9,2.4-8.5,2.4
		c-0.7,0-1.6,0-2.5-0.1c-1-0.1-1.9-0.3-3-0.7c-1-0.4-2.1-0.9-3.1-1.7c-1.1-0.7-2-1.8-2.9-3c-0.8-1.2-1.5-2.5-2-4
		c-0.5-1.5-0.9-3-1.2-4.7c-0.3-1.6-0.5-3.3-0.6-4.9c-0.1-1.7-0.1-3.3-0.1-4.8c0-1.4,0-3,0.1-4.7c0.1-1.7,0.3-3.5,0.6-5.3
		c0.3-1.8,0.8-3.5,1.5-5.2c0.6-1.7,1.5-3.2,2.7-4.5c1.1-1.3,2.6-2.4,4.3-3.2c1.7-0.8,3.8-1.2,6.3-1.2c0.5,0,1.2,0,2.2,0.1
		c0.9,0.1,1.9,0.3,3,0.6c1.1,0.4,2.2,0.9,3.3,1.6c1.1,0.7,2.1,1.8,3.1,3.1c0.9,1.2,1.6,2.6,2.1,4.1c0.5,1.6,0.9,3.2,1.2,4.8
		c0.3,1.6,0.5,3.3,0.5,4.9C332.8,200.3,332.8,201.8,332.8,203.3z M321.8,203.9c0-0.9,0-1.8,0-3c0-1.1-0.1-2.2-0.1-3.4
		c-0.1-1.1-0.2-2.2-0.3-3.3c-0.1-1-0.2-1.9-0.4-2.6c-0.1-0.5-0.2-1-0.4-1.5c-0.2-0.5-0.4-1-0.7-1.4c-0.3-0.4-0.6-0.8-1.1-1.1
		c-0.4-0.3-0.9-0.4-1.5-0.4c-0.9,0-1.5,0.3-1.9,0.8c-0.4,0.5-0.7,0.9-0.9,1.1c-0.4,0.8-0.7,1.8-0.9,3s-0.4,2.5-0.5,3.8
		c-0.1,1.3-0.2,2.6-0.2,3.9c0,1.3,0,2.4,0,3.3c0,1,0,2.1,0,3.4c0,1.3,0.1,2.7,0.2,4.1c0.1,1.4,0.3,2.7,0.5,4c0.2,1.2,0.5,2.2,1,2.9
		c0.1,0.2,0.4,0.6,0.9,1.1c0.5,0.5,1.1,0.7,2,0.7c0.6,0,1.1-0.1,1.5-0.4s0.8-0.7,1-1.1c0.3-0.5,0.5-1,0.7-1.5
		c0.2-0.5,0.3-1.1,0.4-1.5c0.3-1.4,0.5-3.1,0.6-5.1S321.8,205.7,321.8,203.9z"/>
	<path class="st0" d="M352.8,217.2c1.9,0,3.4,0,4.7,0c1.3,0,2.4-0.1,3.3-0.1c1,0,1.9-0.1,2.7-0.1c0.8,0,1.8-0.1,2.8-0.2l0.4,0.4
		c-0.1,1-0.2,1.8-0.2,2.4c0,0.7-0.1,1.3-0.1,1.9c0,0.6-0.1,1.3-0.1,2c0,0.7,0,1.5,0,2.5l-0.6,0.4c-1.4,0-2.9-0.1-4.4,0
		c-1.6,0-3.1,0-4.7,0h-9.2c-2,0-3.9,0.1-5.8,0.1c-1.9,0-3.9,0-5.9,0.1l-0.4-1c0.2-0.2,0.4-0.5,0.6-0.8c0.2-0.3,0.3-0.5,0.5-0.8
		c1.3-1.7,2.5-3.4,3.8-5.1c1.2-1.7,2.5-3.4,3.7-5.1c0.7-1,1.4-2,2.1-3c0.7-1,1.4-2,2.1-3c1.1-1.6,2-3,2.7-4.1
		c0.7-1.2,1.3-2.2,1.7-3.1c0.4-0.9,0.7-1.7,0.9-2.5c0.2-0.8,0.3-1.6,0.3-2.4c0-2-0.6-3.7-1.7-5.1c-1.1-1.4-2.8-2.1-4.9-2.1
		c-1,0-2,0.1-2.9,0.4c-0.9,0.3-1.7,0.6-2.5,1c-0.8,0.4-1.5,0.8-2.1,1.3c-0.6,0.5-1.2,0.9-1.6,1.3l-0.6-0.4c0-1.1,0.1-1.9,0.1-2.7
		c0-0.7,0-1.4,0-2c0-0.6,0-1.3,0-1.9c0-0.6,0-1.4,0-2.4l0.4-0.6c2-1,4-1.7,6-2.4c2.1-0.6,4.2-0.9,6.3-0.9c2,0,3.9,0.3,5.7,0.9
		c1.8,0.6,3.4,1.6,4.7,2.8c1.3,1.3,2.4,2.9,3.2,4.8c0.8,1.9,1.2,4.1,1.2,6.7c0,1.7-0.2,3.2-0.5,4.5c-0.3,1.3-0.8,2.6-1.5,3.9
		c-0.6,1.3-1.4,2.5-2.4,3.8c-0.9,1.3-2,2.7-3.1,4.2c-0.4,0.5-0.8,1.1-1.3,1.7c-0.4,0.6-0.8,1.1-1.3,1.6L352.8,217.2z"/>
	<path class="st0" d="M383.2,196c0.8-0.2,1.4-0.3,2-0.3c0.6,0,1,0,1.2,0c2,0,3.8,0.3,5.5,1c1.7,0.7,3.1,1.7,4.3,2.9
		c1.2,1.2,2.2,2.8,2.9,4.6c0.7,1.8,1,3.8,1,6c0,2.7-0.5,5.2-1.5,7.4c-1,2.2-2.3,4.1-4.1,5.6c-1,0.9-2,1.6-3.1,2.2
		c-1.1,0.5-2.1,0.9-3.1,1.2s-2,0.5-2.9,0.6c-1,0.1-1.8,0.1-2.7,0.1c-1.6,0-3.4-0.2-5.3-0.5c-1.9-0.3-3.8-0.9-5.8-1.7l-0.5-0.6
		c0-0.9,0.1-1.6,0.1-2.3c0-0.6,0.1-1.3,0.1-1.9c0-0.6,0-1.3,0-1.9s0-1.5,0-2.4l0.6-0.4c0.3,0.3,0.8,0.7,1.3,1.1
		c0.5,0.4,1.1,0.8,1.8,1.1c0.7,0.4,1.4,0.7,2.3,0.9c0.9,0.2,1.9,0.4,3,0.4c2.6,0,4.6-0.7,5.9-2.1c1.4-1.4,2-3.4,2-5.9
		c0-2.2-0.6-3.9-1.9-5.3c-1.3-1.4-3.3-2-5.9-2c-1.8,0-3.3,0.3-4.5,0.8c-1.2,0.5-2.2,1.1-2.9,1.6l-0.7-0.4l0.6-8.7
		c0.2-2.8,0.3-5.1,0.5-6.8c0.1-1.7,0.2-3.1,0.3-4.2c0.1-1.1,0.1-2.1,0.1-2.9c0-0.8,0-1.7,0-2.7l0.5-0.4c0.9,0,1.6,0,2.2,0
		c0.6,0,1.1,0,1.7,0c0.5,0,1.1,0,1.8,0c0.6,0,1.4,0,2.3,0h6.1c1.4,0,2.9-0.1,4.4-0.1c1.5,0,3.1-0.1,4.6-0.1l0.5,0.4
		c-0.1,1-0.2,1.8-0.3,2.4c-0.1,0.6-0.1,1.3-0.2,1.8c0,0.6-0.1,1.2-0.2,1.8c-0.1,0.6-0.1,1.4-0.2,2.3l-0.5,0.4
		c-1.3,0-2.4-0.1-3.3-0.1c-0.9,0-1.6,0-2.3-0.1c-0.6,0-1.2,0-1.8-0.1c-0.6,0-1.2,0-1.8,0h-3.9L383.2,196z"/>
</g>
<g>
	<path class="st1" d="M13.1,169c-0.7,0-1.3,0-1.7,0c-0.5,0-0.9,0-1.3,0s-0.9,0-1.4,0c-0.5,0-1.1,0-1.8,0.1l-0.2-0.2
		c0.1-5,0.1-9.9,0.1-14.9c0-0.9,0-1.8,0-2.5s0-1.6,0-2.4c0-0.8,0-1.8-0.1-2.8s-0.1-2.3-0.1-3.8l0.2-0.2c0.7,0,1.2,0,1.7,0
		c0.5,0,0.9,0,1.4,0c0.4,0,0.9,0,1.4,0c0.5,0,1.1,0,1.8-0.1l0.2,0.2c-0.1,1.7-0.1,3.4-0.1,5c0,1.7,0,3.3,0,5c0,2.8,0,5.5,0,8.2
		c0,2.7,0.1,5.4,0.2,8.2L13.1,169z"/>
	<path class="st1" d="M24.1,157.4v6.9h1.6c1,0,1.9,0,2.6-0.1s1.2,0,1.7,0s0.9,0,1.3,0c0.4,0,0.8,0,1.2-0.1l0.2,0.2
		c-0.1,0.5-0.1,0.9-0.1,1.3c0,0.3,0,0.6-0.1,0.9c0,0.3,0,0.6,0,1s0,0.8-0.1,1.3l-0.2,0.2h-6.1c-1.2,0-2.2,0-2.9,0s-1.4,0-2,0
		s-1.1,0-1.6,0s-1,0-1.6,0.1l-0.2-0.2c0-0.8,0-1.5,0.1-2.1c0-0.7,0-1.4,0-2.1c0-0.8,0-1.6,0-2.5s0-2,0-3.2c0-1.4,0-2.8,0-4.3
		c0-1.5,0-3,0-4.5c0-1.5,0-2.9-0.1-4.2s-0.1-2.5-0.1-3.5l0.2-0.2c2.4,0,4.8,0,7.2,0s4.8,0,7-0.1l0.2,0.2c-0.1,0.5-0.1,0.8-0.1,1.2
		c0,0.3,0,0.6,0,0.9c0,0.3,0,0.6,0,0.9c0,0.3,0,0.7-0.1,1.2l-0.2,0.2h-0.7c-0.6,0-1.2,0-1.7,0s-1.1,0-1.7,0h-2.2H24
		c0,0.7,0,1.3,0,1.7c0,0.5,0,0.9,0,1.3c0,0.4,0,0.9,0,1.4s0,1.1,0,1.8h1.6c0.5,0,0.9,0,1.3,0c0.4,0,0.8,0,1.3,0c0.4,0,0.9,0,1.4,0
		c0.5,0,1,0,1.7-0.1l0.2,0.2c-0.1,0.5-0.1,0.9-0.1,1.2c0,0.3,0,0.6,0,0.9c0,0.3,0,0.5,0,0.9s0,0.7-0.1,1.1l-0.2,0.2
		c-0.9,0-1.8,0-2.7,0c-0.9,0-1.8,0-2.7,0H24.1z"/>
	<path class="st1" d="M42.3,157.4v6.9h1.6c1,0,1.9,0,2.6-0.1c0.7,0,1.2,0,1.7,0c0.5,0,0.9,0,1.3,0c0.4,0,0.8,0,1.2-0.1l0.2,0.2
		c-0.1,0.5-0.1,0.9-0.1,1.3c0,0.3,0,0.6-0.1,0.9c0,0.3,0,0.6,0,1c0,0.4,0,0.8-0.1,1.3l-0.2,0.2h-6.1c-1.2,0-2.2,0-2.9,0
		c-0.8,0-1.4,0-2,0c-0.6,0-1.1,0-1.6,0s-1,0-1.6,0.1l-0.2-0.2c0-0.8,0-1.5,0.1-2.1c0-0.7,0-1.4,0-2.1s0-1.6,0-2.5s0-2,0-3.2
		c0-1.4,0-2.8,0-4.3c0-1.5,0-3,0-4.5c0-1.5,0-2.9-0.1-4.2c0-1.3-0.1-2.5-0.1-3.5l0.2-0.2c2.4,0,4.8,0,7.2,0c2.4,0,4.8,0,7-0.1
		l0.2,0.2c-0.1,0.5-0.1,0.8-0.1,1.2c0,0.3,0,0.6,0,0.9s0,0.6,0,0.9s0,0.7-0.1,1.2l-0.2,0.2h-0.7c-0.6,0-1.2,0-1.7,0
		c-0.6,0-1.1,0-1.7,0h-2.2h-1.4c0,0.7,0,1.3,0,1.7c0,0.5,0,0.9,0,1.3c0,0.4,0,0.9,0,1.4c0,0.5,0,1.1,0,1.8h1.6c0.5,0,0.9,0,1.3,0
		c0.4,0,0.8,0,1.3,0s0.9,0,1.4,0c0.5,0,1,0,1.7-0.1l0.2,0.2c-0.1,0.5-0.1,0.9-0.1,1.2c0,0.3,0,0.6,0,0.9s0,0.5,0,0.9s0,0.7-0.1,1.1
		l-0.2,0.2c-0.9,0-1.8,0-2.7,0c-0.9,0-1.8,0-2.7,0H42.3z"/>
	<path class="st1" d="M60.5,157.4v6.9H62c1,0,1.9,0,2.6-0.1c0.7,0,1.2,0,1.7,0c0.5,0,0.9,0,1.3,0c0.4,0,0.8,0,1.2-0.1l0.2,0.2
		c-0.1,0.5-0.1,0.9-0.1,1.3c0,0.3,0,0.6-0.1,0.9c0,0.3,0,0.6,0,1c0,0.4,0,0.8-0.1,1.3l-0.2,0.2h-6.1c-1.2,0-2.2,0-2.9,0
		c-0.8,0-1.4,0-2,0c-0.6,0-1.1,0-1.6,0s-1,0-1.6,0.1l-0.2-0.2c0-0.8,0-1.5,0.1-2.1c0-0.7,0-1.4,0-2.1s0-1.6,0-2.5s0-2,0-3.2
		c0-1.4,0-2.8,0-4.3c0-1.5,0-3,0-4.5c0-1.5,0-2.9-0.1-4.2c0-1.3-0.1-2.5-0.1-3.5l0.2-0.2c2.4,0,4.8,0,7.2,0c2.4,0,4.8,0,7-0.1
		l0.2,0.2c-0.1,0.5-0.1,0.8-0.1,1.2c0,0.3,0,0.6,0,0.9s0,0.6,0,0.9s0,0.7-0.1,1.2l-0.2,0.2h-0.7c-0.6,0-1.2,0-1.7,0
		c-0.6,0-1.1,0-1.7,0h-2.2h-1.4c0,0.7,0,1.3,0,1.7c0,0.5,0,0.9,0,1.3c0,0.4,0,0.9,0,1.4c0,0.5,0,1.1,0,1.8H62c0.5,0,0.9,0,1.3,0
		c0.4,0,0.8,0,1.3,0s0.9,0,1.4,0c0.5,0,1,0,1.7-0.1l0.2,0.2c-0.1,0.5-0.1,0.9-0.1,1.2c0,0.3,0,0.6,0,0.9s0,0.5,0,0.9s0,0.7-0.1,1.1
		l-0.2,0.2c-0.9,0-1.8,0-2.7,0c-0.9,0-1.8,0-2.7,0H60.5z"/>
</g>
<path class="st1" d="M282.3,55v-2.3h-5.5v-2.5H271V37.6h-1.2v12.5h-5.7v2.5h-5.5V55h7v0.8h-6.1l0.4,1.5H274v0.8h-13.9l0.4,1.5h2.9
	v0.8h-2.7l0.4,1.5h18.3l0.4-1.5h-11.7v-0.8h12l0.4-1.5h-2.9v-0.8h3.2l0.4-1.5h-15V55H282.3z M267.5,60.5h-3.2v-0.8h3.2V60.5z
	 M276.9,58.1h-2.1v-0.8h2.1V58.1z"/>
<g>
	<g>
		<g>
			<path class="st0" d="M382.6,120.9l2.1-3.9c-0.7-2.1-1.7-4.1-2.9-5.9l-2.2,4.2L382.6,120.9z"/>
			<path class="st0" d="M377.5,105.6c-1.3-1.3-2.7-2.5-4.2-3.5l-0.4,0.8l3,5.6L377.5,105.6z"/>
			<path class="st0" d="M386,126.9L386,126.9l0.5-0.9c-0.1-2.9-0.6-5.7-1.5-8.3l-2,3.6L386,126.9L386,126.9z"/>
			<path class="st0" d="M386.5,127.3c0-0.1,0-0.1,0-0.2l-0.2,0.3l0.2,0.3C386.5,127.7,386.5,127.5,386.5,127.3z"/>
			<polygon class="st0" points="372.3,115.2 369.2,109.6 366.2,115.2 369.2,120.9 			"/>
			<path class="st0" d="M379.3,114.6L379.3,114.6L379.3,114.6l2.2-4.1c-1-1.6-2.2-3.1-3.6-4.5l-1.6,3L379.3,114.6z"/>
			<polygon class="st0" points="359.2,126.9 359.2,126.9 362.2,121.4 359.2,115.8 359.2,115.8 359.2,115.8 356.2,121.4 359.2,126.9 
							"/>
			<polygon class="st0" points="358.9,127.5 355.8,121.9 352.8,127.5 355.8,133.2 			"/>
			<polygon class="st0" points="365.6,115.2 362.5,109.6 359.5,115.2 362.5,120.9 			"/>
			<polygon class="st0" points="365.9,126.9 365.9,126.9 368.9,121.4 365.9,115.8 365.9,115.8 365.9,115.8 362.9,121.4 365.9,126.9 
							"/>
			<polygon class="st0" points="365.9,114.6 365.9,114.6 368.9,109.1 365.9,103.5 365.9,103.5 365.9,103.5 362.9,109.1 365.9,114.6 
							"/>
			<polygon class="st0" points="385.7,127.5 382.6,121.9 379.6,127.5 382.6,133.2 			"/>
			<path class="st0" d="M366.2,102.9l3,5.6l3-5.6l-1.3-2.3c-0.9-0.5-1.8-1-2.8-1.4L366.2,102.9z"/>
			<path class="st0" d="M386.5,129l-0.5-0.9l0,0l0,0l-3,5.5l1.9,3.5C385.8,134.6,386.3,131.9,386.5,129z"/>
			<path class="st0" d="M372.6,102.3L372.6,102.3L372.6,102.3l0.3-0.6c-0.3-0.2-0.6-0.4-0.9-0.6L372.6,102.3z"/>
			<polygon class="st0" points="362.5,108.6 365.6,102.9 362.5,97.3 359.5,102.9 			"/>
			<path class="st0" d="M365.9,102.3L365.9,102.3L365.9,102.3l1.8-3.4c-1.4-0.6-2.9-1.1-4.4-1.5L365.9,102.3z"/>
			<polygon class="st0" points="379,115.2 375.9,109.6 372.9,115.2 375.9,120.9 			"/>
			<polygon class="st0" points="352.5,126.9 352.5,126.9 355.5,121.4 352.5,115.8 352.5,115.8 352.5,115.8 349.5,121.4 352.5,126.9 
							"/>
			<polygon class="st0" points="372.6,103.5 372.6,103.5 369.6,109.1 372.6,114.6 372.6,114.6 372.6,114.6 375.6,109.1 372.6,103.5 
							"/>
			<polygon class="st0" points="372.6,126.9 372.6,126.9 375.6,121.4 372.6,115.8 372.6,115.8 372.6,115.8 369.6,121.4 372.6,126.9 
							"/>
			<polygon class="st0" points="379.3,126.9 379.3,126.9 382.3,121.4 379.3,115.8 379.3,115.8 379.3,115.8 376.3,121.4 379.3,126.9 
							"/>
			<polygon class="st0" points="359.2,103.5 359.2,103.5 356.2,109.1 359.2,114.6 359.2,114.6 359.2,114.6 362.2,109.1 359.2,103.5 
							"/>
			<path class="st0" d="M330,110.2l2.4,4.4l0,0l0,0l3-5.5l-1.8-3.3C332.3,107.2,331.1,108.7,330,110.2z"/>
			<polygon class="st0" points="339.1,114.6 339.1,114.6 342.1,109.1 339.1,103.5 339.1,103.5 339.1,103.5 336.1,109.1 339.1,114.6 
							"/>
			<path class="st0" d="M325.7,128.1L325.7,128.1L325.7,128.1l-0.8,1.4c0.2,2.8,0.8,5.5,1.7,8l2.1-3.9L325.7,128.1z"/>
			<path class="st0" d="M325.7,126.9L325.7,126.9l3-5.5l-2.2-4c-0.9,2.6-1.4,5.3-1.6,8.1L325.7,126.9L325.7,126.9z"/>
			<path class="st0" d="M332.1,115.2l-2.4-4.4c-1.2,1.8-2.1,3.8-2.9,5.8l2.3,4.2L332.1,115.2z"/>
			<path class="st0" d="M324.9,126.6c0,0.2,0,0.5,0,0.7c0,0.4,0,0.7,0,1.1l0.5-0.9L324.9,126.6z"/>
			<polygon class="st0" points="375.6,146 372.8,151.1 372.4,151.1 369.6,146 372.6,140.4 372.6,140.4 			"/>
			<polygon class="st0" points="332.7,115.2 335.7,120.9 338.8,115.2 335.7,109.6 			"/>
			<polygon class="st0" points="352.2,115.2 349.1,109.6 346.1,115.2 349.1,120.9 			"/>
			<path class="st0" d="M352.5,102.3L352.5,102.3L352.5,102.3l3-5.5l-0.1-0.3c-1.9,0-3.8,0.2-5.7,0.6L352.5,102.3z"/>
			<polygon class="st0" points="346.1,102.9 349.1,108.6 352.2,102.9 349.1,97.3 			"/>
			<polygon class="st0" points="358.9,115.2 355.8,109.6 352.8,115.2 355.8,120.9 			"/>
			<polygon class="st0" points="345.8,126.9 345.8,126.9 348.8,121.4 345.8,115.8 345.8,115.8 345.8,115.8 342.8,121.4 345.8,126.9 
							"/>
			<polygon class="st0" points="345.8,103.5 345.8,103.5 342.8,109.1 345.8,114.6 345.8,114.6 345.8,114.6 348.8,109.1 345.8,103.5 
							"/>
			<polygon class="st0" points="352.5,103.5 352.5,103.5 349.5,109.1 352.5,114.6 352.5,114.6 352.5,114.6 355.5,109.1 352.5,103.5 
							"/>
			<polygon class="st0" points="332.4,126.9 332.4,126.9 335.4,121.4 332.4,115.8 332.4,115.8 332.4,115.8 329.4,121.4 332.4,126.9 
							"/>
			<polygon class="st0" points="338.8,127.5 335.7,121.9 332.7,127.5 335.7,133.2 			"/>
			<polygon class="st0" points="332.1,127.5 329,121.9 326,127.5 329,133.2 			"/>
			<polygon class="st0" points="339.1,126.9 339.1,126.9 342.1,121.4 339.1,115.8 339.1,115.8 339.1,115.8 336.1,121.4 339.1,126.9 
							"/>
			<polygon class="st0" points="345.5,115.2 342.4,109.6 339.4,115.2 342.4,120.9 			"/>
			<polygon class="st0" points="368.9,146 366.5,150.4 364.8,149.6 362.9,146 365.9,140.4 365.9,140.4 			"/>
			<polygon class="st0" points="355.2,145.5 350.4,147.7 349.5,146 352.5,140.4 			"/>
			<polygon class="st0" points="352.2,139.8 349.1,134.2 346.1,139.8 349.1,145.5 			"/>
			<polygon class="st0" points="362.2,146 361.2,147.8 356.4,145.6 359.2,140.4 359.2,140.4 			"/>
			<path class="st0" d="M338.2,151.1H336c-0.7-0.5-1.3-1.1-1.9-1.7l1.6-2.9L338.2,151.1z"/>
			<polygon class="st0" points="348.8,146 346.9,149.4 345.1,150.2 342.8,146 345.8,140.4 			"/>
			<polygon class="st0" points="342.1,146 339.3,151.1 338.9,151.1 336.1,146 339.1,140.4 			"/>
			<polygon class="st0" points="345.5,139.8 342.4,134.2 339.4,139.8 342.4,145.5 			"/>
			<polygon class="st0" points="365.6,139.8 362.5,134.2 359.5,139.8 362.5,145.5 			"/>
			<polygon class="st0" points="349.9,148 347.8,149 349.1,146.5 			"/>
			<polygon class="st0" points="363.9,149.1 361.7,148.1 362.5,146.5 			"/>
			<path class="st0" d="M332.4,140.4L332.4,140.4L332.4,140.4l-2.3,4.2c1.1,1.6,2.3,3,3.6,4.4l1.6-3L332.4,140.4z"/>
			<polygon class="st0" points="371.7,151.1 368.1,151.1 367,150.6 369.2,146.5 			"/>
			<polygon class="st0" points="372.3,139.8 369.2,134.2 366.2,139.8 369.2,145.5 			"/>
			<path class="st0" d="M377.4,149.2c-0.7,0.7-1.4,1.3-2.1,1.9h-1.8l2.5-4.6L377.4,149.2z"/>
			<polygon class="st0" points="379,139.8 375.9,134.2 372.9,139.8 375.9,145.5 			"/>
			<path class="st0" d="M381.4,144.3l-2.1-3.9l0,0l0,0l-3,5.5l1.5,2.8C379.1,147.4,380.3,145.9,381.4,144.3z"/>
			<polygon class="st0" points="344.6,150.5 343.2,151.1 340,151.1 342.4,146.5 			"/>
			<polygon class="st0" points="352.8,102.9 355.8,108.6 358.9,102.9 355.8,97.3 			"/>
			<polygon class="st0" points="339.1,139.2 339.1,139.2 342.1,133.7 339.1,128.1 339.1,128.1 339.1,128.1 336.1,133.7 339.1,139.2 
							"/>
			<polygon class="st0" points="338.8,139.8 335.7,134.2 332.7,139.8 335.7,145.5 			"/>
			<polygon class="st0" points="345.5,127.5 342.4,121.9 339.4,127.5 342.4,133.2 			"/>
			<polygon class="st0" points="332.4,139.2 332.4,139.2 335.4,133.7 332.4,128.1 332.4,128.1 332.4,128.1 329.4,133.7 332.4,139.2 
							"/>
			<polygon class="st0" points="345.8,139.2 345.8,139.2 348.8,133.7 345.8,128.1 345.8,128.1 345.8,128.1 342.8,133.7 345.8,139.2 
							"/>
			<path class="st0" d="M345.8,102.3L345.8,102.3L345.8,102.3l2.7-5c-1.6,0.4-3.1,0.9-4.5,1.5L345.8,102.3z"/>
			<path class="st0" d="M339.4,102.9l3,5.6l3-5.6l-2.1-3.9c-0.9,0.4-1.7,0.8-2.6,1.3L339.4,102.9z"/>
			<path class="st0" d="M359.2,102.3L359.2,102.3L359.2,102.3l2.8-5.2c-1.8-0.4-3.7-0.6-5.6-0.6l-0.1,0.3L359.2,102.3z"/>
			<path class="st0" d="M329,134.2l-2.2,4.1c0.8,2,1.8,4,2.9,5.8l2.3-4.2L329,134.2z"/>
			<path class="st0" d="M339.1,102.3L339.1,102.3L339.1,102.3l0.8-1.5c-0.4,0.2-0.8,0.5-1.2,0.7L339.1,102.3z"/>
			<path class="st0" d="M335.7,108.6l3-5.6l-0.5-1c-1.5,1-2.9,2.2-4.2,3.5L335.7,108.6z"/>
			<polygon class="st0" points="352.2,127.5 349.1,121.9 346.1,127.5 349.1,133.2 			"/>
			<polygon class="st0" points="372.3,127.5 369.2,121.9 366.2,127.5 369.2,133.2 			"/>
			<polygon class="st0" points="379,127.5 375.9,121.9 372.9,127.5 375.9,133.2 			"/>
			<polygon class="st0" points="372.6,139.2 372.6,139.2 375.6,133.7 372.6,128.1 372.6,128.1 372.6,128.1 369.6,133.7 372.6,139.2 
							"/>
			<polygon class="st0" points="352.5,139.2 352.5,139.2 355.5,133.7 352.5,128.1 352.5,128.1 352.5,128.1 349.5,133.7 352.5,139.2 
							"/>
			<polygon class="st0" points="379.3,139.2 379.3,139.2 382.3,133.7 379.3,128.1 379.3,128.1 379.3,128.1 376.3,133.7 379.3,139.2 
							"/>
			<path class="st0" d="M384.6,137.9l-2-3.7l-3,5.6l2.1,4C382.9,142,383.9,140,384.6,137.9z"/>
			<polygon class="st0" points="359.2,139.2 359.2,139.2 362.2,133.7 359.2,128.1 359.2,128.1 359.2,128.1 356.2,133.7 359.2,139.2 
							"/>
			<polygon class="st0" points="358.9,139.8 355.9,145.4 355.8,145.5 355.7,145.3 352.8,139.8 355.8,134.2 			"/>
			<polygon class="st0" points="365.9,139.2 365.9,139.2 368.9,133.7 365.9,128.1 365.9,128.1 365.9,128.1 362.9,133.7 365.9,139.2 
							"/>
			<polygon class="st0" points="365.6,127.5 362.5,121.9 359.5,127.5 362.5,133.2 			"/>
		</g>
	</g>
	<polygon class="st2" points="355.7,145.3 355.9,145.4 355.8,145.5 	"/>
	<g>
		<path class="st1" d="M261.5,62.8l0.4,1.2h5.6v-1.2H261.5z M268.6,69.1h-1.1v-4.6h-3.4V69h-8.9v100h14.2V64.5h-0.8V69.1z
			 M258.9,164.4h-2.1v-2.8h2.1V164.4z M258.9,159.7h-2.1v-2.8h2.1V159.7z M258.9,155h-2.1v-2.8h2.1V155z M258.9,150.2h-2.1v-2.8h2.1
			V150.2z M258.9,145.5h-2.1v-2.8h2.1V145.5z M258.9,140.7h-2.1v-2.8h2.1V140.7z M258.9,136h-2.1v-2.8h2.1V136z M258.9,131.2h-2.1
			v-2.8h2.1V131.2z M258.9,126.5h-2.1v-2.8h2.1V126.5z M258.9,121.7h-2.1v-2.8h2.1V121.7z M258.9,117h-2.1v-2.8h2.1V117z
			 M258.9,112.3h-2.1v-2.8h2.1V112.3z M258.9,107.5h-2.1v-2.8h2.1V107.5z M258.9,102.8h-2.1v-2.8h2.1V102.8z M258.9,98h-2.1v-2.8
			h2.1V98z M258.9,93.3h-2.1v-2.8h2.1V93.3z M258.9,88.5h-2.1v-2.8h2.1V88.5z M258.9,83.8h-2.1V81h2.1V83.8z M258.9,79h-2.1v-2.8
			h2.1V79z M258.9,74.3h-2.1v-2.8h2.1V74.3z M263.1,164.4H261v-2.8h2.1V164.4z M263.1,159.7H261v-2.8h2.1V159.7z M263.1,155H261
			v-2.8h2.1V155z M263.1,150.2H261v-2.8h2.1V150.2z M263.1,145.5H261v-2.8h2.1V145.5z M263.1,140.7H261v-2.8h2.1V140.7z M263.1,136
			H261v-2.8h2.1V136z M263.1,131.2H261v-2.8h2.1V131.2z M263.1,126.5H261v-2.8h2.1V126.5z M263.1,121.7H261v-2.8h2.1V121.7z
			 M263.1,117H261v-2.8h2.1V117z M263.1,112.3H261v-2.8h2.1V112.3z M263.1,107.5H261v-2.8h2.1V107.5z M263.1,102.8H261v-2.8h2.1
			V102.8z M263.1,98H261v-2.8h2.1V98z M263.1,93.3H261v-2.8h2.1V93.3z M263.1,88.5H261v-2.8h2.1V88.5z M263.1,83.8H261V81h2.1V83.8z
			 M263.1,79H261v-2.8h2.1V79z M263.1,74.3H261v-2.8h2.1V74.3z M267.3,164.4h-2.1v-2.8h2.1V164.4z M267.3,159.7h-2.1v-2.8h2.1V159.7
			z M267.3,155h-2.1v-2.8h2.1V155z M267.3,150.2h-2.1v-2.8h2.1V150.2z M267.3,145.5h-2.1v-2.8h2.1V145.5z M267.3,140.7h-2.1v-2.8
			h2.1V140.7z M267.3,136h-2.1v-2.8h2.1V136z M267.3,131.2h-2.1v-2.8h2.1V131.2z M267.3,126.5h-2.1v-2.8h2.1V126.5z M267.3,121.7
			h-2.1v-2.8h2.1V121.7z M267.3,117h-2.1v-2.8h2.1V117z M267.3,112.3h-2.1v-2.8h2.1V112.3z M267.3,107.5h-2.1v-2.8h2.1V107.5z
			 M267.3,102.8h-2.1v-2.8h2.1V102.8z M267.3,98h-2.1v-2.8h2.1V98z M267.3,93.3h-2.1v-2.8h2.1V93.3z M267.3,88.5h-2.1v-2.8h2.1V88.5
			z M267.3,83.8h-2.1V81h2.1V83.8z M267.3,79h-2.1v-2.8h2.1V79z M267.3,74.3h-2.1v-2.8h2.1V74.3z M268.6,62.8V64h0.8v-1.2H268.6z"/>
		<path class="st1" d="M276.8,69v-4.5h-3.4v4.6h-1.1v-4.6h-0.8v104.6h14.2V69H276.8z M275.7,164.4h-2.1v-2.8h2.1V164.4z
			 M275.7,159.7h-2.1v-2.8h2.1V159.7z M275.7,155h-2.1v-2.8h2.1V155z M275.7,150.2h-2.1v-2.8h2.1V150.2z M275.7,145.5h-2.1v-2.8h2.1
			V145.5z M275.7,140.7h-2.1v-2.8h2.1V140.7z M275.7,136h-2.1v-2.8h2.1V136z M275.7,131.2h-2.1v-2.8h2.1V131.2z M275.7,126.5h-2.1
			v-2.8h2.1V126.5z M275.7,121.7h-2.1v-2.8h2.1V121.7z M275.7,117h-2.1v-2.8h2.1V117z M275.7,112.3h-2.1v-2.8h2.1V112.3z
			 M275.7,107.5h-2.1v-2.8h2.1V107.5z M275.7,102.8h-2.1v-2.8h2.1V102.8z M275.7,98h-2.1v-2.8h2.1V98z M275.7,93.3h-2.1v-2.8h2.1
			V93.3z M275.7,88.5h-2.1v-2.8h2.1V88.5z M275.7,83.8h-2.1V81h2.1V83.8z M275.7,79h-2.1v-2.8h2.1V79z M275.7,74.3h-2.1v-2.8h2.1
			V74.3z M279.9,164.4h-2.1v-2.8h2.1V164.4z M279.9,159.7h-2.1v-2.8h2.1V159.7z M279.9,155h-2.1v-2.8h2.1V155z M279.9,150.2h-2.1
			v-2.8h2.1V150.2z M279.9,145.5h-2.1v-2.8h2.1V145.5z M279.9,140.7h-2.1v-2.8h2.1V140.7z M279.9,136h-2.1v-2.8h2.1V136z
			 M279.9,131.2h-2.1v-2.8h2.1V131.2z M279.9,126.5h-2.1v-2.8h2.1V126.5z M279.9,121.7h-2.1v-2.8h2.1V121.7z M279.9,117h-2.1v-2.8
			h2.1V117z M279.9,112.3h-2.1v-2.8h2.1V112.3z M279.9,107.5h-2.1v-2.8h2.1V107.5z M279.9,102.8h-2.1v-2.8h2.1V102.8z M279.9,98
			h-2.1v-2.8h2.1V98z M279.9,93.3h-2.1v-2.8h2.1V93.3z M279.9,88.5h-2.1v-2.8h2.1V88.5z M279.9,83.8h-2.1V81h2.1V83.8z M279.9,79
			h-2.1v-2.8h2.1V79z M279.9,74.3h-2.1v-2.8h2.1V74.3z M284,164.4h-2.1v-2.8h2.1V164.4z M284,159.7h-2.1v-2.8h2.1V159.7z M284,155
			h-2.1v-2.8h2.1V155z M284,150.2h-2.1v-2.8h2.1V150.2z M284,145.5h-2.1v-2.8h2.1V145.5z M284,140.7h-2.1v-2.8h2.1V140.7z M284,136
			h-2.1v-2.8h2.1V136z M284,131.2h-2.1v-2.8h2.1V131.2z M284,126.5h-2.1v-2.8h2.1V126.5z M284,121.7h-2.1v-2.8h2.1V121.7z M284,117
			h-2.1v-2.8h2.1V117z M284,112.3h-2.1v-2.8h2.1V112.3z M284,107.5h-2.1v-2.8h2.1V107.5z M284,102.8h-2.1v-2.8h2.1V102.8z M284,98
			h-2.1v-2.8h2.1V98z M284,93.3h-2.1v-2.8h2.1V93.3z M284,88.5h-2.1v-2.8h2.1V88.5z M284,83.8h-2.1V81h2.1V83.8z M284,79h-2.1v-2.8
			h2.1V79z M284,74.3h-2.1v-2.8h2.1V74.3z M279.3,62.8h-6V64h5.6L279.3,62.8z M272.3,62.8h-0.8V64h0.8V62.8z"/>
	</g>
	<path class="st0" d="M239.8,94.3v74.7h15.3V94.3H239.8z M251.8,95.8h2.1v2.1h-2.1V95.8z M251.8,99.5h2.1v2.1h-2.1V99.5z
		 M251.8,103.1h2.1v2.1h-2.1V103.1z M251.8,106.8h2.1v2.1h-2.1V106.8z M251.8,110.5h2.1v2.1h-2.1V110.5z M251.8,114.2h2.1v2.1h-2.1
		V114.2z M251.8,117.9h2.1v2.1h-2.1V117.9z M251.8,121.5h2.1v2.1h-2.1V121.5z M251.8,125.2h2.1v2.1h-2.1V125.2z M251.8,128.9h2.1
		v2.1h-2.1V128.9z M251.8,132.6h2.1v2.1h-2.1V132.6z M251.8,136.2h2.1v2.1h-2.1V136.2z M251.8,139.9h2.1v2.1h-2.1V139.9z
		 M251.8,143.6h2.1v2.1h-2.1V143.6z M251.8,147.3h2.1v2.1h-2.1V147.3z M251.8,151h2.1v2.1h-2.1V151z M251.8,154.6h2.1v2.1h-2.1
		V154.6z M251.8,158.3h2.1v2.1h-2.1V158.3z M251.8,162h2.1v2.1h-2.1V162z M247.6,95.8h2.1v2.1h-2.1V95.8z M247.6,99.5h2.1v2.1h-2.1
		V99.5z M247.6,103.1h2.1v2.1h-2.1V103.1z M247.6,106.8h2.1v2.1h-2.1V106.8z M247.6,110.5h2.1v2.1h-2.1V110.5z M247.6,114.2h2.1v2.1
		h-2.1V114.2z M247.6,117.9h2.1v2.1h-2.1V117.9z M247.6,121.5h2.1v2.1h-2.1V121.5z M247.6,125.2h2.1v2.1h-2.1V125.2z M247.6,128.9
		h2.1v2.1h-2.1V128.9z M247.6,132.6h2.1v2.1h-2.1V132.6z M247.6,136.2h2.1v2.1h-2.1V136.2z M247.6,139.9h2.1v2.1h-2.1V139.9z
		 M247.6,143.6h2.1v2.1h-2.1V143.6z M247.6,147.3h2.1v2.1h-2.1V147.3z M247.6,151h2.1v2.1h-2.1V151z M247.6,154.6h2.1v2.1h-2.1
		V154.6z M247.6,158.3h2.1v2.1h-2.1V158.3z M247.6,162h2.1v2.1h-2.1V162z M243.3,95.8h2.1v2.1h-2.1V95.8z M243.3,99.5h2.1v2.1h-2.1
		V99.5z M243.3,103.1h2.1v2.1h-2.1V103.1z M243.3,106.8h2.1v2.1h-2.1V106.8z M243.3,110.5h2.1v2.1h-2.1V110.5z M243.3,114.2h2.1v2.1
		h-2.1V114.2z M243.3,117.9h2.1v2.1h-2.1V117.9z M243.3,121.5h2.1v2.1h-2.1V121.5z M243.3,125.2h2.1v2.1h-2.1V125.2z M243.3,128.9
		h2.1v2.1h-2.1V128.9z M243.3,132.6h2.1v2.1h-2.1V132.6z M243.3,136.2h2.1v2.1h-2.1V136.2z M243.3,139.9h2.1v2.1h-2.1V139.9z
		 M243.3,143.6h2.1v2.1h-2.1V143.6z M243.3,147.3h2.1v2.1h-2.1V147.3z M243.3,151h2.1v2.1h-2.1V151z M243.3,154.6h2.1v2.1h-2.1
		V154.6z M243.3,158.3h2.1v2.1h-2.1V158.3z M243.3,162h2.1v2.1h-2.1V162z M241.8,90.1v3.6h13.3v-3.6H241.8z"/>
	<path class="st0" d="M316.8,156V77h-31.1v92.1h31.1v-12h-2.3l0.5-1H316.8z M295.3,163.3H288v-1.1h7.3V163.3z M295.3,158.7H288v-1.1
		h7.3V158.7z M295.3,154.2H288v-1.1h7.3V154.2z M295.3,149.6H288v-1.1h7.3V149.6z M295.3,145.1H288V144h7.3V145.1z M295.3,140.5H288
		v-1.1h7.3V140.5z M295.3,136H288v-1.1h7.3V136z M295.3,131.4H288v-1.1h7.3V131.4z M295.3,126.9H288v-1.1h7.3V126.9z M295.3,122.4
		H288v-1.1h7.3V122.4z M295.3,117.8H288v-1.1h7.3V117.8z M295.3,113.3H288v-1.1h7.3V113.3z M295.3,108.7H288v-1.1h7.3V108.7z
		 M295.3,104.2H288v-1.1h7.3V104.2z M295.3,99.6H288v-1.1h7.3V99.6z M295.3,95.1H288V94h7.3V95.1z M295.3,90.5H288v-1.1h7.3V90.5z
		 M295.3,86H288v-1.1h7.3V86z M295.3,81.4H288v-1.1h7.3V81.4z M304.8,163.3h-7.3v-1.1h7.3V163.3z M304.8,158.7h-7.3v-1.1h7.3V158.7z
		 M304.8,154.2h-7.3v-1.1h7.3V154.2z M304.8,149.6h-7.3v-1.1h7.3V149.6z M304.8,145.1h-7.3V144h7.3V145.1z M304.8,140.5h-7.3v-1.1
		h7.3V140.5z M304.8,136h-7.3v-1.1h7.3V136z M304.8,131.4h-7.3v-1.1h7.3V131.4z M304.8,126.9h-7.3v-1.1h7.3V126.9z M304.8,122.4
		h-7.3v-1.1h7.3V122.4z M304.8,117.8h-7.3v-1.1h7.3V117.8z M304.8,113.3h-7.3v-1.1h7.3V113.3z M304.8,108.7h-7.3v-1.1h7.3V108.7z
		 M304.8,104.2h-7.3v-1.1h7.3V104.2z M304.8,99.6h-7.3v-1.1h7.3V99.6z M304.8,95.1h-7.3V94h7.3V95.1z M304.8,90.5h-7.3v-1.1h7.3
		V90.5z M304.8,86h-7.3v-1.1h7.3V86z M304.8,81.4h-7.3v-1.1h7.3V81.4z M314.5,163.3h-7.3v-1.1h7.3V163.3z M314.5,157.6v1.1h-7.3
		v-1.1H314.5z M314.5,154.2h-7.3v-1.1h7.3V154.2z M314.5,149.6h-7.3v-1.1h7.3V149.6z M314.5,145.1h-7.3V144h7.3V145.1z M314.5,140.5
		h-7.3v-1.1h7.3V140.5z M314.5,136h-7.3v-1.1h7.3V136z M314.5,131.4h-7.3v-1.1h7.3V131.4z M314.5,126.9h-7.3v-1.1h7.3V126.9z
		 M314.5,122.4h-7.3v-1.1h7.3V122.4z M314.5,117.8h-7.3v-1.1h7.3V117.8z M314.5,113.3h-7.3v-1.1h7.3V113.3z M314.5,108.7h-7.3v-1.1
		h7.3V108.7z M314.5,104.2h-7.3v-1.1h7.3V104.2z M314.5,99.6h-7.3v-1.1h7.3V99.6z M314.5,95.1h-7.3V94h7.3V95.1z M314.5,90.5h-7.3
		v-1.1h7.3V90.5z M314.5,86h-7.3v-1.1h7.3V86z M314.5,81.4h-7.3v-1.1h7.3V81.4z M285.7,72.3v4.1h28.8v-7.7L285.7,72.3z"/>
	<g>
		<g>
			<polygon class="st1" points="232.7,110.1 224.5,110.1 227.7,106.6 227.8,106.5 227.8,103.8 229.4,103.8 229.4,106.5 			"/>
		</g>
		<g>
			<rect x="226.4" y="115.3" class="st1" width="4.3" height="1.5"/>
			<polygon class="st1" points="232.2,110.5 232.2,114 230.8,114 230.8,114.9 230.1,114.9 230.1,111.6 229.3,111.6 229.3,114.9 
				228,114.9 228,111.6 227.2,111.6 227.2,114.9 226.4,114.9 226.4,114 225,114 225,110.5 			"/>
		</g>
		<g>
			<polygon class="st1" points="226.1,114.4 226.1,116.8 224.2,116.8 224.2,118.4 223.1,118.4 223.1,114.4 			"/>
		</g>
		<g>
			<polygon class="st1" points="224.2,118.8 224.2,121.6 223.1,121.6 223.1,119.5 222.4,119.5 222.4,121.6 221.1,121.6 221.1,119.5 
				220.3,119.5 220.3,121.6 219.2,121.6 219.2,118.8 			"/>
		</g>
		<g>
			<path class="st1" d="M218.3,122v3.5h4.4v39.7h0.9v-37.9h0.6V122H218.3z M219.6,125.2h-0.8v-2.3h0.8V125.2z M221.7,125.2h-0.8
				v-2.3h0.8V125.2z M223.8,125.2H223v-2.3h0.8V125.2z"/>
		</g>
		<g>
			<path class="st1" d="M217.4,125.8v43.2h5v-43.2H217.4z M219.2,163.6h-0.8v-0.9h0.8V163.6z M219.2,162.1h-0.8v-5.9h0.8V162.1z
				 M219.2,155.5h-0.8v-5.9h0.8V155.5z M219.2,149h-0.8v-0.9h0.8V149z M219.2,147.5h-0.8v-5.9h0.8V147.5z M219.2,141h-0.8v-5.9h0.8
				V141z M219.2,134.4h-0.8v-0.9h0.8V134.4z M219.2,132.9h-0.8V127h0.8V132.9z M221.3,163.6h-0.8v-0.9h0.8V163.6z M221.3,162.1h-0.8
				v-5.9h0.8V162.1z M221.3,155.5h-0.8v-5.9h0.8V155.5z M221.3,149h-0.8v-0.9h0.8V149z M221.3,147.5h-0.8v-5.9h0.8V147.5z
				 M221.3,141h-0.8v-5.9h0.8V141z M221.3,134.4h-0.8v-0.9h0.8V134.4z M221.3,132.9h-0.8V127h0.8V132.9z"/>
		</g>
		<g>
			<polygon class="st1" points="234.1,114.4 234.1,118.4 232.9,118.4 232.9,116.8 231.1,116.8 231.1,114.4 			"/>
		</g>
		<g>
			<path class="st1" d="M224.6,117.2v10.1h8v-10.1H224.6z M226.9,126.5h-0.8v-2.3h0.8V126.5z M226.9,123.6h-0.8v-2.3h0.8V123.6z
				 M226.9,120.7h-0.8v-2.3h0.8V120.7z M229,126.5h-0.8v-2.3h0.8V126.5z M229,123.6h-0.8v-2.3h0.8V123.6z M229,120.7h-0.8v-2.3h0.8
				V120.7z M231.1,126.5h-0.8v-2.3h0.8V126.5z M231.1,123.6h-0.8v-2.3h0.8V123.6z M231.1,120.7h-0.8v-2.3h0.8V120.7z"/>
		</g>
		<g>
			<polygon class="st1" points="238,118.8 238,121.6 236.9,121.6 236.9,119.5 236.1,119.5 236.1,121.6 234.9,121.6 234.9,119.5 
				234.1,119.5 234.1,121.6 233,121.6 233,118.8 			"/>
		</g>
		<g>
			<path class="st1" d="M233,122v5.3h0.6V169h0.9v-43.6h4.4V122H233z M234.2,125.2h-0.8v-2.3h0.8V125.2z M236.3,125.2h-0.8v-2.3h0.8
				V125.2z M238.4,125.2h-0.8v-2.3h0.8V125.2z"/>
		</g>
		<g>
			<path class="st1" d="M234.9,125.8v43.2h5v-43.2H234.9z M236.7,163.6h-0.8v-0.9h0.8V163.6z M236.7,162.1h-0.8v-5.9h0.8V162.1z
				 M236.7,155.5h-0.8v-5.9h0.8V155.5z M236.7,149h-0.8v-0.9h0.8V149z M236.7,147.5h-0.8v-5.9h0.8V147.5z M236.7,141h-0.8v-5.9h0.8
				V141z M236.7,134.4h-0.8v-0.9h0.8V134.4z M236.7,132.9h-0.8V127h0.8V132.9z M238.8,163.6H238v-0.9h0.8V163.6z M238.8,162.1H238
				v-5.9h0.8V162.1z M238.8,155.5H238v-5.9h0.8V155.5z M238.8,149H238v-0.9h0.8V149z M238.8,147.5H238v-5.9h0.8V147.5z M238.8,141
				H238v-5.9h0.8V141z M238.8,134.4H238v-0.9h0.8V134.4z M238.8,132.9H238V127h0.8V132.9z"/>
		</g>
		<g>
			<path class="st1" d="M223.9,127.7v41.3h9.3v-41.3H223.9z M226.9,165.3h-0.8V163h0.8V165.3z M226.9,161.9h-0.8v-2.3h0.8V161.9z
				 M226.9,158.6h-0.8v-2.3h0.8V158.6z M226.9,155.2h-0.8v-2.3h0.8V155.2z M226.9,151.8h-0.8v-2.3h0.8V151.8z M226.9,148.5h-0.8
				v-2.3h0.8V148.5z M226.9,145.1h-0.8v-2.3h0.8V145.1z M226.9,141.8h-0.8v-2.3h0.8V141.8z M226.9,138.4h-0.8v-2.3h0.8V138.4z
				 M226.9,135.1h-0.8v-2.3h0.8V135.1z M226.9,131.7h-0.8v-2.3h0.8V131.7z M229,165.3h-0.8V163h0.8V165.3z M229,161.9h-0.8v-2.3h0.8
				V161.9z M229,158.6h-0.8v-2.3h0.8V158.6z M229,155.2h-0.8v-2.3h0.8V155.2z M229,151.8h-0.8v-2.3h0.8V151.8z M229,148.5h-0.8v-2.3
				h0.8V148.5z M229,145.1h-0.8v-2.3h0.8V145.1z M229,141.8h-0.8v-2.3h0.8V141.8z M229,138.4h-0.8v-2.3h0.8V138.4z M229,135.1h-0.8
				v-2.3h0.8V135.1z M229,131.7h-0.8v-2.3h0.8V131.7z M231.1,165.3h-0.8V163h0.8V165.3z M231.1,161.9h-0.8v-2.3h0.8V161.9z
				 M231.1,158.6h-0.8v-2.3h0.8V158.6z M231.1,155.2h-0.8v-2.3h0.8V155.2z M231.1,151.8h-0.8v-2.3h0.8V151.8z M231.1,148.5h-0.8
				v-2.3h0.8V148.5z M231.1,145.1h-0.8v-2.3h0.8V145.1z M231.1,141.8h-0.8v-2.3h0.8V141.8z M231.1,138.4h-0.8v-2.3h0.8V138.4z
				 M231.1,135.1h-0.8v-2.3h0.8V135.1z M231.1,131.7h-0.8v-2.3h0.8V131.7z"/>
		</g>
	</g>
	<path class="st0" d="M217.4,139.5V138l-0.1,0c-3.4,9-18.3,14.4-28,14.5V138l-0.1,0c-3.4,9-18.3,14.4-28,14.5V138l-0.1,0
		c-3.4,9-18.3,14.4-28,14.5V138l-0.1,0c-3.4,9-18.3,14.4-28,14.5V138l-0.1,0c-3.4,9-18.3,14.4-28,14.5v16.6h150.5
		C223.5,164.2,217.7,154.6,217.4,139.5z M99,150.5c-4.5,3.4-10.5,5.4-16.1,5.4c-0.3,0-0.5-0.2-0.5-0.5c0-0.3,0.2-0.5,0.5-0.5
		c5.3,0,11.1-2,15.5-5.2c0.2-0.2,0.6-0.1,0.7,0.1C99.3,150,99.3,150.3,99,150.5z M102.7,147.1c-0.4,0.6-1,1.1-1.5,1.6
		c-0.1,0.1-0.2,0.1-0.3,0.1c-0.1,0-0.3-0.1-0.4-0.2c-0.2-0.2-0.2-0.5,0-0.7c0.5-0.5,1-1,1.4-1.5c0.2-0.2,0.5-0.3,0.7-0.1
		C102.8,146.5,102.9,146.8,102.7,147.1z M127.1,150.5c-4.5,3.4-10.5,5.4-16.1,5.4c-0.3,0-0.5-0.2-0.5-0.5c0-0.3,0.2-0.5,0.5-0.5
		c5.2,0,11.2-2,15.5-5.2c0.2-0.2,0.6-0.1,0.7,0.1C127.4,150,127.3,150.3,127.1,150.5z M130.7,147.1c-0.4,0.6-1,1.1-1.5,1.6
		c-0.1,0.1-0.2,0.1-0.3,0.1c-0.1,0-0.3-0.1-0.4-0.2c-0.2-0.2-0.2-0.5,0-0.7c0.5-0.5,1-1,1.4-1.5c0.2-0.2,0.5-0.3,0.7-0.1
		C130.9,146.5,130.9,146.8,130.7,147.1z M155.1,150.5c-4.5,3.3-10.6,5.4-16.1,5.4c-0.3,0-0.5-0.2-0.5-0.5c0-0.3,0.2-0.5,0.5-0.5
		c5.2,0,11.2-2,15.5-5.2c0.2-0.2,0.6-0.1,0.7,0.1C155.4,150,155.4,150.3,155.1,150.5z M158.8,147.1c-0.4,0.6-1,1.1-1.5,1.6
		c-0.1,0.1-0.2,0.1-0.3,0.1c-0.1,0-0.3-0.1-0.4-0.2c-0.2-0.2-0.2-0.5,0-0.7c0.5-0.5,1-1,1.4-1.5c0.2-0.2,0.5-0.3,0.7-0.1
		C159,146.5,159,146.8,158.8,147.1z M183.2,150.5c-4.5,3.3-10.6,5.4-16.1,5.4c-0.3,0-0.5-0.2-0.5-0.5c0-0.3,0.2-0.5,0.5-0.5
		c5.2,0,11.2-2,15.5-5.2c0.2-0.2,0.6-0.1,0.7,0.1C183.5,150,183.4,150.3,183.2,150.5z M186.9,147.1c-0.4,0.6-1,1.1-1.5,1.6
		c-0.1,0.1-0.2,0.1-0.3,0.1c-0.1,0-0.3-0.1-0.4-0.2c-0.2-0.2-0.2-0.5,0-0.7c0.5-0.5,1-1,1.4-1.5c0.2-0.2,0.5-0.3,0.7-0.1
		C187,146.5,187,146.8,186.9,147.1z M211.3,150.5c-4.5,3.3-10.6,5.4-16.1,5.4c-0.3,0-0.5-0.2-0.5-0.5c0-0.3,0.2-0.5,0.5-0.5
		c5.2,0,11.2-2,15.5-5.2c0.2-0.2,0.6-0.1,0.7,0.1C211.5,150,211.5,150.3,211.3,150.5z M214.9,147.1c-0.4,0.6-1,1.1-1.5,1.6
		c-0.1,0.1-0.2,0.1-0.3,0.1c-0.1,0-0.3-0.1-0.4-0.2c-0.2-0.2-0.2-0.5,0-0.7c0.5-0.5,1-1,1.4-1.5c0.2-0.2,0.5-0.3,0.7-0.1
		C215.1,146.5,215.1,146.8,214.9,147.1z"/>
	<g>
		<polygon class="st1" points="321.1,148.7 321.1,156 315,156 		"/>
		<polygon class="st1" points="332.3,152.1 332.3,156 322.1,156 322.1,148.8 		"/>
		<polygon class="st1" points="339.9,152.2 339.9,156 333.4,156 333.4,152.2 		"/>
		<polygon class="st1" points="396.3,156 390.3,156 390.3,148.7 		"/>
		<polygon class="st1" points="389.2,148.8 389.2,156 379,156 379,152.1 		"/>
		<polygon class="st1" points="370.4,152.2 370.4,156 341,156 341,152.2 343.2,152.2 355.7,146.4 364.3,150.4 368.1,152.2 		"/>
		<rect x="371.5" y="152.2" class="st1" width="6.5" height="3.8"/>
		<rect x="384.4" y="157" class="st1" width="8" height="12.1"/>
		<rect x="393.5" y="157" class="st1" width="3.4" height="12.1"/>
		<rect x="375.8" y="157" class="st1" width="7.5" height="12.1"/>
		<rect x="352.1" y="157" class="st1" width="7.2" height="12.1"/>
		<rect x="366.3" y="157" class="st1" width="8.4" height="12.1"/>
		<rect x="360.4" y="157" class="st1" width="4.8" height="12.1"/>
		<rect x="346.1" y="157" class="st1" width="4.8" height="12.1"/>
		<rect x="328.1" y="157" class="st1" width="7.5" height="12.1"/>
		<rect x="336.6" y="157" class="st1" width="8.4" height="12.1"/>
		<rect x="319" y="157" class="st1" width="8" height="12.1"/>
		<rect x="314.5" y="157" class="st1" width="3.4" height="12.1"/>
	</g>
</g>
</svg>
