<?xml version="1.0" encoding="UTF-8"?>
<svg xmlns="http://www.w3.org/2000/svg" version="1.1" viewBox="0 0 701.14 136.15">
  <defs>
    <style>
      .cls-1 {
        fill: #cf8b2a;
      }

      .cls-2 {
        fill: #c15027;
      }

      .cls-3 {
        fill: #666;
      }
    </style>
  </defs>
  <!-- Generator: Adobe Illustrator 28.6.0, SVG Export Plug-In . SVG Version: 1.2.0 Build 709)  -->
  <g>
    <g id="Layer_2">
      <g>
        <g>
          <path class="cls-1" d="M182.83,53.49h15.29c8.82.02,13.23,4.85,13.23,14.49v10.35c0,4.51-1.81,7.71-5.44,9.58,3.62,1.87,5.44,5.06,5.44,9.58v10.38c0,9.61-4.62,14.43-13.86,14.45h-14.66V53.49ZM192.75,63.28v19.71h3.12c1.38,0,2.33-.09,2.84-.28,1.8-.72,2.7-2.19,2.7-4.39v-10.35c0-3.13-1.44-4.7-4.32-4.7h-4.35ZM192.75,92.81v19.72h4.35c2.88,0,4.32-1.56,4.32-4.67v-10.38c0-2.2-.9-3.65-2.7-4.35-.51-.21-1.46-.32-2.84-.32h-3.12Z"/>
          <path class="cls-1" d="M219.59,53.49h9.93v68.83h-9.93V53.49Z"/>
          <path class="cls-1" d="M266.63,108.95c0,9.64-4.76,14.46-14.28,14.49-9.5,0-14.24-4.83-14.24-14.49v-42.1c0-9.64,4.75-14.45,14.24-14.45s14.28,4.82,14.28,14.45v42.1ZM256.71,66.86c0-3.09-1.44-4.64-4.31-4.67h-.07c-2.85,0-4.28,1.56-4.28,4.67v42.1c0,3.11,1.44,4.67,4.31,4.67s4.35-1.55,4.35-4.67v-42.1Z"/>
          <path class="cls-1" d="M274.35,66.86c0-9.64,4.75-14.45,14.24-14.45s14.28,4.82,14.28,14.45v9.26h-9.93v-9.26c0-3.09-1.44-4.64-4.31-4.67h-.07c-2.85,0-4.28,1.56-4.28,4.67v6.24c0,3.06,3.1,6.82,9.3,11.26,6.2,4.42,9.3,9.72,9.3,15.89v8.7c0,9.66-4.75,14.49-14.24,14.49-9.52-.02-14.28-4.85-14.28-14.49v-9.26h9.93v9.26c0,3.11,1.45,4.67,4.35,4.67s4.31-1.55,4.31-4.67v-7.86c0-3.32-3.1-7.2-9.3-11.65-6.2-4.42-9.3-9.8-9.3-16.14v-6.45Z"/>
          <path class="cls-1" d="M311.29,53.49h25.75v9.79h-15.82v19.71h13.61v9.82h-13.61v19.72h15.82v9.79h-25.75V53.49Z"/>
          <path class="cls-1" d="M344.41,53.49h9.93l9.4,39.92v-39.92h9.19v68.83h-9.93l-9.05-38.66v38.66h-9.54V53.49Z"/>
          <path class="cls-1" d="M381.35,66.86c0-9.64,4.75-14.45,14.24-14.45s14.28,4.82,14.28,14.45v9.26h-9.93v-9.26c0-3.09-1.44-4.64-4.31-4.67h-.07c-2.85,0-4.28,1.56-4.28,4.67v6.24c0,3.06,3.1,6.82,9.3,11.26,6.2,4.42,9.3,9.72,9.3,15.89v8.7c0,9.66-4.75,14.49-14.24,14.49-9.52-.02-14.28-4.85-14.28-14.49v-9.26h9.93v9.26c0,3.11,1.45,4.67,4.35,4.67s4.31-1.55,4.31-4.67v-7.86c0-3.32-3.1-7.2-9.3-11.65-6.2-4.42-9.3-9.8-9.3-16.14v-6.45Z"/>
          <path class="cls-1" d="M446.11,108.95c0,9.64-4.76,14.46-14.28,14.49-9.5,0-14.24-4.83-14.24-14.49v-42.1c0-9.64,4.75-14.45,14.24-14.45s14.28,4.82,14.28,14.45v42.1ZM436.18,66.86c0-3.09-1.44-4.64-4.31-4.67h-.07c-2.85,0-4.28,1.56-4.28,4.67v42.1c0,3.11,1.44,4.67,4.31,4.67s4.35-1.55,4.35-4.67v-42.1Z"/>
          <path class="cls-1" d="M454.53,53.49h14.45c8.82.02,13.23,4.85,13.23,14.49v10.35c0,6.06-2.61,10.05-7.82,11.96l11.16,32.03h-10.88l-8.95-30.27-1.26.18v30.1h-9.93V53.49ZM464.45,63.28v19.71h2.28c1.38,0,2.33-.09,2.84-.28,1.8-.72,2.7-2.19,2.7-4.39v-10.35c0-3.13-1.44-4.7-4.32-4.7h-3.51Z"/>
          <path class="cls-1" d="M490.45,66.86c0-9.64,4.75-14.45,14.24-14.45s14.28,4.82,14.28,14.45v9.26h-9.93v-9.26c0-3.09-1.44-4.64-4.31-4.67h-.07c-2.85,0-4.28,1.56-4.28,4.67v6.24c0,3.06,3.1,6.82,9.3,11.26,6.2,4.42,9.3,9.72,9.3,15.89v8.7c0,9.66-4.75,14.49-14.24,14.49-9.52-.02-14.28-4.85-14.28-14.49v-9.26h9.93v9.26c0,3.11,1.45,4.67,4.35,4.67s4.31-1.55,4.31-4.67v-7.86c0-3.32-3.1-7.2-9.3-11.65-6.2-4.42-9.3-9.8-9.3-16.14v-6.45Z"/>
          <path class="cls-1" d="M545.21,107.55c0-6.2,3.09-11.51,9.26-15.93,6.2-4.42,9.31-8.17,9.33-11.26v-13.51c0-3.11-1.43-4.67-4.28-4.67h-.07c-2.88,0-4.32,1.56-4.32,4.67v9.23h-9.93v-9.23c0-9.66,4.75-14.49,14.24-14.49s14.28,4.83,14.28,14.49v13.75c0,6.31-3.1,11.69-9.3,16.14-6.2,4.42-9.3,8.3-9.3,11.65v4.14h18.59v9.79h-28.52v-14.77Z"/>
          <path class="cls-1" d="M611.02,108.95c0,9.64-4.76,14.45-14.28,14.45s-14.24-4.82-14.24-14.45v-42.1c0-9.66,4.75-14.49,14.24-14.49s14.28,4.83,14.28,14.49v42.1ZM601.09,66.86c0-3.11-1.44-4.67-4.32-4.67h-.07c-2.85,0-4.28,1.56-4.28,4.67v42.1c0,3.11,1.44,4.67,4.31,4.67s4.35-1.55,4.35-4.67v-42.1Z"/>
          <path class="cls-1" d="M619.79,107.55c0-6.2,3.09-11.51,9.26-15.93,6.2-4.42,9.31-8.17,9.33-11.26v-13.51c0-3.11-1.43-4.67-4.28-4.67h-.07c-2.88,0-4.32,1.56-4.32,4.67v9.23h-9.93v-9.23c0-9.66,4.75-14.49,14.24-14.49s14.28,4.83,14.28,14.49v13.75c0,6.31-3.1,11.69-9.3,16.14-6.2,4.42-9.3,8.3-9.3,11.65v4.14h18.59v9.79h-28.52v-14.77Z"/>
          <path class="cls-1" d="M676.03,89.41c0-2.43-.51-3.87-1.54-4.32-.56-.26-1.46-.39-2.7-.39-.3,0-.62.01-.95.04-2.01.09-3.13.99-3.37,2.7l-.11,2.77h-9.93l1.47-36.73h27.05v9.79h-17.5l-.7,14.8c1.68-1.94,3.98-2.91,6.88-2.91.4,0,.81.02,1.23.07,3.46.3,6.09,1.7,7.89,4.17,1.47,2.01,2.21,5.34,2.21,10v19.54c0,9.64-4.76,14.45-14.28,14.45s-14.24-4.82-14.24-14.45v-8.14h9.93v8.14c0,3.11,1.43,4.67,4.28,4.67h.07c2.88-.02,4.32-1.58,4.32-4.67v-19.54Z"/>
        </g>
        <g>
          <path class="cls-3" d="M193.76,41.13c-4.52-.05-5.61,0-9.61.14l-.24-.24c.09-6.79.14-13.57.14-20.36,0-5.84-.09-9.19-.24-12.53l.28-.28c4.19.05,5.18.05,9.57-.14l.28.28c-.09,2.54-.24,6.5-.24,13.57,0,6.46.05,12.86.28,19.32l-.24.24Z"/>
          <path class="cls-3" d="M217.46,27.32c-1.98-.05-5.89-.05-8.34-.05v6.79c2.31,0,7.26-.05,10.08-.28l.28.28c-.24,3.02-.28,3.91-.38,6.79l-.28.28h-10.46c-4.85,0-5.56,0-8.53.14l-.24-.28c.09-3.53.19-7.45.19-14.98,0-5.94,0-12.25-.33-17.86l.28-.28c2.07,0,2.64,0,7.87-.05,7.73-.05,8.62-.05,10.98-.09l.24.28c-.24,3.02-.24,3.91-.33,6.31l-.28.28c-.75,0-4.52-.05-5.37-.05-.52,0-.8,0-3.72.05-.05,2.87-.05,3.53,0,6.17,2.69,0,6.6-.09,8.67-.19l.28.28c-.19,2.59-.19,3.58-.33,6.17l-.28.28Z"/>
          <path class="cls-3" d="M242.01,27.32c-1.98-.05-5.89-.05-8.34-.05v6.79c2.31,0,7.26-.05,10.08-.28l.28.28c-.24,3.02-.28,3.91-.38,6.79l-.28.28h-10.46c-4.85,0-5.56,0-8.53.14l-.24-.28c.09-3.53.19-7.45.19-14.98,0-5.94,0-12.25-.33-17.86l.28-.28c2.07,0,2.64,0,7.87-.05,7.73-.05,8.62-.05,10.98-.09l.24.28c-.24,3.02-.24,3.91-.33,6.31l-.28.28c-.75,0-4.52-.05-5.37-.05-.52,0-.8,0-3.72.05-.05,2.87-.05,3.53,0,6.17,2.69,0,6.6-.09,8.67-.19l.28.28c-.19,2.59-.19,3.58-.33,6.17l-.28.28Z"/>
          <path class="cls-3" d="M266.55,27.32c-1.98-.05-5.89-.05-8.34-.05v6.79c2.31,0,7.26-.05,10.08-.28l.28.28c-.24,3.02-.28,3.91-.38,6.79l-.28.28h-10.46c-4.85,0-5.56,0-8.53.14l-.24-.28c.09-3.53.19-7.45.19-14.98,0-5.94,0-12.25-.33-17.86l.28-.28c2.07,0,2.64,0,7.87-.05,7.73-.05,8.62-.05,10.98-.09l.24.28c-.24,3.02-.24,3.91-.33,6.31l-.28.28c-.75,0-4.52-.05-5.37-.05-.52,0-.8,0-3.72.05-.05,2.87-.05,3.53,0,6.17,2.69,0,6.6-.09,8.67-.19l.28.28c-.19,2.59-.19,3.58-.33,6.17l-.28.28Z"/>
        </g>
      </g>
      <g>
        <g>
          <path class="cls-1" d="M16.51,89.28h32.34l4.52-2.4c.22-.12.47-.18.72-.18h19.43c.25,0,.5.06.72.18l4.52,2.4h8.93l4.51-2.55c.23-.13.5-.19.77-.2l19.43.17c.25,0,.49.06.71.18l4.48,2.39h37.72c1.29-2.36,2.47-4.79,3.51-7.29H13c1.05,2.5,2.22,4.93,3.51,7.29Z"/>
          <path class="cls-1" d="M82.76,97.06h4.97l4.53-2.22c.21-.1.44-.16.67-.16h19.43c.24,0,.47.06.67.16l4.54,2.22h32.82c1.11-1.55,2.16-3.15,3.15-4.77h-36.37c-.25,0-.5-.07-.72-.19l-4.48-2.39-18.64-.16-4.5,2.54c-.23.13-.49.2-.75.2h-9.72c-.25,0-.49-.07-.71-.18l-4.52-2.39h-18.66l-4.53,2.39c-.22.11-.47.18-.71.18h-30.98c.99,1.62,2.04,3.22,3.15,4.77h27.45l4.53-2.39c.22-.11.47-.18.71-.18h10.87c.84,0,1.52.67,1.52,1.5s-.68,1.5-1.52,1.5h-10.49l-4.53,2.39c-.22.12-.47.18-.71.18h-25.58c1.3,1.65,2.67,3.24,4.08,4.78h21.11l4.53-2.4c.22-.11.47-.17.71-.17h19.49c.84,0,1.52.67,1.52,1.5s-.68,1.5-1.52,1.5h-19.1l-4.53,2.39c-.22.11-.47.18-.71.18h-18.56c14.23,13.81,33.73,22.32,55.23,22.32s41-8.51,55.23-22.32h-23.94c-.25,0-.5-.07-.72-.18l-4.48-2.39h-14.53c-.84,0-1.52-.67-1.52-1.5s.68-1.5,1.52-1.5h14.92c.25,0,.5.06.72.18l4.48,2.39h26.49c1.43-1.54,2.79-3.13,4.08-4.78h-30.92c-.23,0-.46-.05-.67-.16l-4.53-2.21h-18.72l-4.53,2.21c-.21.11-.44.16-.67.16h-5.32c-.84,0-1.52-.67-1.52-1.5s.68-1.5,1.52-1.5ZM102.45,123.39h-32.28c-.84,0-1.52-.67-1.52-1.5s.68-1.5,1.52-1.5h32.28c.84,0,1.52.67,1.52,1.5s-.68,1.5-1.52,1.5ZM117.17,112.61c.84,0,1.52.67,1.52,1.5s-.67,1.5-1.52,1.5h-61.75c-.84,0-1.52-.66-1.52-1.5s.68-1.5,1.52-1.5h61.75Z"/>
        </g>
        <g>
          <path class="cls-2" d="M86.45,6.64h-2.9l-7.42,16.69v39.88h-1.99v4.8h-1.85V30.18h-1.87v-1.28h-1.72v-3.08c-1.53-.47-2.86-.57-3.79-.57-1.6,0-2.91.3-3.8.57v3.08h-1.72v1.28h-1.87v24.58h0v9.82c0,.52-.28,1.02-.74,1.29l-6.86,4.04c-.34.2-.56.57-.56.98v8.09h20.28c.05-.06.1-.11.16-.16l11.95-9.91v-7.21c0-.83.68-1.5,1.52-1.5h10.61V23.33l-7.43-16.69ZM68.46,67.53h-7.13c-.75,0-1.35-.66-1.35-1.5s.61-1.5,1.35-1.5h7.13c.75,0,1.35.67,1.35,1.5s-.61,1.5-1.35,1.5ZM68.46,62.27h-7.13c-.75,0-1.35-.67-1.35-1.5s.61-1.5,1.35-1.5h7.13c.75,0,1.35.67,1.35,1.5s-.61,1.5-1.35,1.5ZM68.46,46.49h-7.13c-.75,0-1.35-.67-1.35-1.51s.61-1.5,1.35-1.5h7.13c.75,0,1.35.67,1.35,1.5s-.61,1.51-1.35,1.51ZM68.46,35.96h-7.13c-.75,0-1.35-.67-1.35-1.5s.61-1.5,1.35-1.5h7.13c.75,0,1.35.67,1.35,1.5s-.61,1.5-1.35,1.5ZM81.44,46.11c0,.83-.67,1.5-1.52,1.5s-1.52-.67-1.52-1.5v-22.53c0-.83.68-1.5,1.52-1.5s1.52.67,1.52,1.5v22.53ZM86.46,38.85c0,.83-.68,1.5-1.52,1.5s-1.52-.67-1.52-1.5v-22.54c0-.83.68-1.5,1.52-1.5s1.52.67,1.52,1.5v22.54ZM91.49,46.11c0,.83-.68,1.5-1.52,1.5s-1.52-.67-1.52-1.5v-22.53c0-.83.68-1.5,1.52-1.5s1.52.67,1.52,1.5v22.53Z"/>
          <path class="cls-2" d="M159.37,70.99v-4.85h-6.48v5.82h-1.55v-17.62h-8.18v17.62h-1.56v-34.16h-1.67v-2.49h-8.5v2.49h-1.67v34.16h-5.5v-7.72l-13.15,9.47c-.71.51-1.53.8-2.4.82-1.75.07-4.58.09-4.75.09h-9.94v4.37h65.95c.28-.75.56-1.51.81-2.28.23-.68.44-1.37.66-2.07.08-.25.16-.5.23-.75.07-.23.14-.47.2-.7.13-.48.26-.97.39-1.45,0-.04.02-.09.03-.13v-.61h-2.93ZM138.19,69.03h-4.97c-.66,0-1.2-.53-1.2-1.19s.54-1.18,1.2-1.18h4.97c.66,0,1.2.52,1.2,1.18s-.54,1.19-1.2,1.19ZM138.19,63.76h-4.97c-.66,0-1.2-.53-1.2-1.18s.54-1.19,1.2-1.19h4.97c.66,0,1.2.53,1.2,1.19s-.54,1.18-1.2,1.18ZM138.19,58.5h-4.97c-.66,0-1.2-.52-1.2-1.18s.54-1.19,1.2-1.19h4.97c.66,0,1.2.53,1.2,1.19s-.54,1.18-1.2,1.18ZM138.19,53.23h-4.97c-.66,0-1.2-.52-1.2-1.18s.54-1.18,1.2-1.18h4.97c.66,0,1.2.52,1.2,1.18s-.54,1.18-1.2,1.18ZM138.19,47.98h-4.97c-.66,0-1.2-.53-1.2-1.19s.54-1.18,1.2-1.18h4.97c.66,0,1.2.53,1.2,1.18s-.54,1.19-1.2,1.19ZM138.19,42.71h-4.97c-.66,0-1.2-.53-1.2-1.18s.54-1.19,1.2-1.19h4.97c.66,0,1.2.53,1.2,1.19s-.54,1.18-1.2,1.18Z"/>
          <path class="cls-2" d="M54.47,54.76v-26.38h-1.15v.52h-.49l-5.68-12.42h-.6l-5.69,12.42h-.49v-.52h-1.15v43.57h-2.36v-36.7h-1.62v-1.91h-1.23v-1.42h-3.59l-.08-7.35h.52v-1.18h-.54l-.08-7.8h-.83l-.09,7.8h-.54v1.18h.53l-.08,7.35h-.34v1.42h-1.23v1.91h-1.62v27.55h-3.63v-16.51h-1.32v-2.22h-7.27v2.22h-1.32v24.7h-3v.61s.02.09.04.13c.12.48.25.97.39,1.45.07.23.13.47.2.7.07.25.15.5.22.75.21.7.43,1.39.66,2.07.25.77.52,1.53.8,2.28h34.51v-9.04c0-.87.46-1.68,1.21-2.12l6.94-4.08v-8.97h0ZM30.39,68.04c0,.83-.68,1.5-1.52,1.5s-1.52-.67-1.52-1.5v-22.54c0-.83.68-1.5,1.52-1.5s1.52.67,1.52,1.5v22.54ZM35.42,74.79c0,.83-.68,1.5-1.52,1.5s-1.52-.67-1.52-1.5v-22.36c0-.83.68-1.5,1.52-1.5s1.52.67,1.52,1.5v22.36ZM35.42,47.31c0,.83-.68,1.5-1.52,1.5s-1.52-.67-1.52-1.5v-9.06c0-.83.68-1.5,1.52-1.5s1.52.67,1.52,1.5v9.06ZM50.93,62.27h-7.98c-.84,0-1.52-.67-1.52-1.5s.67-1.5,1.52-1.5h7.98c.84,0,1.52.67,1.52,1.5s-.68,1.5-1.52,1.5ZM50.93,51.74h-7.98c-.84,0-1.52-.67-1.52-1.5s.67-1.5,1.52-1.5h7.98c.84,0,1.52.67,1.52,1.5s-.68,1.5-1.52,1.5ZM50.93,41.22h-7.98c-.84,0-1.52-.67-1.52-1.5s.67-1.5,1.52-1.5h7.98c.84,0,1.52.67,1.52,1.5s-.68,1.5-1.52,1.5ZM50.93,35.96h-7.98c-.84,0-1.52-.67-1.52-1.5s.67-1.5,1.52-1.5h7.98c.84,0,1.52.67,1.52,1.5s-.68,1.5-1.52,1.5Z"/>
          <path class="cls-2" d="M120.28,29.69v-1.94h-2.26v-1.94h-.52v-4.21h-10.32v4.21h-2.16v1.94h-1.78v1.94h-1.82v7.64h-2.77v25.87h-13.45c-.23,0-.43.2-.43.43v5.98c0,.44-.2.87-.54,1.16l-9.91,8.22h16.65v-5.87c0-.83.68-1.5,1.52-1.5h16.48l15.28-11.05v-30.87h-3.98ZM107.23,65.18c0,.83-.67,1.5-1.52,1.5s-1.52-.67-1.52-1.5v-8.32c0-.83.68-1.5,1.52-1.5s1.52.67,1.52,1.5v8.32ZM107.23,50.8c0,.83-.67,1.5-1.52,1.5s-1.52-.67-1.52-1.5v-16.65c0-.83.68-1.5,1.52-1.5s1.52.67,1.52,1.5v16.65ZM113.65,61.55c0,.83-.68,1.5-1.52,1.5s-1.52-.67-1.52-1.5v-12.92c0-.84.68-1.51,1.52-1.51s1.52.67,1.52,1.51v12.92ZM113.65,41.53c0,.83-.68,1.5-1.52,1.5s-1.52-.67-1.52-1.5v-14.76c0-.83.68-1.5,1.52-1.5s1.52.67,1.52,1.5v14.76ZM120.07,56.69c0,.83-.68,1.5-1.52,1.5s-1.53-.67-1.53-1.5v-22.53c0-.83.68-1.5,1.53-1.5s1.52.67,1.52,1.5v22.53Z"/>
        </g>
      </g>
    </g>
  </g>
</svg>