<?xml version="1.0" encoding="UTF-8"?>
<svg xmlns="http://www.w3.org/2000/svg" version="1.1" xmlns:xlink="http://www.w3.org/1999/xlink" viewBox="0 0 852.16 197.04">
  <defs>
    <style>
      .cls-1 {
        fill: #414142;
      }

      .cls-2 {
        fill: url(#radial-gradient);
      }

      .cls-3 {
        fill: url(#linear-gradient);
      }
    </style>
    <radialGradient id="radial-gradient" cx="182.71" cy="31.1" fx="182.71" fy="31.1" r="203.52" gradientUnits="userSpaceOnUse">
      <stop offset="0" stop-color="#a5cd39"/>
      <stop offset=".1" stop-color="#9cca39"/>
      <stop offset=".27" stop-color="#85c23b"/>
      <stop offset=".47" stop-color="#60b43e"/>
      <stop offset=".71" stop-color="#2da243"/>
      <stop offset=".88" stop-color="#039447"/>
    </radialGradient>
    <linearGradient id="linear-gradient" x1="360.42" y1="82.27" x2="360.42" y2="156.56" gradientUnits="userSpaceOnUse">
      <stop offset="0" stop-color="#12ade4"/>
      <stop offset="1" stop-color="#263e8c"/>
    </linearGradient>
  </defs>
  <!-- Generator: Adobe Illustrator 28.7.1, SVG Export Plug-In . SVG Version: 1.2.0 Build 142)  -->
  <g>
    <g id="Layer_1">
      <path class="cls-2" d="M45.24,79.63c0,.91.01,1.82.03,2.71.18,7.84,6.64,14.09,14.49,14.09h36.91c1.58-3.43,5.18-5.74,9.27-5.39,4.58.39,8.26,4.23,8.47,8.82.25,5.34-4.01,9.75-9.29,9.75-3.94,0-7.31-2.46-8.67-5.92H19.9c-1.4-3.37-4.72-5.74-8.6-5.74-5.14,0-9.3,4.17-9.3,9.3s4.17,9.3,9.3,9.3c3.82,0,7.1-2.31,8.54-5.6h29.93c.23.74.46,1.47.71,2.2,1.91,5.7,7.21,9.58,13.23,9.58h58.48c1.58-3.73,5.53-6.21,9.96-5.57,4.12.6,7.4,4,7.86,8.14.62,5.61-3.76,10.37-9.24,10.37-3.85,0-7.15-2.34-8.57-5.67H45.43c-1.41-3.33-4.72-5.67-8.57-5.67-5.14,0-9.3,4.17-9.3,9.3s4.17,9.3,9.3,9.3c3.85,0,7.15-2.34,8.57-5.67h17.36c.44.61.88,1.22,1.33,1.81,4.73,6.25,12.13,9.9,19.97,9.9h64.42c1.58-3.73,5.53-6.21,9.96-5.57,4.12.6,7.4,4,7.86,8.14.62,5.61-3.76,10.37-9.24,10.37-3.85,0-7.15-2.34-8.57-5.67h-76.75c-1.41-3.33-4.72-5.67-8.57-5.67-5.14,0-9.3,4.17-9.3,9.3s4.17,9.3,9.3,9.3c3.85,0,7.15-2.34,8.57-5.67h19.84c20.24,12.21,45.65,18.57,73.25,18.57h5.96l16.74-83.73s1.9-16.37,15.69-18.71H45.24Z"/>
      <g>
        <path class="cls-1" d="M151.73,71.86c-6.8-.1-8.42,0-15.79.29l-.57-.57c.19-12.54.29-24.98.29-37.52,0-9.19,0-14.45-.48-29.19l.48-.57c6.6.1,8.61.1,15.89-.29l.57.57c-.29,8.52-.38,16.94-.38,25.36,0,13.88.1,27.66.57,41.35l-.57.57Z"/>
        <path class="cls-1" d="M179.39,42.48v17.42h3.92c10.43-.19,12.83-.19,17.04-.48l.57.57c-.38,4.98-.48,6.13-.67,11.29l-.57.57h-15.31c-11.96,0-14.55,0-20.58.29l-.48-.57c.19-7.56.29-12.92.29-25.27,0-13.69-.1-31.39-.67-41.54l.48-.57c11.96.1,24.69.1,35.89-.19l.48.48c-.38,4.59-.38,5.84-.57,10.62l-.57.57h-1.72c-2.87,0-5.84-.1-8.71-.1h-9.09c0,6.8,0,8.52.1,15.89h4.12c4.98,0,7.94-.1,14.45-.29l.57.57c-.38,4.88-.38,5.55-.57,10.24l-.57.57c-4.59-.1-9.19-.1-13.78-.1h-4.02Z"/>
        <path class="cls-1" d="M225.24,42.48v17.42h3.92c10.43-.19,12.83-.19,17.04-.48l.57.57c-.38,4.98-.48,6.13-.67,11.29l-.57.57h-15.31c-11.96,0-14.55,0-20.58.29l-.48-.57c.19-7.56.29-12.92.29-25.27,0-13.69-.1-31.39-.67-41.54l.48-.57c11.96.1,24.69.1,35.89-.19l.48.48c-.38,4.59-.38,5.84-.57,10.62l-.57.57h-1.72c-2.87,0-5.84-.1-8.71-.1h-9.09c0,6.8,0,8.52.1,15.89h4.12c4.98,0,7.94-.1,14.45-.29l.57.57c-.38,4.88-.38,5.55-.57,10.24l-.57.57c-4.59-.1-9.19-.1-13.78-.1h-4.02Z"/>
        <path class="cls-1" d="M271.09,42.48v17.42h3.92c10.43-.19,12.83-.19,17.04-.48l.57.57c-.38,4.98-.48,6.13-.67,11.29l-.57.57h-15.31c-11.96,0-14.55,0-20.58.29l-.48-.57c.19-7.56.29-12.92.29-25.27,0-13.69-.1-31.39-.67-41.54l.48-.57c11.96.1,24.69.1,35.89-.19l.48.48c-.38,4.59-.38,5.84-.57,10.62l-.57.57h-1.72c-2.87,0-5.84-.1-8.71-.1h-9.09c0,6.8,0,8.52.1,15.89h4.12c4.98,0,7.94-.1,14.45-.29l.57.57c-.38,4.88-.38,5.55-.57,10.24l-.57.57c-4.59-.1-9.19-.1-13.78-.1h-4.02Z"/>
      </g>
      <path class="cls-3" d="M219.58,79.61h37.47l-3.88,21.95h-34.2l-3.46,19.38h32.26l-3.88,21.8h-32.13l-6.65,38.91h-23.68l14.23-81.93c2.02-11.62,12.1-20.11,23.9-20.11ZM267.03,79.61h23.54l-13.71,79.48h35.17l-3.88,22.56h-45.48c-6.98,0-12.28-6.3-11.08-13.18l15.44-88.86ZM382.37,140.47h-32.82l-3.46,19.23h36.97l-3.88,21.95h-44.49c-8.36,0-14.71-7.54-13.28-15.78l12.18-70.1c1.62-9.34,9.73-16.16,19.21-16.16h42.17l-3.88,21.95h-34.89l-3.05,17.11h33.09l-3.88,21.8ZM405.69,94.07c1.36-7.89,7.83-13.96,15.81-14.67,3.98-.36,8.22-.55,12.39-.55,8.17,0,18.14,1.06,25.62,6.21,7.06,4.69,11.49,12.57,11.49,23.16,0,13.47-5.4,23.31-13.29,29.67-7.75,6.36-18.69,9.39-30.46,9.39-3.18,0-5.82-.45-7.48-.61l-6.23,34.97h-22.99l15.15-87.57ZM423.22,125.78c1.66.3,3.6.76,7.06.76,10.39,0,17.03-7.57,17.03-15.9,0-8.78-5.82-11.35-12.32-11.35-3.32,0-5.82.15-7.2.45l-4.57,26.04ZM473.35,154.7c5.68,3.48,13.99,6.36,22.99,6.36,6.51.15,12.46-2.57,12.46-8.63,0-5.15-4.15-7.87-12.19-12.57-9-5.15-19.66-13.17-19.66-27.25,0-21.65,17.31-34.52,39.05-34.52,12.32,0,18.97,2.57,23.4,4.84l-7.34,21.65c-3.05-1.67-10.11-4.54-17.86-4.24-8.31,0-12.32,3.63-12.32,8.02,0,4.84,6.09,8.02,13.29,12.41,11.35,6.36,18.83,14.84,18.83,26.95,0,24.83-19.25,35.58-39.88,35.58-14.54-.3-23.96-3.94-28.53-7.42l7.75-21.19Z"/>
      <g>
        <path class="cls-1" d="M554.9,174.2l26.6-23.11c12.3-10.7,35.03-29.24,35.03-45.51,0-9.7-7.44-15.69-17.44-15.69s-19.02,3.71-25.17,8.56l.86-10.41c6.43-3.71,15.59-6.7,24.31-6.7,17.16,0,27.31,9.13,27.31,23.4,0,15.69-13.16,28.67-23.45,38.8l-34.32,29.81h46.9l-2,8.56h-60.77l2.14-7.7Z"/>
        <path class="cls-1" d="M676.16,81.33c19.88,0,27.03,15.26,27.03,33.1,0,20.4-12.44,68.47-43.61,68.47-19.88,0-27.03-15.26-27.03-33.1,0-20.4,12.44-68.47,43.61-68.47ZM658.85,174.35c24.02,0,34.46-45.22,34.46-59.77,0-10.7-2.72-24.68-17.3-24.68-23.16,0-33.6,45.22-33.6,59.77,0,10.7,2.72,24.68,16.44,24.68Z"/>
        <path class="cls-1" d="M699.61,174.2l26.6-23.11c12.3-10.7,35.03-29.24,35.03-45.51,0-9.7-7.44-15.69-17.44-15.69s-19.02,3.71-25.17,8.56l.86-10.41c6.43-3.71,15.59-6.7,24.31-6.7,17.16,0,27.31,9.13,27.31,23.4,0,15.69-13.16,28.67-23.45,38.8l-34.32,29.81h46.9l-2,8.56h-60.77l2.14-7.7Z"/>
        <path class="cls-1" d="M797.7,82.33h52.48l-1.72,8.56h-43.61l-7.29,31.53c4.15-1,8.44-1.71,12.73-1.71,17.02,0,29.03,9.56,29.03,25.96,0,22.97-19.59,36.23-39.61,36.23-10.01,0-17.44-1.43-24.59-4.14l1.86-9.42c5.15,2.57,12.3,4.99,20.45,4.99,18.45,0,32.03-10.84,32.03-27.1,0-11.84-10.44-17.97-23.02-17.97-6.86,0-13.58,1.28-20.3,3.42l11.58-50.36Z"/>
      </g>
    </g>
  </g>
</svg>