<svg height="316.227766" viewBox="0 0 168.654 168.654" width="316.227766" xmlns="http://www.w3.org/2000/svg" xmlns:xlink="http://www.w3.org/1999/xlink"><linearGradient id="a" gradientTransform="matrix(.99999917 -.00129154 .00129154 .99999917 2.101001 -.008)" gradientUnits="userSpaceOnUse" x1="92.859" x2="54.238" y1="85.203" y2="63.357"><stop offset="0" stop-color="#fff"/><stop offset=".2" stop-color="#e8ec8f"/><stop offset=".76" stop-color="#abcd03"/><stop offset="1" stop-color="#8fc31f"/></linearGradient><linearGradient id="b" gradientTransform="matrix(.99999917 -.00129154 .00129154 .99999917 2.101001 -.008)" gradientUnits="userSpaceOnUse" x1="89.642" x2="53.628" y1="70.833" y2="46.746"><stop offset="0" stop-color="#e6eb91"/><stop offset=".018" stop-color="#e2e989"/><stop offset=".089" stop-color="#d3e16e"/><stop offset=".152" stop-color="#cadd5e"/><stop offset=".2" stop-color="#c7db58"/><stop offset=".4" stop-color="#a3c910"/><stop offset=".746" stop-color="#7dbb23"/><stop offset="1" stop-color="#66b22f"/></linearGradient><linearGradient id="c" x1="94.549" x2="58.539" xlink:href="#b" y1="63.495" y2="39.411"/><linearGradient id="d" x1="76.766" x2="40.754" xlink:href="#b" y1="90.077" y2="65.991"/><linearGradient id="e" x1="72.33" x2="36.32" xlink:href="#b" y1="96.711" y2="72.626"/><g fill="none"><path d="m168.654 84.219a84.327 84.327 0 1 1 -84.438-84.219 84.327 84.327 0 0 1 84.438 84.219z"/><path d="m149.978 84.242a65.65 65.65 0 1 1 -65.734-65.563 65.651 65.651 0 0 1 65.734 65.563z"/><path d="m137.947 83.393a53.3 53.3 0 1 1 -53.365-53.227 53.3 53.3 0 0 1 53.365 53.227z"/></g><path d="m138.23 133.042-1.527 1.606c.183.171 3.257 3.1 3.257 3.1l-1.736 1.821-3.258-3.1a330.77 330.77 0 0 0 -1.632 1.717l3.253 3.1s-2.132 2.241-2.306 2.422c.164.158 1.355 1.29 1.519 1.447.184-.192 11.094-11.645 11.28-11.837-.168-.157-1.362-1.29-1.522-1.448l-3.961 4.157s-3.076-2.931-3.258-3.1c-.05.056-.109.115-.109.115z" fill="#9d9d9e"/><path d="m142.841 131.309c-.187-.181-6.521-6.215-6.709-6.4l-.109.114s-9.475 9.945-9.658 10.141l1.515 1.444c.186-.193 8.137-8.541 8.137-8.541s5.006 4.77 5.2 4.95zm-115.99 4.984a4.37 4.37 0 0 0 .125 6.158 4.374 4.374 0 0 0 6.141.537 4.611 4.611 0 0 0 -6.266-6.695zm1.52 1.586a2.434 2.434 0 0 1 3.312 3.536 2.433 2.433 0 0 1 -3.312-3.536zm13.656-3.346s-1.3-1.386-1.459-1.552c-.172.159-1.893 1.772-1.893 1.772l-1.843-1.973c-.165.152-1.313 1.227-1.471 1.379l1.842 1.969-2.491 2.331c.153.162 1.4 1.5 1.561 1.665.186-.171 5.674-5.309 5.857-5.481-.052-.057-.103-.11-.103-.11zm-6.969-7.515s-8.365.347-8.629.36c.016.227.139 2.064.156 2.286.25-.017 6.184-.354 6.184-.354s-.725 5.567-.76 5.817c.221.028 2.043.278 2.266.306.027-.257.928-8.127.963-8.424-.09 0-.18.009-.18.009zm68.559 35.35 2.263-.39-2.566-14.92c-.072.015-.152.028-.152.028s-1.877.325-2.108.362c.039.253.791 4.587.791 4.587l-1.336.229s-.746-4.334-.785-4.587l-2.287.4 1.633 9.473c-1.811.31-7.176 1.234-7.176 1.234l-1.256-7.289 5.3-.913-.322-1.888-.033.006-7.524 1.294c.465 2.687 1.895 10.97 1.93 11.183l9.422-1.617.593 3.44 2.286-.389-1.436-8.338 1.332-.229zm-46.117-11.487-.7-.371 2.809-5.279c-.067-.036-.137-.069-.137-.069s-11.828-6.3-12.059-6.419l-.966 1.815c.228.12 10.146 5.4 10.146 5.4s-1.127 2.115-1.84 3.464l-11.064-5.889-.963 1.809 4.348 2.312s-1.159 2.171-1.268 2.384l2.072 1.106c.112-.214 1.272-2.385 1.272-2.385l1.846.983s-1.155 2.17-1.27 2.381l2.076 1.108c.11-.213 1.268-2.383 1.268-2.383s3.383 1.8 3.6 1.917l.963-1.813zm-12.47-2.714-2.045-1.087-2.533 4.756 12.448 6.626.971-1.813c-.235-.121-10.4-5.536-10.4-5.536s1.445-2.725 1.56-2.946zm22.298 9.191-.149-.023s-1.908-.3-2.14-.333l-.838 5.325 14.033 2.2.316-2.029-11.738-1.841s.477-3.057.516-3.299zm12.724-5.158s.375-2.378.41-2.616c-.066-.007-.144-.019-.144-.019s-1.9-.3-2.139-.336l-.97 6.182-2.317-.363.924-5.911-.147-.023s-9.334-1.464-9.587-1.5l-.323 2.034 7.448 1.167s-.416 2.666-.61 3.877c-1.3-.2-2.3-.361-2.3-.361s.309-1.932.344-2.164c-.07-.008-.146-.02-.146-.02s-1.946-.307-2.178-.341l-.336 2.16-3.539-.554-.318 2.032 12.773 2-.373 2.371 2.283.359c.041-.251.934-5.958.934-5.958s2.109.332 2.348.371l.312-2.017zm41.399-14.1s-1.664.921-1.869 1.036c.128.217 4.2 7.566 4.326 7.787.195-.107 1.8-1 2-1.106-.117-.219-2.084-3.762-2.084-3.762l2.027-1.126c-.1-.191-.865-1.567-.974-1.756l-2.03 1.124-1.261-2.274zm4.812 8.722-12.463 6.914c.108.2.879 1.587.989 1.778.224-.126 10.6-5.876 10.6-5.876s1.391 2.5 1.506 2.719c.2-.112 1.8-1 2-1.113a1418.27 1418.27 0 0 0 -2.5-4.494c-.067.035-.132.072-.132.072zm-8.617-6.298-3.713 2.06h-.012l-.677-1.222-2.032 1.123.682 1.228-3.775 2.093.945 1.7 1.361-.754a4.191 4.191 0 0 0 .51 2.368 4.655 4.655 0 0 0 8.129-4.509 4.233 4.233 0 0 0 -1.74-1.685l1.263-.706zm-1.547 8.2a2.112 2.112 0 1 1 .918-2.92 2.171 2.171 0 0 1 -.917 2.923zm46.768-58.307-1.75-1.1a3.236 3.236 0 0 0 1.9-2.685 2.1 2.1 0 0 0 -2-2.465c-1.623.013-2.217 1.449-2.9 3.108-.744 1.784-1.885 3.656-4.155 3.792-2.746.166-4.6-2.261-4.466-5.6a6.358 6.358 0 0 1 2.38-4.807l2.065.95a4.889 4.889 0 0 0 -3.086 4.455 2.527 2.527 0 0 0 2.574 2.741c1.625-.013 2.2-1.4 2.869-3.013.748-1.806 1.594-3.854 4.18-3.875 2.529-.019 4.061 1.984 3.91 5.1a5.282 5.282 0 0 1 -1.521 3.399zm-151.821 22.773 2.049.222a3.238 3.238 0 0 0 -.531 3.247 2.1 2.1 0 0 0 2.875 1.341c1.455-.724 1.359-2.274 1.25-4.065-.113-1.93.094-4.109 2.074-5.226 2.4-1.351 5.133.017 6.467 3.082a6.358 6.358 0 0 1 -.033 5.363l-2.28.051a4.883 4.883 0 0 0 .827-5.357 2.523 2.523 0 0 0 -3.514-1.336c-1.457.72-1.367 2.219-1.26 3.962.119 1.953.252 4.165-2.064 5.313-2.264 1.123-4.518-.007-5.742-2.873a5.265 5.265 0 0 1 -.118-3.724zm-2.222-51.375-.149.142a9.907 9.907 0 0 0 -2.406 4.943c-.99 4.762 1.227 8.3 5.6 9.2 4.472.929 7.724-1.292 8.691-5.951a16.648 16.648 0 0 0 .207-5.571l-.023-.178-5.436-1.13-.461 2.215 4.586.943a6.83 6.83 0 0 1 0 2.918c-.748 3.6-3.293 5.139-7.166 4.333-3.625-.753-5.473-3.137-4.785-6.446a6.276 6.276 0 0 1 2.793-4.066l.1-.061zm13.728-28.34-1.271 1.812 3.219 6.719-7.427-.734-1.617 2.3 9.671.554c.116.08 4.84 3.393 4.84 3.393l1.3-1.849s-4.885-3.421-4.986-3.489zm132.272 88.69.886-2.024-4.47-5.962 7.429-.729 1.137-2.576-9.594 1.346-5.408-2.386-.914 2.069 5.574 2.448zm-136.724-68.929-3-8.752-1.015 2.061 2.828 8.23-5.531-2.724-1 2.028 12.7 6.239 1-2.034-6.155-3.016 8.69-2.134 1.264-2.576zm42.353-38.068 4.183-8.256-2.191.711-3.924 7.762c-.137-.406-1.9-5.867-1.9-5.867l-2.157.7 4.381 13.456 2.154-.7-2.125-6.52 7.59 4.746 2.729-.889zm11.802 4.466 1.694-.17 2.662-11.181 4.566 10.459 1.942-.19 3.287-14.552-1.946.192-2.662 11.509-4.707-10.773-1.289.127-2.633 11.488-4.447-10.775-2.379.231zm21.973-14.586-1-.12-7.748 13.5 1.93.241 2.855-5.069 4.336.522 1.5 5.6 2.637.318zm-1.119 3.1c.244.829.975 4.026 1.141 4.59l-3.45-.416zm44.873 38.476 11.71-7.928 1.261 1.863-11.71 7.929zm10.82 49.192.356-2.22 13.96 2.234-.356 2.22zm-20.261-68.274c-1.971 2.88-4.053 3.35-6.27 1.833-2.5-1.713-2.586-3.437-.5-6.488l4.461-6.516-1.854-1.264-4.568 6.681c-.965 1.446-1.863 3.1-1.457 4.788a6.659 6.659 0 0 0 2.986 3.863c3.135 2.145 6.065 1.613 8.25-1.583l4.754-6.943-1.33-.913zm-91.401 2.444c2.447 2.492 2.506 4.623.588 6.506-2.164 2.123-3.869 1.874-6.457-.765l-5.533-5.633-1.6 1.573 5.672 5.77c1.236 1.227 2.678 2.429 4.418 2.357a6.663 6.663 0 0 0 4.372-2.181c2.709-2.662 2.752-5.64.041-8.4l-5.9-6-1.149 1.128zm-23.68 66.742c3.4-.81 5.256.237 5.877 2.853.705 2.95-.388 4.28-3.984 5.139l-7.682 1.833.524 2.184 7.869-1.884c1.689-.425 3.463-1.041 4.3-2.572a6.657 6.657 0 0 0 .455-4.879c-.883-3.694-3.479-5.251-7.244-4.353l-8.191 1.951.373 1.57zm128.977-42.937.586 1.138 15.299-1.196-.94-1.82-12.045 1.185 7.959-9.112-1.156-2.242zm5.457 8.668c.42-.135 4.52-1.435 4.932-1.566l1.486 4.676 1.367-.436-1.48-4.675 4.455-1.412 1.613 5.1 1.16-.365-2.291-7.234-13.484 4.274 2.328 7.354 1.568-.5z" fill="#9d9d9e"/><path d="m162.574 100.636-1.135-.32-1.186 4.229-12.482-3.5-.607 2.16 12.476 3.5-1.125 4.051 1.143.312zm-13.974-30.254.281 2.23 6.819-.906-6.02 6.926.32 2.383 6.017-6.889c.4 2.3 2.266 4.123 4.3 3.854 2.32-.31 3.308-1.908 2.9-5.027l-.588-4.429zm8.43 1.147c.408-.053 4.267-.566 4.681-.62l.289 2.126c.23 1.764-.7 2.645-1.971 2.764-1.326.125-2.416-.43-2.74-2.418zm-110.036-57.894-1.366.868 5.4 8.5c-4.973-1.285-13.637-3.257-13.637-3.257l-.971.612 7.58 11.932 1.367-.867s-3.153-4.967-5.68-8.943l14.082 3.607.82-.516zm-42.526 65.912.032 1.619 10.065-.214c-3.673 3.588-9.853 9.978-9.853 9.978l.022 1.144 14.142-.3-.035-1.619s-5.881.126-10.593.225l10.38-10.172-.019-.971zm111.059-68.838-1.535-.517-3.207 9.54c-2.131-4.672-6.051-12.649-6.051-12.649l-1.086-.368-4.506 13.406 1.533.515 3.377-10.043 6.055 13.213.92.31zm31.353 23.842-1.1-1.183-7.371 6.855c.355-5.124.719-14.006.719-14.006l-.78-.841-10.358 9.633 1.1 1.184s4.311-4.006 7.76-7.216l-.982 14.5.66.709z" fill="#9d9d9e"/><path d="m89.406 66.648a20.863 20.863 0 0 1 28.722-19.415 47.043 47.043 0 0 0 -67.918 64.82 76.289 76.289 0 0 1 16.217-16.066c5.254-3.7 12.553-7.415 18.418-7.976 5.555-.53 13.826 0 18.838 2.4a141.529 141.529 0 0 1 -10.083-11.211 20.844 20.844 0 0 1 -4.194-12.552z" fill="url(#a)"/><path d="m87.943 81.946-22.109-42.455a46.911 46.911 0 0 0 -11.4 7.766l33.366 34.635z" fill="url(#b)"/><path d="m88.06 81.99 2.854-46.93a47.32 47.32 0 0 0 -11.455.268l8.556 46.646z" fill="url(#c)"/><path d="m87.8 81.892-45.463-16.822a47.11 47.11 0 0 0 -2.89 12.485l48.467 4.459z" fill="url(#d)"/><path d="m39.75 88.691a47.055 47.055 0 0 0 2.476 9.65l45.557-16.207z" fill="url(#e)"/><path d="m49.347 123.554a45.426 45.426 0 0 1 -5.812-6.1c-9.621-10.764-20.627-39.017-2.4-64.679a53.253 53.253 0 0 1 82.182-6.035 2.109 2.109 0 0 1 .1 3.042c-1.092.919-2.076.444-4.282-.192a22.567 22.567 0 0 0 -9.564-.814c-7.355.947-13.721 7.779-12.826 17.31.818 8.7 7.537 14.977 12.252 19.12 16.57 14.551 11.052 30.179 9.707 33.613-4.561 11.657-16.276 19.889-31.479 19.908a46.674 46.674 0 0 1 -24.625-7.427c-.353-.157-.7-.631-.273-1.412a50.508 50.508 0 0 1 4.88-8.437c4.565 5.261 12.264 10.208 20.807 10.51 11.68.412 19.2-5.918 21.945-13.945 3.088-9.015-.22-18.2-8.959-26.473-7.531-7.135-14.253-13.737-14.66-25.07-.512-14.512 12.115-23.151 23.86-22.589.353.017-16.254-11.931-37.539-4.774a44.173 44.173 0 0 0 -19.636 13.17.856.856 0 0 0 -.01 1.173c.332.475 7.584 10.562 7.584 10.562l-13.06-2.987a.779.779 0 0 0 -.815.316c-4.142 7.162-10.23 27.86 3.451 46.69 0 0 11.608-18.442 34.7-20.042 1.538-.1 1.344.446.334.813-20.623 7.61-28.744 22.752-33.988 34.428a1.132 1.132 0 0 1 -1.874.321z" fill="#004483"/><path d="m70.6 109.309s1.287-.576 1.653-.779l.013 8.948h1.619l-.015-10.524-.262-.174-.084.041a53.268 53.268 0 0 1 -3.4 1.557zm8.6 2.899c1.31 0 1.949.674 1.951 2.063a2.151 2.151 0 0 1 -2.244 2.343 2.592 2.592 0 0 1 -1.9-.945l-.2-.233-.386 1.393.125.059a5.15 5.15 0 0 0 2.335.536c2.307 0 3.981-1.409 3.979-3.345a2.388 2.388 0 0 0 -2.2-2.431 2.669 2.669 0 0 0 1.725-2.476c0-1.476-1.166-2.383-3.034-2.388a3.1 3.1 0 0 0 -2.388 1.031l.693 1.2.117-.339a1.656 1.656 0 0 1 1.52-1.093c.668 0 1.443.439 1.445 1.683 0 .968-.266 2.123-1.531 2.124l-.84-.065v.994a3.634 3.634 0 0 1 .833-.111zm5.866 3.122.434 1.7a3.5 3.5 0 0 0 1.615.383c2.7-.013 4.582-2.541 4.576-6.169 0-4.043-2.471-4.476-3.527-4.474a3.284 3.284 0 0 0 -3.485 3.375 2.886 2.886 0 0 0 3.076 3.143 2.752 2.752 0 0 0 2.27-1.088c-.108 2.259-1 4.323-2.844 4.337a2.434 2.434 0 0 1 -2.115-1.207zm2.939-2.926c-1.13 0-1.679-.74-1.681-2.258 0-1.536.73-2.569 1.826-2.57s1.832.873 1.834 2.175-.676 2.649-1.979 2.649zm10.116-1.054a2.433 2.433 0 0 0 1.511-2.23c0-1.089-.793-2.362-3.029-2.359a2.721 2.721 0 0 0 -2.971 2.545 2.279 2.279 0 0 0 1.522 2.13 2.967 2.967 0 0 0 -2.045 2.879c0 1.849 1.41 3.09 3.508 3.088a3.36 3.36 0 0 0 3.506-3.441 2.586 2.586 0 0 0 -2.002-2.612zm-2.938-2.027c0-.412.1-1.756 1.436-1.758 1.316 0 1.461 1.226 1.463 1.754 0 .412-.1 1.756-1.459 1.758-1.334.002-1.44-1.343-1.44-1.754zm1.434 7.267c-1.114 0-1.866-.943-1.867-2.351s.748-2.354 1.861-2.356 1.859.943 1.861 2.35c.002 1.43-.724 2.356-1.855 2.357z" fill="#9d9d9e"/></svg>