<?xml version="1.0" encoding="UTF-8" standalone="no"?>
<!-- Created with Inkscape (http://www.inkscape.org/) -->

<svg
   xmlns:dc="http://purl.org/dc/elements/1.1/"
   xmlns:cc="http://creativecommons.org/ns#"
   xmlns:rdf="http://www.w3.org/1999/02/22-rdf-syntax-ns#"
   xmlns:svg="http://www.w3.org/2000/svg"
   xmlns="http://www.w3.org/2000/svg"
   xmlns:sodipodi="http://sodipodi.sourceforge.net/DTD/sodipodi-0.dtd"
   xmlns:inkscape="http://www.inkscape.org/namespaces/inkscape"
   version="1.0"
   width="1000"
   height="249.408"
   id="svg2"
   inkscape:version="0.91 r13725"
   sodipodi:docname="Abbott and text.svg">
  <metadata
     id="metadata14">
    <rdf:RDF>
      <cc:Work
         rdf:about="">
        <dc:format>image/svg+xml</dc:format>
        <dc:type
           rdf:resource="http://purl.org/dc/dcmitype/StillImage" />
        <dc:title></dc:title>
      </cc:Work>
    </rdf:RDF>
  </metadata>
  <sodipodi:namedview
     pagecolor="#ffffff"
     bordercolor="#666666"
     borderopacity="1"
     objecttolerance="10"
     gridtolerance="10"
     guidetolerance="10"
     inkscape:pageopacity="0"
     inkscape:pageshadow="2"
     inkscape:window-width="1366"
     inkscape:window-height="705"
     id="namedview12"
     showgrid="false"
     inkscape:zoom="0.41640733"
     inkscape:cx="622.87773"
     inkscape:cy="-292.05589"
     inkscape:window-x="-8"
     inkscape:window-y="-8"
     inkscape:window-maximized="1"
     inkscape:current-layer="svg2" />
  <defs
     id="defs4" />
  <g
     id="g2404"
     transform="matrix(7.9522863,0,0,7.9522863,1.3856676e-7,4.4076293e-4)">
    <path
       inkscape:connector-curvature="0"
       style="fill:#0096d7"
       id="path2384"
       d="M 33.995,0 0,0 l 0,5.222 32.298,0 0,0.004 c 0.934,0 1.685,0.755 1.685,1.684 l 0,17.545 -0.007,0.012 c -0.008,0.929 -0.762,1.675 -1.688,1.675 l -25.38,0 c -0.93,0 -1.688,-0.752 -1.688,-1.687 l 0,-7.091 c 0,-0.931 0.758,-1.684 1.688,-1.684 l 21.839,0 0,-5.22 -23.54,0 C 2.33,10.46 0,12.787 0,15.663 l 0,10.492 c 0,2.875 2.33,5.208 5.207,5.208 l 28.788,0 c 2.879,0 5.207,-2.333 5.207,-5.208 l 0,-20.948 C 39.202,2.331 36.874,0 33.995,0" />
    <path
       inkscape:connector-curvature="0"
       id="path2386"
       d="m 58.628,0.01 4.083,12.215 c 0.489,1.489 0.829,1.835 1.683,1.835 l 0.833,0 0,2.149 -8.918,0 0,-2.149 0.729,0 c 0.735,0 1.349,-0.099 1.349,-0.367 0,-0.246 -0.028,-0.514 -0.123,-0.879 l -0.513,-1.761 -4.987,0 -0.291,0.977 c -0.271,0.855 -0.367,1.221 -0.367,1.563 0,0.395 0.854,0.468 1.517,0.468 l 0.704,0 0,2.149 -7.18,0 0,-2.15 0.829,0 c 0.855,0 1.196,-0.346 1.688,-1.835 l 4.08,-12.215 4.884,0 m -5.161,8.895 3.549,0 -1.76,-5.257 -0.046,0 -1.743,5.257 z" />
    <path
       inkscape:connector-curvature="0"
       id="path2388"
       d="m 66.642,3.015 c 0,-0.686 -0.171,-1.05 -0.88,-1.05 l -1.122,0 0,-1.955 6.06,0 0,6.083 c 0.901,-1.028 2.051,-1.686 3.149,-1.686 3.665,0 5.03,2.861 5.03,6.083 0,3.224 -1.365,6.08 -5.03,6.08 -1.538,0 -2.906,-0.534 -3.764,-1.879 l -0.707,1.518 -2.737,0 0,-13.194 M 70.7,10.49 c 0,2.492 0.56,3.984 1.928,3.984 1.371,0 1.931,-1.492 1.931,-3.984 0,-2.492 -0.56,-3.979 -1.931,-3.979 -1.368,0 -1.928,1.487 -1.928,3.979" />
    <path
       inkscape:connector-curvature="0"
       id="path2390"
       d="m 80.35,3.015 c 0,-0.686 -0.174,-1.05 -0.878,-1.05 l -1.125,0 0,-1.955 6.061,0 0,6.083 c 0.903,-1.028 2.052,-1.686 3.151,-1.686 3.663,0 5.033,2.861 5.033,6.083 0,3.224 -1.37,6.08 -5.033,6.08 -1.542,0 -2.907,-0.534 -3.766,-1.879 l -0.707,1.518 -2.736,0 0,-13.194 m 4.057,7.475 c 0,2.492 0.563,3.984 1.928,3.984 1.37,0 1.931,-1.492 1.931,-3.984 0,-2.492 -0.561,-3.979 -1.931,-3.979 -1.364,0 -1.928,1.487 -1.928,3.979" />
    <path
       inkscape:connector-curvature="0"
       id="path2392"
       d="m 106.372,10.49 c 0,3.909 -2.664,6.08 -6.304,6.08 -3.643,0 -6.307,-2.171 -6.307,-6.08 0,-3.91 2.664,-6.083 6.307,-6.083 3.64,0 6.304,2.173 6.304,6.083 m -8.284,0 c 0,2.881 0.512,4.128 1.98,4.128 1.466,0 1.979,-1.247 1.979,-4.128 0,-2.883 -0.513,-4.128 -1.979,-4.128 -1.468,0 -1.98,1.245 -1.98,4.128" />
    <path
       inkscape:connector-curvature="0"
       id="path2394"
       d="m 123.793,10.687 0,1.907 c 0,1.119 -0.243,1.783 -1.173,1.783 -0.563,0 -0.83,-0.417 -0.83,-0.931 l 0,-6.72 3.003,0 0,-1.951 -3.003,0 0,-4.545 -2.419,0 c -0.198,2.027 -0.831,4.545 -3.273,4.545 l -3.812,0 0,-4.545 -2.418,0 c -0.199,2.027 -0.832,4.545 -3.275,4.545 l 0,1.951 1.639,0 0,6.135 c 0,2.492 1.391,3.709 3.906,3.709 2.935,0 4.104,-1.315 4.104,-3.709 l 0,-2.175 -1.949,0 0,1.907 c 0,1.119 -0.247,1.783 -1.176,1.783 -0.563,0 -0.83,-0.417 -0.83,-0.931 l 0,-6.72 5.451,0 0,6.135 c 0,2.492 1.389,3.709 3.905,3.709 2.934,0 4.107,-1.315 4.107,-3.709 l 0,-2.175 -1.957,0" />
  </g>
</svg>
