<?xml version="1.0" encoding="utf-8"?>
<!-- Generator: Adobe Illustrator 17.0.0, SVG Export Plug-In . SVG Version: 6.00 Build 0)  -->
<!DOCTYPE svg PUBLIC "-//W3C//DTD SVG 1.1//EN" "http://www.w3.org/Graphics/SVG/1.1/DTD/svg11.dtd">
<svg version="1.1"
	 id="svg2" xmlns:cc="http://creativecommons.org/ns#" xmlns:rdf="http://www.w3.org/1999/02/22-rdf-syntax-ns#" xmlns:svg="http://www.w3.org/2000/svg" xmlns:dc="http://purl.org/dc/elements/1.1/" xmlns:inkscape="http://www.inkscape.org/namespaces/inkscape" xmlns:sodipodi="http://sodipodi.sourceforge.net/DTD/sodipodi-0.dtd" sodipodi:docname="IITG.svg" inkscape:version="0.47 r22583"
	 xmlns="http://www.w3.org/2000/svg" xmlns:xlink="http://www.w3.org/1999/xlink" x="0px" y="0px" width="297.406px"
	 height="299.825px" viewBox="0 0 297.406 299.825" enable-background="new 0 0 297.406 299.825" xml:space="preserve">
<defs>
	
	
		<inkscape:perspective  inkscape:vp_z="913.75 : 457.5 : 1" sodipodi:type="inkscape:persp3d" inkscape:vp_x="0 : 457.5 : 1" inkscape:vp_y="0 : 1000 : 0" id="perspective141" inkscape:persp3d-origin="456.875 : 305 : 1">
		</inkscape:perspective>
</defs>
<sodipodi:namedview  objecttolerance="10" gridtolerance="10" inkscape:cx="328.98877" inkscape:cy="199.14509" inkscape:zoom="1.4590356" guidetolerance="10" pagecolor="#ffffff" showgrid="false" bordercolor="#666666" borderopacity="1" id="namedview135" inkscape:current-layer="svg2" inkscape:window-maximized="1" inkscape:window-y="-8" inkscape:window-x="-8" inkscape:window-height="750" inkscape:window-width="1280" inkscape:pageshadow="2" inkscape:pageopacity="0">
	</sodipodi:namedview>
<g>
	<path fill="#D3B62A" d="M265.627,151.31c0.335,64.173-51.414,116.475-115.593,116.804c-64.178,0.336-116.477-51.42-116.81-115.593
		c-0.336-64.177,51.42-116.48,115.599-116.816C213.002,35.373,265.293,87.125,265.627,151.31z"/>
	<path fill="#EA2227" d="M252.885,175.217c0,0,5.891-24.566,0.578-49.057c-3.011-13.866-9.966-28.94-22.512-43.522
		c0,0-23.199-32.302-71.219-36.856c0,0-34.399-3.708-46.294,23.67c0,0-7.791,14.861,1.62,32.367
		c3.412,6.348,9.687,12.341,19.939,17.062c0,0,18.554,7.779,39.322-6.221c0,0,14.766-8.875,31.028-3.583
		c7.136,2.324,30.997,9.072,31.731,43.797C237.077,152.875,248.012,159.894,252.885,175.217z"/>
	<path fill="#FFFFFF" d="M178.33,83.475c0.086,15.85-12.703,28.769-28.557,28.853c-15.851,0.083-28.769-12.699-28.849-28.553
		c-0.083-15.855,12.701-28.77,28.553-28.854C165.324,54.834,178.246,67.62,178.33,83.475z"/>
	<path fill="#FFFFFF" d="M77.34,230.73c0,0,18.417,17.3,42.318,24.822c13.534,4.266,30.075,5.693,48.959,2.029
		c0,0,39.552-4.139,67.307-43.577c0,0,20.276-28.04,2.397-51.941c0,0-9.041-14.141-28.907-14.639
		c-7.198-0.181-15.522,2.298-24.708,8.849c0,0-15.952,12.265-14.091,37.236c0,0,0.387,17.228-12.272,28.73
		c-5.554,5.047-23.243,22.423-53.763,5.838C104.581,228.077,93.071,234.095,77.34,230.73z"/>
	<path fill="#204496" d="M193.978,211.47c-13.808-7.789-18.692-25.299-10.903-39.104c7.791-13.816,25.294-18.689,39.109-10.906
		c13.805,7.789,18.69,25.3,10.895,39.104C225.289,214.373,207.786,219.253,193.978,211.47z"/>
	<path fill="#204496" d="M116.951,49.984c0,0-24.198,7.272-42.68,24.205c-10.469,9.575-19.986,23.185-26.269,41.36
		c0,0-16.226,36.307,4.012,80.082c0,0,14.119,31.593,43.761,28.087c0,0,16.76-0.745,27.146-17.694
		c3.759-6.138,5.784-14.582,4.715-25.817c0,0-2.629-19.949-25.181-30.838c0,0-15.103-8.296-18.714-25.011
		c-1.59-7.338-7.767-31.343,21.866-49.461C105.607,74.896,106.156,61.912,116.951,49.984z"/>
	<path fill="#EA2227" d="M75.098,160.191c13.693-7.985,31.268-3.354,39.253,10.346c7.984,13.696,3.351,31.268-10.342,39.249
		c-13.701,7.992-31.275,3.354-39.258-10.339C56.764,185.751,61.402,168.173,75.098,160.191z"/>
	<path fill="#231F20" d="M20.638,136.883c0,1.511-1.236,2.725-2.755,2.725c-1.528,0-2.769-1.215-2.769-2.725
		c-0.003-1.5,1.236-2.718,2.766-2.718C19.398,134.165,20.634,135.383,20.638,136.883z"/>
	<path fill="none" stroke="#231F20" stroke-width="0.3397" d="M20.638,136.883c0,1.511-1.236,2.725-2.755,2.725
		c-1.528,0-2.769-1.215-2.769-2.725c-0.003-1.5,1.236-2.718,2.766-2.718C19.398,134.165,20.634,135.383,20.638,136.883z"/>
	<path fill="#231F20" d="M284.735,138.264c0,1.511-1.237,2.729-2.755,2.729c-1.532,0-2.761-1.218-2.761-2.729
		c0-1.5,1.229-2.719,2.761-2.719C283.497,135.545,284.735,136.763,284.735,138.264z"/>
	<path fill="none" stroke="#231F20" stroke-width="0.3397" d="M284.735,138.264c0,1.511-1.237,2.729-2.755,2.729
		c-1.532,0-2.761-1.218-2.761-2.729c0-1.5,1.229-2.719,2.761-2.719C283.497,135.545,284.735,136.763,284.735,138.264z"/>
	<polygon fill="#231F20" points="27.189,149.065 10.213,149.729 10.127,147.553 27.1,146.896 	"/>
	<path fill="#231F20" d="M19.293,153.399c1.28-0.148,2.278-0.286,3.275-0.474l0.224,1.908l-1.967,0.35l0.008,0.047
		c1.192,0.459,2.479,1.703,2.718,3.666c0.192,1.641-0.51,4.301-4.667,4.778l-7.234,0.832l-0.256-2.162l6.987-0.799
		c1.953-0.228,3.521-1.124,3.281-3.152c-0.169-1.399-1.322-2.382-2.598-2.634c-0.286-0.069-0.691-0.073-1.045-0.03l-7.31,0.839
		l-0.252-2.154L19.293,153.399z"/>
	<path fill="#231F20" d="M20.045,175.583c0.293-0.062,0.633-0.152,0.915-0.289c1.294-0.583,2.194-1.967,1.865-3.565
		c-0.448-2.198-2.689-3.109-5.31-2.592c-2.451,0.488-4.204,2.071-3.738,4.349c0.293,1.424,1.55,2.534,3.235,2.595
		c0.307,0.015,0.606-0.021,0.954-0.089L20.045,175.583z M30.929,175.622l-14.452,2.888c-1.063,0.211-2.266,0.471-3.069,0.709
		l-0.394-1.908l2.06-0.513l-0.015-0.05c-1.472-0.383-2.769-1.584-3.155-3.492c-0.582-2.827,1.413-5.516,5.046-6.239
		c3.995-0.824,6.918,1.135,7.497,3.962c0.373,1.814-0.242,3.195-1.08,3.889l0.014,0.047l7.111-1.424L30.929,175.622z"/>
	<path fill="#231F20" d="M28.707,180.564c-0.211-0.788,0.285-1.482,1.041-1.674c0.748-0.195,1.511,0.192,1.728,1.005
		c0.217,0.81-0.254,1.49-1.005,1.684c-0.759,0.203-1.532-0.162-1.756-0.994L28.707,180.564z M14.475,183.188l11.795-3.058
		l0.563,2.093l-11.801,3.061L14.475,183.188z"/>
	<path fill="#231F20" d="M24.043,193.497c-0.691-2.273-1.931-4.699-4.186-3.983c-1.395,0.441-1.72,1.533-1.388,2.559
		c0.485,1.511,1.765,2.162,2.86,2.177c0.234,0.003,0.48-0.051,0.701-0.116L24.043,193.497z M21.557,196.513
		c-1.005,0.318-1.974,0.679-2.734,1.048l-0.604-1.858l1.407-0.651l-0.022-0.072c-1.117-0.318-2.336-1.305-2.863-2.921
		c-0.752-2.306,0.521-4.005,2.198-4.536c2.813-0.889,5.139,1.063,6.55,5.461l0.237-0.079c0.962-0.304,2.625-1.121,1.851-3.434
		c-0.355-1.077-1.027-2.083-1.836-2.704L27,185.845c0.903,0.752,1.764,2.007,2.234,3.43c1.143,3.503-1.008,5.119-3.333,5.856
		L21.557,196.513z"/>
	<path fill="#231F20" d="M28.518,198.226c1.19-0.481,2.112-0.893,3.012-1.337l0.748,1.771l-1.793,0.868l0.019,0.047
		c1.284,0.119,2.866,0.969,3.633,2.784c0.646,1.529,0.712,4.279-3.152,5.856l-6.728,2.765l-0.842-2.006l6.496-2.661
		c1.815-0.745,3.073-2.038,2.274-3.926c-0.55-1.297-1.937-1.937-3.228-1.818c-0.293,0.008-0.691,0.109-1.013,0.246l-6.795,2.791
		l-0.85-2.002L28.518,198.226z"/>
	<polygon fill="#231F20" points="44.795,213.824 29.881,221.834 28.826,219.929 43.747,211.915 	"/>
	<path fill="#231F20" d="M39.576,221.053c1.08-0.686,1.909-1.243,2.724-1.844l1.056,1.62l-1.612,1.164l0.029,0.044
		c1.28-0.116,2.993,0.444,4.082,2.103c0.903,1.385,1.459,4.081-2.053,6.319l-6.124,3.89l-1.193-1.822l5.914-3.759
		c1.656-1.048,2.661-2.537,1.532-4.258c-0.777-1.178-2.252-1.565-3.511-1.236c-0.282,0.066-0.65,0.238-0.946,0.43l-6.185,3.929
		l-1.193-1.829L39.576,221.053z"/>
	<path fill="#231F20" d="M42.037,236.438c0.099,0.773,0.453,1.937,1.128,2.794c0.976,1.225,2.05,1.333,2.867,0.704
		c0.827-0.65,0.9-1.482,0.386-3.094c-0.722-2.198-0.423-3.716,0.723-4.605c1.554-1.2,3.806-0.944,5.4,1.052
		c0.751,0.954,1.163,1.989,1.225,2.755l-1.572,0.556c-0.076-0.538-0.282-1.475-0.969-2.35c-0.81-1.012-1.836-1.084-2.552-0.531
		c-0.81,0.625-0.731,1.446-0.238,3.036c0.665,2.089,0.513,3.586-0.933,4.7c-1.706,1.323-3.929,0.947-5.675-1.247
		c-0.817-1.03-1.301-2.194-1.424-3.16L42.037,236.438z"/>
	<path fill="#231F20" d="M60.212,238.148l-2.161,1.945l2.125,2.292l-1.251,1.12l-2.125-2.292l-4.862,4.37
		c-1.117,1.009-1.46,1.883-0.632,2.773c0.405,0.445,0.682,0.665,0.972,0.832l-1.182,1.2c-0.399-0.21-0.962-0.604-1.537-1.222
		c-0.689-0.748-0.986-1.586-0.915-2.346c0.101-0.889,0.732-1.801,1.794-2.751l4.915-4.421l-1.258-1.37l1.244-1.121l1.262,1.367
		l1.659-1.49L60.212,238.148z"/>
	<path fill="#231F20" d="M64.241,243.208c-0.594-0.571-0.529-1.409,0.012-1.966c0.551-0.546,1.401-0.596,2.011-0.014
		c0.607,0.586,0.563,1.41,0.022,1.967c-0.55,0.549-1.403,0.632-2.033,0.029L64.241,243.208z M53.407,252.679l8.515-8.611
		l1.572,1.515l-8.509,8.614L53.407,252.679z"/>
	<path fill="#231F20" d="M70.063,247.546l-1.919,2.187l2.382,2.032l-1.107,1.261l-2.382-2.036l-4.305,4.902
		c-0.991,1.131-1.229,2.042-0.303,2.83c0.455,0.394,0.751,0.579,1.063,0.716l-1.027,1.323c-0.419-0.162-1.034-0.48-1.669-1.034
		c-0.782-0.665-1.174-1.46-1.19-2.226c-0.01-0.897,0.51-1.865,1.449-2.939l4.359-4.956l-1.42-1.214l1.106-1.258l1.42,1.207
		l1.464-1.67L70.063,247.546z"/>
	<path fill="#231F20" d="M75.464,266.223c-0.735,1.02-1.357,1.923-1.848,2.736l-1.594-1.121l1.055-1.67l-0.036-0.029
		c-1.024,0.47-2.827,0.759-4.576-0.477c-1.547-1.092-2.77-3.268-0.285-6.68l4.152-5.718l1.786,1.254l-3.911,5.404
		c-1.356,1.858-1.688,3.542-0.079,4.677c1.196,0.85,2.632,0.614,3.55,0.029c0.274-0.171,0.571-0.452,0.817-0.792l4.345-5.986
		l1.792,1.266L75.464,266.223z"/>
	<path fill="#231F20" d="M87.486,259.789l-1.482,2.48l2.718,1.575l-0.853,1.436l-2.719-1.573l-3.329,5.589
		c-0.766,1.287-0.835,2.226,0.221,2.84c0.517,0.297,0.847,0.434,1.175,0.514l-0.766,1.482c-0.445-0.087-1.1-0.289-1.833-0.716
		c-0.886-0.514-1.417-1.222-1.58-1.981c-0.165-0.878,0.162-1.923,0.89-3.145l3.369-5.661l-1.617-0.933l0.853-1.439l1.615,0.937
		l1.139-1.913L87.486,259.789z"/>
	<path fill="#231F20" d="M95.334,272.849c0.665-1.2,1.172-3.412-1.005-4.536c-1.992-1.027-3.788,0.339-4.664,1.597L95.334,272.849z
		 M88.9,271.284c-1.345,2.646-0.26,4.58,1.683,5.592c1.392,0.723,2.386,0.93,3.246,1.012l-0.376,1.548
		c-0.845-0.054-2.24-0.297-3.947-1.183c-3.275-1.698-4.102-4.909-2.404-8.1c1.724-3.228,5-4.764,8.12-3.145
		c3.501,1.815,2.776,5.343,1.732,7.302c-0.211,0.39-0.399,0.694-0.557,0.882L88.9,271.284z"/>
	<path fill="#231F20" d="M108.763,284.088c2.013,0.6,4.095-0.831,4.897-3.452c0.597-1.944,0.363-4.685-2.124-5.436
		c-2.465-0.731-4.243,1.236-4.908,3.419c-0.782,2.527,0.079,4.858,2.11,5.466L108.763,284.088z M108.21,285.638
		c-3.113-0.932-4.852-3.94-3.738-7.58c1.178-3.857,4.431-5.354,7.616-4.403c3.329,0.994,4.839,4.06,3.771,7.566
		c-1.312,4.272-4.873,5.241-7.624,4.421L108.21,285.638z"/>
	<path fill="#231F20" d="M118.061,287.891l2.125-10.158l-1.638-0.326l0.34-1.634l1.637,0.337l0.12-0.561
		c0.346-1.656,1.055-3.087,2.255-3.828c0.969-0.618,2.112-0.712,3.094-0.517c0.788,0.159,1.381,0.462,1.764,0.719l-0.615,1.595
		c-0.31-0.21-0.701-0.416-1.337-0.546c-1.815-0.373-2.646,1.131-3.014,2.938l-0.138,0.629l2.863,0.586l-0.34,1.63l-2.833-0.574
		l-2.132,10.149L118.061,287.891z"/>
	<polygon fill="#231F20" points="135.217,275.477 130.109,275.04 130.271,273.2 142.703,274.281 142.54,276.11 137.41,275.672 
		136.08,290.523 133.89,290.338 	"/>
	<path fill="#231F20" d="M150.141,283.744c0.029-1.37-0.571-3.557-3.017-3.565c-2.253-0.004-3.207,2.039-3.385,3.558
		L150.141,283.744z M143.714,285.302c0.051,2.953,1.924,4.176,4.125,4.176c1.572,0.003,2.549-0.271,3.35-0.594l0.399,1.544
		c-0.781,0.351-2.126,0.77-4.056,0.77c-3.694-0.007-5.947-2.473-5.943-6.073c0.004-3.651,2.183-6.514,5.704-6.507
		c3.955,0.008,4.982,3.46,4.982,5.672c-0.006,0.444-0.033,0.799-0.08,1.044L143.714,285.302z"/>
	<path fill="#231F20" d="M164.633,289.51c-0.553,0.326-1.782,0.861-3.402,1.009c-3.63,0.325-6.224-1.916-6.565-5.603
		c-0.346-3.68,1.953-6.608,5.878-6.966c1.297-0.112,2.473,0.101,3.102,0.361l-0.347,1.71c-0.543-0.224-1.396-0.441-2.588-0.34
		c-2.767,0.253-4.068,2.437-3.839,4.938c0.26,2.776,2.212,4.32,4.598,4.107c1.251-0.116,2.039-0.488,2.635-0.813L164.633,289.51z"/>
	<path fill="#231F20" d="M165.057,272.086l2.164-0.389l1.391,7.373l0.051-0.007c0.231-0.672,0.664-1.337,1.264-1.796
		c0.565-0.503,1.284-0.871,2.099-1.023c1.597-0.289,4.337,0.216,5.111,4.301l1.327,7.035l-2.166,0.398l-1.287-6.789
		c-0.362-1.93-1.373-3.39-3.412-3.014c-1.403,0.253-2.3,1.431-2.494,2.679c-0.065,0.317-0.032,0.639,0.047,1.051l1.341,7.143
		l-2.158,0.391L165.057,272.086z"/>
	<path fill="#231F20" d="M180.61,278.065c-0.358-1.222-0.66-2.165-1.015-3.102l1.872-0.534l0.676,1.85l0.051-0.014
		c0.259-1.233,1.289-2.701,3.213-3.242c1.609-0.456,4.386-0.21,5.55,3.748l2.02,6.9l-2.115,0.604l-1.948-6.666
		c-0.549-1.861-1.706-3.242-3.702-2.671c-1.369,0.391-2.161,1.677-2.203,2.957c-0.016,0.289,0.042,0.68,0.14,1.019l2.043,6.977
		l-2.116,0.6L180.61,278.065z"/>
	<path fill="#231F20" d="M201.544,279.132c1.959-0.752,2.704-3.145,1.703-5.69c-0.748-1.902-2.65-3.926-5.063-2.997
		c-2.408,0.922-2.583,3.546-1.741,5.678c0.966,2.452,3.098,3.775,5.077,3.015L201.544,279.132z M202.072,280.686
		c-3.03,1.164-6.282-0.156-7.679-3.694c-1.474-3.759,0.152-6.911,3.254-8.101c3.235-1.239,6.347,0.264,7.692,3.669
		c1.641,4.168-0.56,7.093-3.242,8.119L202.072,280.686z"/>
	<polygon fill="#231F20" points="203.297,260.769 205.3,259.865 212.742,275.919 210.739,276.815 	"/>
	<path fill="#231F20" d="M220.789,270.46c1.836-1.005,2.252-3.469,0.91-5.87c-1.005-1.778-3.155-3.531-5.433-2.295
		c-2.255,1.229-2.072,3.857-0.943,5.852c1.291,2.313,3.578,3.333,5.441,2.321L220.789,270.46z M221.526,271.935
		c-2.849,1.544-6.255,0.673-8.11-2.657c-1.986-3.525-0.797-6.868,2.114-8.448c3.044-1.659,6.334-0.586,8.126,2.61
		c2.191,3.919,0.405,7.107-2.107,8.48L221.526,271.935z"/>
	<path fill="#231F20" d="M232.468,255.476c-0.219-0.274-0.441-0.52-0.7-0.701c-1.122-0.78-2.596-0.979-3.881,0
		c-1.673,1.262-1.774,3.56-0.039,5.791c1.447,1.851,3.651,2.69,5.513,1.28c1.089-0.824,1.536-2.23,1.024-3.629
		c-0.116-0.347-0.339-0.712-0.582-1.027L232.468,255.476z M237.634,258.546c1.716,2.215,2.295,3.878,2.039,5.411
		c-0.293,1.572-1.414,2.892-2.621,3.81c-1.147,0.868-2.635,1.547-3.799,1.626l-0.619-1.67c0.963-0.071,2.227-0.462,3.413-1.366
		c1.793-1.352,2.378-3.268,0.491-5.693l-0.812-1.048l-0.041,0.032c0.173,1.276-0.325,2.783-1.815,3.911
		c-2.371,1.8-5.654,1.085-7.722-1.58c-2.515-3.231-1.807-6.655,0.41-8.336c1.674-1.261,3.224-1.095,4.275-0.633l0.04-0.029
		l-1.044-1.467l1.544-1.172c0.463,0.716,1.038,1.504,1.949,2.668L237.634,258.546z"/>
	<path fill="#231F20" d="M234.602,247.449l6.881,3.329c0.781,0.364,1.663,0.846,2.321,1.225l0.036-0.036
		c-0.346-0.669-0.817-1.508-1.214-2.339l-3.236-6.724l1.677-1.598l3.656,8.441c1.763,4.052,2.473,6.307,2.32,8.285
		c-0.148,1.413-0.643,2.397-0.969,2.849l-1.693-0.944c0.298-0.487,0.571-1.236,0.637-2.096c0.101-0.749,0.029-1.851-0.376-3.015
		c-0.086-0.232-0.138-0.391-0.246-0.5c-0.083-0.087-0.246-0.177-0.507-0.274l-11.018-4.959L234.602,247.449z"/>
	<path fill="#231F20" d="M262.858,232.599c-0.291,0.987-1.021,2.848-2.398,4.641c-1.537,2.01-3.329,3.268-5.584,3.622
		c-2.006,0.3-4.359-0.344-6.47-1.913c-4.035-3.011-4.891-7.952-1.486-12.398c1.176-1.533,2.455-2.501,3.169-2.855l1.095,1.489
		c-0.878,0.455-1.798,1.164-2.826,2.501c-2.476,3.228-2.042,6.861,1.36,9.398c3.438,2.556,7.008,2.064,9.387-1.044
		c0.864-1.121,1.287-2.003,1.388-2.553l-4.038-3.014l-2.052,2.682l-1.407-1.055l3.347-4.359L262.858,232.599z"/>
	<path fill="#231F20" d="M268.226,218.855c1.09,0.629,2.06,1.157,2.927,1.569l-0.986,1.663l-1.783-0.889l-0.029,0.043
		c0.576,0.962,1.03,2.708-0.055,4.541c-0.961,1.612-3.043,3.015-6.723,0.888l-6.156-3.542l1.107-1.883l5.815,3.354
		c2.004,1.153,3.739,1.327,4.736-0.353c0.742-1.255,0.366-2.643-0.302-3.489c-0.2-0.253-0.51-0.521-0.88-0.73l-6.437-3.716
		l1.11-1.873L268.226,218.855z"/>
	<path fill="#231F20" d="M262.673,210.498l6.321,0.943c1.377,0.235,2.686,0.441,3.93,0.723l0.03-0.066
		c-1.023-0.73-2.069-1.601-3.131-2.486l-4.916-4.211l0.738-1.677l6.345,0.683c1.492,0.152,2.83,0.347,4.08,0.583l0.029-0.065
		c-1.055-0.669-2.104-1.464-3.271-2.386l-4.938-3.955l0.861-1.966l9.658,8.295l-0.791,1.808l-6.081-0.6
		c-1.438-0.149-2.689-0.304-4.127-0.597l-0.022,0.047c1.225,0.839,2.255,1.681,3.29,2.577l4.555,4.031l-0.797,1.807l-12.645-1.45
		L262.673,210.498z"/>
	<path fill="#231F20" d="M276.817,190.331c-0.758,2.249-1.149,4.938,1.11,5.628c1.4,0.423,2.303-0.277,2.629-1.312
		c0.469-1.511-0.185-2.769-1.071-3.401c-0.195-0.141-0.43-0.231-0.645-0.297L276.817,190.331z M280.605,189.265
		c1.013,0.311,2.011,0.567,2.845,0.683l-0.58,1.865l-1.534-0.256l-0.014,0.065c0.723,0.896,1.146,2.393,0.636,4.019
		c-0.723,2.31-2.754,2.979-4.44,2.465c-2.818-0.857-3.589-3.778-2.186-8.173l-0.242-0.072c-0.962-0.297-2.798-0.579-3.506,1.764
		c-0.341,1.088-0.38,2.288-0.074,3.26l-1.568,0.04c-0.308-1.124-0.277-2.646,0.174-4.078c1.099-3.507,3.795-3.622,6.131-2.91
		L280.605,189.265z"/>
	<path fill="#231F20" d="M267.093,182.028l0.471-2.126l7.438,1.602l0.007-0.05c-0.542-0.477-0.99-1.121-1.193-1.847
		c-0.255-0.709-0.313-1.508-0.14-2.302c0.347-1.565,1.883-3.854,6.001-2.979l7.084,1.526l-0.462,2.11l-6.846-1.459
		c-1.944-0.42-3.705-0.059-4.137,1.937c-0.305,1.373,0.448,2.646,1.539,3.307c0.267,0.184,0.586,0.279,1.004,0.365l7.195,1.539
		l-0.471,2.119L267.093,182.028z"/>
	<path fill="#231F20" d="M282.197,164.385c-0.373,2.334-0.315,5.056,2.035,5.371c1.445,0.189,2.223-0.651,2.371-1.724
		c0.216-1.565-0.639-2.7-1.62-3.177c-0.217-0.101-0.467-0.163-0.687-0.192L282.197,164.385z M285.758,162.721
		c1.048,0.137,2.084,0.225,2.927,0.21l-0.267,1.934l-1.554-0.011l-0.008,0.076c0.861,0.763,1.529,2.165,1.301,3.856
		c-0.331,2.397-2.22,3.384-3.975,3.149c-2.921-0.387-4.165-3.149-3.515-7.711l-0.253-0.032c-0.997-0.134-2.855-0.113-3.163,2.309
		c-0.154,1.128,0.011,2.321,0.473,3.229l-1.538,0.293c-0.492-1.063-0.722-2.56-0.513-4.056c0.497-3.637,3.145-4.182,5.562-3.853
		L285.758,162.721z"/>
	<path fill="#231F20" d="M274.162,155.296l2.917,0.232l0.246-3.102l1.684,0.13l-0.254,3.098l6.566,0.507
		c1.502,0.119,2.392-0.235,2.489-1.443c0.048-0.586,0.024-0.936-0.049-1.258l1.688,0.029c0.115,0.426,0.218,1.098,0.152,1.944
		c-0.08,0.997-0.499,1.793-1.114,2.259c-0.721,0.538-1.828,0.698-3.26,0.59l-6.637-0.514l-0.142,1.844l-1.684-0.13l0.142-1.844
		l-2.234-0.174L274.162,155.296z"/>
	<path fill="#231F20" d="M289.614,150.489l-12.189-0.498l0.091-2.169l12.192,0.499L289.614,150.489z M275.228,148.869
		c-0.04,0.81-0.716,1.331-1.493,1.294c-0.78-0.036-1.391-0.622-1.348-1.46c0.029-0.838,0.68-1.352,1.46-1.323
		c0.781,0.036,1.417,0.6,1.381,1.467V148.869z"/>
	<polygon fill="#231F20" points="184.985,11.789 182.949,13.076 181.695,11.096 183.665,9.758 	"/>
	<polygon fill="none" stroke="#231F20" stroke-width="0.1019" points="184.985,11.789 182.949,13.076 181.695,11.096 183.665,9.758 
			"/>
	<path fill="#231F20" d="M178.85,23.943c-0.079,0.007-0.51-0.019-1.294-0.08c-0.785-0.065-1.388-0.144-1.815-0.22
		c-0.543-0.101-1.236-0.503-2.082-1.186c-0.283-0.22-0.665-0.567-1.153-1.045c-0.141,0.21-0.257,0.379-0.359,0.51
		c-0.289,0.376-0.615,0.658-0.978,0.861c-0.366,0.192-0.791,0.368-1.285,0.546c-0.072,0.01-0.173,0.04-0.306,0.083
		c0.191,0.542,0.349,0.973,0.487,1.287c0.428,1.059,0.791,1.887,1.104,2.479c0.319,0.586,0.708,1.247,1.163,1.989
		c0.254,0.376,0.506,0.763,0.771,1.149l-0.98,0.319c-0.043-0.007-0.405-0.683-1.064-2.028c-0.866-1.721-1.514-3.164-1.94-4.316
		c-0.658-1.75-0.912-2.998-0.774-3.735c0.09-0.463,0.323-0.654,0.698-0.586l1.96,0.376l0.958-4.894l-3.722-0.709l0.296-1.497
		l9.997,1.902l-0.296,1.493l-4.489-0.846c-0.023,0.206-0.037,0.38-0.04,0.524c-0.05,1.041-0.105,1.724-0.174,2.039
		c-0.113,0.586-0.228,1.07-0.343,1.449c-0.119,0.384-0.243,0.73-0.362,1.045c0.29,0.271,0.527,0.47,0.722,0.6
		c0.644,0.459,1.233,0.738,1.776,0.839c0.632,0.123,1.296,0.13,1.987,0.032c0.691-0.101,1.342-0.289,1.964-0.564L178.85,23.943z"/>
	<path fill="none" stroke="#231F20" stroke-width="0.1019" d="M178.85,23.943c-0.079,0.007-0.51-0.019-1.294-0.08
		c-0.785-0.065-1.388-0.144-1.815-0.22c-0.543-0.101-1.236-0.503-2.082-1.186c-0.283-0.22-0.665-0.567-1.153-1.045
		c-0.141,0.21-0.257,0.379-0.359,0.51c-0.289,0.376-0.615,0.658-0.978,0.861c-0.366,0.192-0.791,0.368-1.285,0.546
		c-0.072,0.01-0.173,0.04-0.306,0.083c0.191,0.542,0.349,0.973,0.487,1.287c0.428,1.059,0.791,1.887,1.104,2.479
		c0.319,0.586,0.708,1.247,1.163,1.989c0.254,0.376,0.506,0.763,0.771,1.149l-0.98,0.319c-0.043-0.007-0.405-0.683-1.064-2.028
		c-0.866-1.721-1.514-3.164-1.94-4.316c-0.658-1.75-0.912-2.998-0.774-3.735c0.09-0.463,0.323-0.654,0.698-0.586l1.96,0.376
		l0.958-4.894l-3.722-0.709l0.296-1.497l9.997,1.902l-0.296,1.493l-4.489-0.846c-0.023,0.206-0.037,0.38-0.04,0.524
		c-0.05,1.041-0.105,1.724-0.174,2.039c-0.113,0.586-0.228,1.07-0.343,1.449c-0.119,0.384-0.243,0.73-0.362,1.045
		c0.29,0.271,0.527,0.47,0.722,0.6c0.644,0.459,1.233,0.738,1.776,0.839c0.632,0.123,1.296,0.13,1.987,0.032
		c0.691-0.101,1.342-0.289,1.964-0.564L178.85,23.943z"/>
	<polygon fill="#231F20" points="184.698,17.87 181.808,17.32 178.859,32.387 177.259,30.731 179.95,16.966 178.012,16.601 
		178.301,15.108 184.996,16.373 	"/>
	<polygon fill="none" stroke="#231F20" stroke-width="0.1019" points="184.698,17.87 181.808,17.32 178.859,32.387 177.259,30.731 
		179.95,16.966 178.012,16.601 178.301,15.108 184.996,16.373 	"/>
	<path fill="#231F20" d="M148.182,14.19l-8.766,0.441l0.287,5.466c0.147-0.275,0.458-0.615,0.914-1.027
		c0.691-0.585,1.363-0.889,2.01-0.925c0.936-0.05,1.833,0.427,2.707,1.431c0.867,0.998,1.337,2.104,1.396,3.348
		c0.066,1.196-0.289,2.519-1.059,3.955c-0.599,1.103-1.062,1.749-1.386,1.966l-1.654-1.099c0.626-0.6,1.095-1.128,1.388-1.569
		c0.915-1.345,1.338-2.773,1.259-4.265c-0.04-0.708-0.182-1.229-0.412-1.562c-0.232-0.333-0.688-0.485-1.367-0.448
		c-0.795,0.036-1.641,0.52-2.542,1.424c-0.754,0.788-1.124,1.294-1.116,1.533l0.38,7.1l-1.967-1.237l-0.242-4.525
		c-0.329,0.528-0.621,0.918-0.867,1.171c-0.767,0.81-1.579,1.244-2.44,1.287c-1.005,0.047-1.949-0.459-2.839-1.525
		c-0.889-1.07-1.369-2.209-1.431-3.416c-0.087-1.678,0.491-2.892,1.742-3.647c0.788-0.464,1.765-0.728,2.928-0.789
		c0.123-0.007,0.214-0.007,0.289-0.022c0.069,0,0.142,0,0.218,0l0.881,1.974c-0.046-0.058-0.335-0.065-0.859-0.043
		c-1.038,0.058-1.909,0.278-2.602,0.676c-1.013,0.575-1.493,1.424-1.433,2.537c0.037,0.81,0.243,1.446,0.61,1.916
		c0.373,0.47,0.864,0.694,1.486,0.658c0.991-0.054,1.99-0.654,2.979-1.796c0.807-0.925,1.207-1.533,1.193-1.815l-0.347-6.637
		l-8.337,0.431l-0.086-1.526l19.007-0.961L148.182,14.19z"/>
	<path fill="none" stroke="#231F20" stroke-width="0.1019" d="M148.182,14.19l-8.766,0.441l0.287,5.466
		c0.147-0.275,0.458-0.615,0.914-1.027c0.691-0.585,1.363-0.889,2.01-0.925c0.936-0.05,1.833,0.427,2.707,1.431
		c0.867,0.998,1.337,2.104,1.396,3.348c0.066,1.196-0.289,2.519-1.059,3.955c-0.599,1.103-1.062,1.749-1.386,1.966l-1.654-1.099
		c0.626-0.6,1.095-1.128,1.388-1.569c0.915-1.345,1.338-2.773,1.259-4.265c-0.04-0.708-0.182-1.229-0.412-1.562
		c-0.232-0.333-0.688-0.485-1.367-0.448c-0.795,0.036-1.641,0.52-2.542,1.424c-0.754,0.788-1.124,1.294-1.116,1.533l0.38,7.1
		l-1.967-1.237l-0.242-4.525c-0.329,0.528-0.621,0.918-0.867,1.171c-0.767,0.81-1.579,1.244-2.44,1.287
		c-1.005,0.047-1.949-0.459-2.839-1.525c-0.889-1.07-1.369-2.209-1.431-3.416c-0.087-1.678,0.491-2.892,1.742-3.647
		c0.788-0.464,1.765-0.728,2.928-0.789c0.123-0.007,0.214-0.007,0.289-0.022c0.069,0,0.142,0,0.218,0l0.881,1.974
		c-0.046-0.058-0.335-0.065-0.859-0.043c-1.038,0.058-1.909,0.278-2.602,0.676c-1.013,0.575-1.493,1.424-1.433,2.537
		c0.037,0.81,0.243,1.446,0.61,1.916c0.373,0.47,0.864,0.694,1.486,0.658c0.991-0.054,1.99-0.654,2.979-1.796
		c0.807-0.925,1.207-1.533,1.193-1.815l-0.347-6.637l-8.337,0.431l-0.086-1.526l19.007-0.961L148.182,14.19z"/>
	<path fill="#231F20" d="M141.14,13.51c0.199-0.101,0.353-0.065,0.455,0.116c0.083,0.195,0.034,0.347-0.157,0.425
		c-0.196,0.102-0.348,0.059-0.456-0.115C140.902,13.728,140.953,13.582,141.14,13.51z"/>
	<path fill="none" stroke="#231F20" stroke-width="0.1019" d="M141.14,13.51c0.199-0.101,0.353-0.065,0.455,0.116
		c0.083,0.195,0.034,0.347-0.157,0.425c-0.196,0.102-0.348,0.059-0.456-0.115C140.902,13.728,140.953,13.582,141.14,13.51z"/>
	<path fill="#231F20" d="M155.1,13.839l-3.297,0.17l0.8,15.327l-1.959-1.236l-0.728-13.997l-1.966,0.102l-0.08-1.53l2.878-0.137
		c-0.623-1.301-1.171-2.263-1.634-2.902c-1.42-1.916-2.994-2.827-4.721-2.74c-0.814,0.035-1.41,0.376-1.786,1.012
		c-0.286,0.484-0.401,1.12-0.362,1.931c0.037,0.715,0.333,1.445,0.882,2.176c0.181,0.224,0.456,0.507,0.818,0.839l-0.723,0.036
		c-0.216-0.058-0.596-0.477-1.139-1.251c-0.726-1.019-1.116-2.046-1.176-3.087c-0.045-0.918,0.146-1.641,0.58-2.183
		c0.543-0.686,1.41-1.055,2.61-1.121c1.871-0.098,3.702,1.077,5.487,3.518c0.596,0.794,1.305,2.034,2.139,3.719l3.299-0.166
		L155.1,13.839z"/>
	<path fill="none" stroke="#231F20" stroke-width="0.1019" d="M155.1,13.839l-3.297,0.17l0.8,15.327l-1.959-1.236l-0.728-13.997
		l-1.966,0.102l-0.08-1.53l2.878-0.137c-0.623-1.301-1.171-2.263-1.634-2.902c-1.42-1.916-2.994-2.827-4.721-2.74
		c-0.814,0.035-1.41,0.376-1.786,1.012c-0.286,0.484-0.401,1.12-0.362,1.931c0.037,0.715,0.333,1.445,0.882,2.176
		c0.181,0.224,0.456,0.507,0.818,0.839l-0.723,0.036c-0.216-0.058-0.596-0.477-1.139-1.251c-0.726-1.019-1.116-2.046-1.176-3.087
		c-0.045-0.918,0.146-1.641,0.58-2.183c0.543-0.686,1.41-1.055,2.61-1.121c1.871-0.098,3.702,1.077,5.487,3.518
		c0.596,0.794,1.305,2.034,2.139,3.719l3.299-0.166L155.1,13.839z"/>
	<path fill="#231F20" d="M119.214,14.79l-0.673,0.716c-0.556-0.362-1.113-0.731-1.656-1.099c-1.344-0.788-2.701-1.388-4.07-1.786
		c-1.909-0.556-3.601-0.643-5.09-0.267c-1.135,0.285-1.92,0.791-2.353,1.503c-0.433,0.716-0.524,1.555-0.278,2.509
		c0.188,0.704,0.522,1.308,1.001,1.822c0.136,0.162,0.359,0.343,0.662,0.556l3.92-0.994l0.389,1.478l-3.195,0.81l3.883,14.856
		l-2.173-0.824l-3.547-13.57l-1.901,0.484l-0.391-1.472l2.437-0.621c-0.489-0.264-0.867-0.51-1.128-0.741
		c-0.803-0.673-1.323-1.468-1.56-2.379c-0.301-1.171-0.203-2.176,0.288-3.037c0.492-0.853,1.348-1.439,2.553-1.742
		c1.609-0.409,3.52-0.29,5.747,0.365c1.552,0.452,3.225,1.168,5.017,2.151C117.8,13.929,118.505,14.363,119.214,14.79z"/>
	<path fill="none" stroke="#231F20" stroke-width="0.1019" d="M119.214,14.79l-0.673,0.716c-0.556-0.362-1.113-0.731-1.656-1.099
		c-1.344-0.788-2.701-1.388-4.07-1.786c-1.909-0.556-3.601-0.643-5.09-0.267c-1.135,0.285-1.92,0.791-2.353,1.503
		c-0.433,0.716-0.524,1.555-0.278,2.509c0.188,0.704,0.522,1.308,1.001,1.822c0.136,0.162,0.359,0.343,0.662,0.556l3.92-0.994
		l0.389,1.478l-3.195,0.81l3.883,14.856l-2.173-0.824l-3.547-13.57l-1.901,0.484l-0.391-1.472l2.437-0.621
		c-0.489-0.264-0.867-0.51-1.128-0.741c-0.803-0.673-1.323-1.468-1.56-2.379c-0.301-1.171-0.203-2.176,0.288-3.037
		c0.492-0.853,1.348-1.439,2.553-1.742c1.609-0.409,3.52-0.29,5.747,0.365c1.552,0.452,3.225,1.168,5.017,2.151
		C117.8,13.929,118.505,14.363,119.214,14.79z"/>
	<path fill="#231F20" d="M119.437,17.096l-3.267,0.832l2.332,8.906c0.066,0.274-0.08,0.456-0.448,0.549
		c-0.254,0.058-1.005-0.217-2.25-0.867c-1.247-0.643-1.904-1.106-1.983-1.373c-0.014-0.065,0-0.174,0.058-0.304
		c0.05-0.137,0.138-0.224,0.257-0.245l1.71-0.434l-1.512-5.769l-3.875,0.991l-0.382-1.482l8.972-2.278L119.437,17.096z"/>
	<path fill="none" stroke="#231F20" stroke-width="0.1019" d="M119.437,17.096l-3.267,0.832l2.332,8.906
		c0.066,0.274-0.08,0.456-0.448,0.549c-0.254,0.058-1.005-0.217-2.25-0.867c-1.247-0.643-1.904-1.106-1.983-1.373
		c-0.014-0.065,0-0.174,0.058-0.304c0.05-0.137,0.138-0.224,0.257-0.245l1.71-0.434l-1.512-5.769l-3.875,0.991l-0.382-1.482
		l8.972-2.278L119.437,17.096z"/>
	<polygon fill="#231F20" points="125.69,15.509 122.828,16.232 126.714,31.103 124.537,30.272 120.992,16.698 119.095,17.19 
		118.706,15.708 125.308,14.034 	"/>
	<polygon fill="none" stroke="#231F20" stroke-width="0.1019" points="125.69,15.509 122.828,16.232 126.714,31.103 124.537,30.272 
		120.992,16.698 119.095,17.19 118.706,15.708 125.308,14.034 	"/>
	<path fill="#231F20" d="M94.138,35.365L90.02,27.29l-3.575,1.768l1.576,3.097l-3.709,1.833c-0.318,0.162-0.534,0.326-0.632,0.498
		c-0.105,0.166-0.062,0.442,0.126,0.817c0.237,0.456,0.607,0.759,1.106,0.904c0.159,0.05,0.401,0.073,0.722,0.073
		c0.07-0.065,0.13-0.113,0.175-0.131c0.332-0.239,0.784-0.506,1.362-0.788l1.493-0.625l1.742,1.127
		c-0.339-0.042-0.874,0.109-1.575,0.459c-0.175,0.08-0.3,0.166-0.369,0.239c-1.041,0.738-1.631,1.175-1.742,1.308
		c-0.524,0.55-0.583,1.222-0.178,2.025c0.576,1.128,1.735,1.272,3.471,0.412c0.962-0.48,1.934-1.428,2.909-2.83
		C93.754,36.269,94.159,35.568,94.138,35.365z M94.344,25.135l-2.636,1.309l6.991,13.714l-2.291-0.347l-1.32-2.573
		c-0.158,0.477-0.687,1.207-1.58,2.212c-0.719,0.803-1.399,1.367-2.042,1.677c-1.06,0.528-2.331,0.633-3.835,0.329
		c-1.5-0.311-2.45-0.849-2.849-1.633c-0.427-0.839-0.434-1.635-0.022-2.394c0.08-0.119,0.188-0.264,0.34-0.448
		c-0.557-0.094-0.983-0.195-1.272-0.293c-0.91-0.322-1.494-0.741-1.75-1.247c-0.254-0.499-0.328-0.955-0.223-1.374
		c0.108-0.427,0.361-0.737,0.77-0.947l3.389-1.677l-0.885-1.728l-5.646,2.798l-0.695-1.367l14.86-7.371L94.344,25.135z"/>
	<path fill="none" stroke="#231F20" stroke-width="0.1019" d="M94.138,35.365L90.02,27.29l-3.575,1.768l1.576,3.097l-3.709,1.833
		c-0.318,0.162-0.534,0.326-0.632,0.498c-0.105,0.166-0.062,0.442,0.126,0.817c0.237,0.456,0.607,0.759,1.106,0.904
		c0.159,0.05,0.401,0.073,0.722,0.073c0.07-0.065,0.13-0.113,0.175-0.131c0.332-0.239,0.784-0.506,1.362-0.788l1.493-0.625
		l1.742,1.127c-0.339-0.042-0.874,0.109-1.575,0.459c-0.175,0.08-0.3,0.166-0.369,0.239c-1.041,0.738-1.631,1.175-1.742,1.308
		c-0.524,0.55-0.583,1.222-0.178,2.025c0.576,1.128,1.735,1.272,3.471,0.412c0.962-0.48,1.934-1.428,2.909-2.83
		C93.754,36.269,94.159,35.568,94.138,35.365z M94.344,25.135l-2.636,1.309l6.991,13.714l-2.291-0.347l-1.32-2.573
		c-0.158,0.477-0.687,1.207-1.58,2.212c-0.719,0.803-1.399,1.367-2.042,1.677c-1.06,0.528-2.331,0.633-3.835,0.329
		c-1.5-0.311-2.45-0.849-2.849-1.633c-0.427-0.839-0.434-1.635-0.022-2.394c0.08-0.119,0.188-0.264,0.34-0.448
		c-0.557-0.094-0.983-0.195-1.272-0.293c-0.91-0.322-1.494-0.741-1.75-1.247c-0.254-0.499-0.328-0.955-0.223-1.374
		c0.108-0.427,0.361-0.737,0.77-0.947l3.389-1.677l-0.885-1.728l-5.646,2.798l-0.695-1.367l14.86-7.371L94.344,25.135z"/>
	<polygon fill="#231F20" points="100.167,22.251 97.536,23.552 104.534,37.267 102.228,36.912 95.84,24.398 94.091,25.265 
		93.389,23.906 99.476,20.891 	"/>
	<polygon fill="none" stroke="#231F20" stroke-width="0.1019" points="100.167,22.251 97.536,23.552 104.534,37.267 102.228,36.912 
		95.84,24.398 94.091,25.265 93.389,23.906 99.476,20.891 	"/>
	<path fill="#231F20" d="M96.555,22.337l-0.635,0.318c-0.217-0.217-0.419-0.405-0.612-0.571c-1.13-0.961-2.57-1.944-4.328-2.956
		c-0.332-0.189-0.769-0.134-1.301,0.126c-0.18,0.116-0.325,0.202-0.434,0.257l-0.889,0.697l-1.59-1.38l1.604-0.803
		c0.339-0.166,0.745-0.261,1.2-0.289c0.455-0.029,0.918,0.112,1.388,0.408c1.25,0.803,2.588,1.771,4.019,2.899
		C95.4,21.398,95.926,21.824,96.555,22.337z"/>
	<path fill="none" stroke="#231F20" stroke-width="0.1019" d="M96.555,22.337l-0.635,0.318c-0.217-0.217-0.419-0.405-0.612-0.571
		c-1.13-0.961-2.57-1.944-4.328-2.956c-0.332-0.189-0.769-0.134-1.301,0.126c-0.18,0.116-0.325,0.202-0.434,0.257l-0.889,0.697
		l-1.59-1.38l1.604-0.803c0.339-0.166,0.745-0.261,1.2-0.289c0.455-0.029,0.918,0.112,1.388,0.408
		c1.25,0.803,2.588,1.771,4.019,2.899C95.4,21.398,95.926,21.824,96.555,22.337z"/>
	<polygon fill="#231F20" points="72.625,48.125 70.233,56.822 68.181,56.584 70.269,50.323 64.817,50.667 60.99,45.732 
		59.76,46.655 58.822,45.451 64.763,40.968 65.7,42.175 62.494,44.597 66.576,49.86 70.469,49.687 71.552,46.752 	"/>
	<polygon fill="none" stroke="#231F20" stroke-width="0.1019" points="72.625,48.125 70.233,56.822 68.181,56.584 70.269,50.323 
		64.817,50.667 60.99,45.732 59.76,46.655 58.822,45.451 64.763,40.968 65.7,42.175 62.494,44.597 66.576,49.86 70.469,49.687 
		71.552,46.752 	"/>
	<polygon fill="#231F20" points="70.909,38.25 68.566,40.014 78.026,52.206 75.699,52.282 67.063,41.153 65.501,42.334 
		64.561,41.119 69.976,37.043 	"/>
	<polygon fill="none" stroke="#231F20" stroke-width="0.1019" points="70.909,38.25 68.566,40.014 78.026,52.206 75.699,52.282 
		67.063,41.153 65.501,42.334 64.561,41.119 69.976,37.043 	"/>
	<polygon fill="#231F20" points="76.024,34.396 73.678,36.168 83.131,48.356 80.809,48.432 72.175,37.295 70.612,38.474 
		69.673,37.267 75.084,33.189 	"/>
	<polygon fill="none" stroke="#231F20" stroke-width="0.1019" points="76.024,34.396 73.678,36.168 83.131,48.356 80.809,48.432 
		72.175,37.295 70.612,38.474 69.673,37.267 75.084,33.189 	"/>
	<path fill="#231F20" d="M72.701,34.989l-0.573,0.427c-0.781-0.427-1.407-0.759-1.869-1.005c-1.373-0.723-2.618-1.359-3.727-1.89
		c-0.371-0.17-0.73-0.21-1.079-0.141c-0.347,0.068-0.652,0.235-0.919,0.484l-1.008,1.019l-2.108-1.019l2.053-1.554
		c0.23-0.17,0.506-0.289,0.816-0.347c0.319-0.054,0.6-0.043,0.847,0.029c0.715,0.268,2.198,1.019,4.439,2.241
		C70.309,33.637,71.346,34.215,72.701,34.989z M70.761,36.45l-0.547,0.412c-0.615-0.289-1.077-0.499-1.388-0.629
		c-0.965-0.383-1.58-0.556-1.85-0.521c-0.268,0.04-0.539,0.166-0.807,0.362c-0.299,0.231-0.531,0.462-0.683,0.694
		c-0.039,0.022-0.069,0.108-0.086,0.239l-1.779-1.02l1.028-0.774c0.223-0.166,0.576-0.318,1.047-0.451
		c0.471-0.134,1.453,0.101,2.949,0.712C69.131,35.676,69.836,35.994,70.761,36.45z"/>
	<path fill="none" stroke="#231F20" stroke-width="0.1019" d="M72.701,34.989l-0.573,0.427c-0.781-0.427-1.407-0.759-1.869-1.005
		c-1.373-0.723-2.618-1.359-3.727-1.89c-0.371-0.17-0.73-0.21-1.079-0.141c-0.347,0.068-0.652,0.235-0.919,0.484l-1.008,1.019
		l-2.108-1.019l2.053-1.554c0.23-0.17,0.506-0.289,0.816-0.347c0.319-0.054,0.6-0.043,0.847,0.029
		c0.715,0.268,2.198,1.019,4.439,2.241C70.309,33.637,71.346,34.215,72.701,34.989z M70.761,36.45l-0.547,0.412
		c-0.615-0.289-1.077-0.499-1.388-0.629c-0.965-0.383-1.58-0.556-1.85-0.521c-0.268,0.04-0.539,0.166-0.807,0.362
		c-0.299,0.231-0.531,0.462-0.683,0.694c-0.039,0.022-0.069,0.108-0.086,0.239l-1.779-1.02l1.028-0.774
		c0.223-0.166,0.576-0.318,1.047-0.451c0.471-0.134,1.453,0.101,2.949,0.712C69.131,35.676,69.836,35.994,70.761,36.45z"/>
	<path fill="#231F20" d="M56.012,64.125c0.011,0.571-0.022,1.019-0.098,1.359c-0.191,1.056-0.597,1.931-1.203,2.632
		c-1.279,1.467-3.086,1.93-5.408,1.388c-0.759-0.181-1.808-0.585-3.12-1.236c0.576-0.477,0.955-1.157,1.131-2.039
		c0.181-0.868,0.014-1.526-0.513-1.974c-0.774-0.654-1.471-1.045-2.092-1.16c-0.196-0.04-0.439-0.029-0.735,0.032l-2.386,2.729
		l-1.171-0.991l5.878-6.748l1.178,0.997l-3.127,3.583c0.395-0.159,1.067-0.141,2.014,0.061c0.738,0.159,1.359,0.441,1.836,0.853
		c0.774,0.658,1.142,1.475,1.103,2.457c-0.04,0.977-0.376,1.823-1.001,2.538c0.339,0.159,0.606,0.267,0.819,0.325
		c1.407,0.282,2.711-0.274,3.93-1.67c0.527-0.607,0.889-1.569,1.07-2.87c0.05-0.427,0.087-1.019,0.109-1.779L56.012,64.125z"/>
	<path fill="none" stroke="#231F20" stroke-width="0.1019" d="M56.012,64.125c0.011,0.571-0.022,1.019-0.098,1.359
		c-0.191,1.056-0.597,1.931-1.203,2.632c-1.279,1.467-3.086,1.93-5.408,1.388c-0.759-0.181-1.808-0.585-3.12-1.236
		c0.576-0.477,0.955-1.157,1.131-2.039c0.181-0.868,0.014-1.526-0.513-1.974c-0.774-0.654-1.471-1.045-2.092-1.16
		c-0.196-0.04-0.439-0.029-0.735,0.032l-2.386,2.729l-1.171-0.991l5.878-6.748l1.178,0.997l-3.127,3.583
		c0.395-0.159,1.067-0.141,2.014,0.061c0.738,0.159,1.359,0.441,1.836,0.853c0.774,0.658,1.142,1.475,1.103,2.457
		c-0.04,0.977-0.376,1.823-1.001,2.538c0.339,0.159,0.606,0.267,0.819,0.325c1.407,0.282,2.711-0.274,3.93-1.67
		c0.527-0.607,0.889-1.569,1.07-2.87c0.05-0.427,0.087-1.019,0.109-1.779L56.012,64.125z"/>
	<polygon fill="#231F20" points="51.682,54.292 49.759,56.497 61.558,66.503 59.295,67.052 48.518,57.914 47.237,59.381 
		46.064,58.391 50.511,53.302 	"/>
	<polygon fill="none" stroke="#231F20" stroke-width="0.1019" points="51.682,54.292 49.759,56.497 61.558,66.503 59.295,67.052 
		48.518,57.914 47.237,59.381 46.064,58.391 50.511,53.302 	"/>
	<path fill="#231F20" d="M37.855,80.326l-3.228,5.068c-0.293,0.467-0.355,1.03-0.177,1.717c0.173,0.68,0.614,1.229,1.301,1.656
		c1.222,0.752,2.826,1.099,4.829,1.023c1.67-0.047,2.618-0.199,2.842-0.459l0.007,0.849c-1.532,0.286-2.754,0.456-3.637,0.52
		c-2.717,0.171-4.763-0.17-6.144-1.019c-0.723-0.455-1.215-1.077-1.446-1.857c-0.234-0.795-0.13-1.54,0.322-2.241l3.904-6.142
		L37.855,80.326z M32.15,79.654l-4.677,7.345l-1.302-0.809l4.676-7.345L32.15,79.654z"/>
	<path fill="none" stroke="#231F20" stroke-width="0.1019" d="M37.855,80.326l-3.228,5.068c-0.293,0.467-0.355,1.03-0.177,1.717
		c0.173,0.68,0.614,1.229,1.301,1.656c1.222,0.752,2.826,1.099,4.829,1.023c1.67-0.047,2.618-0.199,2.842-0.459l0.007,0.849
		c-1.532,0.286-2.754,0.456-3.637,0.52c-2.717,0.171-4.763-0.17-6.144-1.019c-0.723-0.455-1.215-1.077-1.446-1.857
		c-0.234-0.795-0.13-1.54,0.322-2.241l3.904-6.142L37.855,80.326z M32.15,79.654l-4.677,7.345l-1.302-0.809l4.676-7.345
		L32.15,79.654z"/>
	<polygon fill="#231F20" points="35.642,74.167 34.074,76.628 47.253,84.787 45.102,85.665 33.065,78.215 32.021,79.856 
		30.716,79.053 34.334,73.36 	"/>
	<polygon fill="none" stroke="#231F20" stroke-width="0.1019" points="35.642,74.167 34.074,76.628 47.253,84.787 45.102,85.665 
		33.065,78.215 32.021,79.856 30.716,79.053 34.334,73.36 	"/>
	<path fill="#231F20" d="M39.248,68.499l-1.753,2.758l13.187,8.151l-2.159,0.875l-12.041-7.443l-1.041,1.642l-1.308-0.81
		l1.533-2.404c-1.432-0.242-2.546-0.355-3.348-0.347c-2.403,0.05-4.066,0.795-4.98,2.241c-0.442,0.68-0.499,1.352-0.189,2.025
		c0.235,0.506,0.701,0.976,1.389,1.395c0.621,0.39,1.394,0.571,2.312,0.543c0.296-0.022,0.688-0.08,1.172-0.181l-0.382,0.6
		c-0.174,0.144-0.738,0.217-1.693,0.217c-1.272-0.008-2.342-0.289-3.238-0.839c-0.788-0.485-1.28-1.055-1.483-1.714
		c-0.26-0.831-0.069-1.742,0.571-2.748c0.994-1.569,3.018-2.378,6.071-2.415c1.004-0.022,2.443,0.116,4.315,0.401l1.757-2.758
		L39.248,68.499z"/>
	<path fill="none" stroke="#231F20" stroke-width="0.1019" d="M39.248,68.499l-1.753,2.758l13.187,8.151l-2.159,0.875l-12.041-7.443
		l-1.041,1.642l-1.308-0.81l1.533-2.404c-1.432-0.242-2.546-0.355-3.348-0.347c-2.403,0.05-4.066,0.795-4.98,2.241
		c-0.442,0.68-0.499,1.352-0.189,2.025c0.235,0.506,0.701,0.976,1.389,1.395c0.621,0.39,1.394,0.571,2.312,0.543
		c0.296-0.022,0.688-0.08,1.172-0.181l-0.382,0.6c-0.174,0.144-0.738,0.217-1.693,0.217c-1.272-0.008-2.342-0.289-3.238-0.839
		c-0.788-0.485-1.28-1.055-1.483-1.714c-0.26-0.831-0.069-1.742,0.571-2.748c0.994-1.569,3.018-2.378,6.071-2.415
		c1.004-0.022,2.443,0.116,4.315,0.401l1.757-2.758L39.248,68.499z"/>
	<path fill="#231F20" d="M26.142,90.114l-1.731,3.76c0.144,0.014,0.506,0.101,1.063,0.253c0.563,0.144,1.136,0.355,1.72,0.615
		c1.692,0.767,2.806,1.771,3.334,3.008c0.368,0.897,0.441,2.017,0.201,3.376c0.637-0.123,1.137-0.217,1.511-0.289
		c1.074-0.217,2.021-0.43,2.853-0.625c1.999-0.528,3.294-0.97,3.871-1.324l0.358,0.936c-0.026,0.047-0.831,0.314-2.426,0.821
		c-1.965,0.622-3.636,1.059-5.005,1.305c-2.028,0.361-3.467,0.354-4.313-0.037c-0.654-0.296-0.839-0.745-0.549-1.366l1.345-2.914
		l-4.722-2.125l-2.625,5.668l-1.402-0.637l5.115-11.054L26.142,90.114z"/>
	<path fill="none" stroke="#231F20" stroke-width="0.1019" d="M26.142,90.114l-1.731,3.76c0.144,0.014,0.506,0.101,1.063,0.253
		c0.563,0.144,1.136,0.355,1.72,0.615c1.692,0.767,2.806,1.771,3.334,3.008c0.368,0.897,0.441,2.017,0.201,3.376
		c0.637-0.123,1.137-0.217,1.511-0.289c1.074-0.217,2.021-0.43,2.853-0.625c1.999-0.528,3.294-0.97,3.871-1.324l0.358,0.936
		c-0.026,0.047-0.831,0.314-2.426,0.821c-1.965,0.622-3.636,1.059-5.005,1.305c-2.028,0.361-3.467,0.354-4.313-0.037
		c-0.654-0.296-0.839-0.745-0.549-1.366l1.345-2.914l-4.722-2.125l-2.625,5.668l-1.402-0.637l5.115-11.054L26.142,90.114z"/>
	<path fill="#231F20" d="M16.398,116.697l-0.506,1.815l-1.657,0.177l0.673-2.389L16.398,116.697z M17.67,123.082l-3.152-0.857
		c-0.346-0.095-0.633-0.084-0.854,0.039c-0.216,0.123-0.397,0.42-0.527,0.889c-0.122,0.456-0.022,0.867,0.308,1.233
		c0.332,0.365,0.755,0.618,1.261,0.755c0.918,0.249,1.696-0.007,2.306-0.785C17.208,124.097,17.428,123.667,17.67,123.082z
		 M24.51,117.111l-1.587,5.671l2.392,0.647c0.211,0.066,0.283,0.21,0.213,0.463c-0.078,0.296-0.78,0.766-2.075,1.41
		c-1.293,0.65-2.146,0.918-2.537,0.813c-0.325-0.09-0.454-0.258-0.386-0.51l0.46-1.624l-2.745-0.744
		c0.033,0.25-0.149,0.719-0.535,1.395c-1.037,1.757-2.388,2.404-4.051,1.948c-1.46-0.39-1.919-1.547-1.388-3.456
		c0.181-0.636,0.622-1.203,1.327-1.702c0.82-0.557,1.601-0.741,2.339-0.539l5.501,1.496l1.584-5.675L24.51,117.111z"/>
	<path fill="none" stroke="#231F20" stroke-width="0.1019" d="M16.398,116.697l-0.506,1.815l-1.657,0.177l0.673-2.389
		L16.398,116.697z M17.67,123.082l-3.152-0.857c-0.346-0.095-0.633-0.084-0.854,0.039c-0.216,0.123-0.397,0.42-0.527,0.889
		c-0.122,0.456-0.022,0.867,0.308,1.233c0.332,0.365,0.755,0.618,1.261,0.755c0.918,0.249,1.696-0.007,2.306-0.785
		C17.208,124.097,17.428,123.667,17.67,123.082z M24.51,117.111l-1.587,5.671l2.392,0.647c0.211,0.066,0.283,0.21,0.213,0.463
		c-0.078,0.296-0.78,0.766-2.075,1.41c-1.293,0.65-2.146,0.918-2.537,0.813c-0.325-0.09-0.454-0.258-0.386-0.51l0.46-1.624
		l-2.745-0.744c0.033,0.25-0.149,0.719-0.535,1.395c-1.037,1.757-2.388,2.404-4.051,1.948c-1.46-0.39-1.919-1.547-1.388-3.456
		c0.181-0.636,0.622-1.203,1.327-1.702c0.82-0.557,1.601-0.741,2.339-0.539l5.501,1.496l1.584-5.675L24.51,117.111z"/>
	<polygon fill="#231F20" points="18.118,110.52 17.341,113.325 32.346,117.399 30.539,118.852 16.836,115.129 16.312,117.002 
		14.822,116.593 16.632,110.122 	"/>
	<polygon fill="none" stroke="#231F20" stroke-width="0.1019" points="18.118,110.52 17.341,113.325 32.346,117.399 30.539,118.852 
		16.836,115.129 16.312,117.002 14.822,116.593 16.632,110.122 	"/>
	<polygon fill="#231F20" points="19.828,104.407 19.044,107.213 34.052,111.279 32.241,112.729 18.538,109.016 18.021,110.881 
		16.532,110.48 18.339,104.002 	"/>
	<polygon fill="none" stroke="#231F20" stroke-width="0.1019" points="19.828,104.407 19.044,107.213 34.052,111.279 
		32.241,112.729 18.538,109.016 18.021,110.881 16.532,110.48 18.339,104.002 	"/>
	<path fill="#231F20" d="M199.237,30.561c-0.069-0.004-0.487-0.13-1.232-0.365c-0.753-0.246-1.323-0.455-1.714-0.628
		c-0.509-0.224-1.087-0.759-1.76-1.627c-0.214-0.275-0.502-0.701-0.878-1.28c-0.181,0.181-0.34,0.319-0.46,0.42
		c-0.372,0.303-0.754,0.506-1.153,0.618c-0.397,0.104-0.859,0.184-1.38,0.242c-0.065-0.01-0.181-0.007-0.313,0.011
		c0.053,0.567,0.107,1.016,0.168,1.356c0.166,1.13,0.333,2.023,0.5,2.667c0.162,0.637,0.39,1.374,0.672,2.195
		c0.145,0.43,0.304,0.857,0.477,1.298l-1.027,0.086c-0.043-0.022-0.237-0.759-0.567-2.22c-0.437-1.865-0.733-3.408-0.878-4.637
		c-0.239-1.854-0.199-3.123,0.118-3.807c0.192-0.434,0.463-0.564,0.807-0.419l1.826,0.81l2.067-4.544l-3.456-1.529l0.633-1.387
		l9.286,4.106l-0.629,1.395l-4.171-1.847c-0.073,0.202-0.123,0.372-0.159,0.502c-0.299,1.005-0.514,1.656-0.65,1.96
		c-0.247,0.534-0.465,0.976-0.672,1.319c-0.204,0.347-0.399,0.661-0.594,0.936c0.22,0.329,0.409,0.578,0.571,0.748
		c0.51,0.59,1.027,1.001,1.529,1.218c0.589,0.267,1.236,0.427,1.93,0.485c0.695,0.057,1.373,0.022,2.032-0.101L199.237,30.561z"/>
	<path fill="none" stroke="#231F20" stroke-width="0.1019" d="M199.237,30.561c-0.069-0.004-0.487-0.13-1.232-0.365
		c-0.753-0.246-1.323-0.455-1.714-0.628c-0.509-0.224-1.087-0.759-1.76-1.627c-0.214-0.275-0.502-0.701-0.878-1.28
		c-0.181,0.181-0.34,0.319-0.46,0.42c-0.372,0.303-0.754,0.506-1.153,0.618c-0.397,0.104-0.859,0.184-1.38,0.242
		c-0.065-0.01-0.181-0.007-0.313,0.011c0.053,0.567,0.107,1.016,0.168,1.356c0.166,1.13,0.333,2.023,0.5,2.667
		c0.162,0.637,0.39,1.374,0.672,2.195c0.145,0.43,0.304,0.857,0.477,1.298l-1.027,0.086c-0.043-0.022-0.237-0.759-0.567-2.22
		c-0.437-1.865-0.733-3.408-0.878-4.637c-0.239-1.854-0.199-3.123,0.118-3.807c0.192-0.434,0.463-0.564,0.807-0.419l1.826,0.81
		l2.067-4.544l-3.456-1.529l0.633-1.387l9.286,4.106l-0.629,1.395l-4.171-1.847c-0.073,0.202-0.123,0.372-0.159,0.502
		c-0.299,1.005-0.514,1.656-0.65,1.96c-0.247,0.534-0.465,0.976-0.672,1.319c-0.204,0.347-0.399,0.661-0.594,0.936
		c0.22,0.329,0.409,0.578,0.571,0.748c0.51,0.59,1.027,1.001,1.529,1.218c0.589,0.267,1.236,0.427,1.93,0.485
		c0.695,0.057,1.373,0.022,2.032-0.101L199.237,30.561z"/>
	<path fill="#231F20" d="M209.161,27.225l-0.98-0.434l0.073-1.634l1.539,0.679L209.161,27.225z M205.726,27.182
		c0.246-0.543,0.322-1.092,0.243-1.649c-0.087-0.564-0.376-0.947-0.853-1.164c-1.137-0.499-1.993-0.094-2.589,1.2
		c-0.268,0.593-0.214,1.222,0.163,1.894c0.368,0.673,0.855,1.143,1.466,1.41c0.199-0.037,0.361-0.094,0.477-0.174
		C205.025,28.432,205.386,27.926,205.726,27.182z M206.594,37.021c-0.639,0.181-1.163,0.296-1.568,0.34
		c-1.309,0.144-2.495-0.022-3.564-0.492c-1.772-0.788-2.748-2.393-2.922-4.822c-0.058-0.795,0.022-1.952,0.237-3.459
		c0.367,0.17,0.623,0.271,0.775,0.311c0.134,0.032,0.44,0.104,0.896,0.206c0.882,0.159,1.628,0.217,2.228,0.173
		c0.193-0.021,0.397-0.058,0.606-0.123c-0.708-0.622-1.221-1.135-1.515-1.518c-0.925-1.265-1.149-2.433-0.658-3.507
		c0.29-0.643,0.795-1.062,1.49-1.25c0.705-0.195,1.535-0.08,2.497,0.34c0.827,0.376,1.384,1.063,1.673,2.083
		c0.279,1.012,0.177,2.053-0.3,3.101c-0.817,1.8-2.223,2.783-4.214,2.928c-0.652,0.044-1.577-0.058-2.771-0.332
		c-0.068,0.664-0.058,1.193,0.033,1.561c0.294,1.161,1.084,2.039,2.405,2.61c0.874,0.39,1.829,0.542,2.855,0.462
		c1.252-0.087,2.183-0.347,2.798-0.759L206.594,37.021z"/>
	<path fill="none" stroke="#231F20" stroke-width="0.1019" d="M209.161,27.225l-0.98-0.434l0.073-1.634l1.539,0.679L209.161,27.225z
		 M205.726,27.182c0.246-0.543,0.322-1.092,0.243-1.649c-0.087-0.564-0.376-0.947-0.853-1.164c-1.137-0.499-1.993-0.094-2.589,1.2
		c-0.268,0.593-0.214,1.222,0.163,1.894c0.368,0.673,0.855,1.143,1.466,1.41c0.199-0.037,0.361-0.094,0.477-0.174
		C205.025,28.432,205.386,27.926,205.726,27.182z M206.594,37.021c-0.639,0.181-1.163,0.296-1.568,0.34
		c-1.309,0.144-2.495-0.022-3.564-0.492c-1.772-0.788-2.748-2.393-2.922-4.822c-0.058-0.795,0.022-1.952,0.237-3.459
		c0.367,0.17,0.623,0.271,0.775,0.311c0.134,0.032,0.44,0.104,0.896,0.206c0.882,0.159,1.628,0.217,2.228,0.173
		c0.193-0.021,0.397-0.058,0.606-0.123c-0.708-0.622-1.221-1.135-1.515-1.518c-0.925-1.265-1.149-2.433-0.658-3.507
		c0.29-0.643,0.795-1.062,1.49-1.25c0.705-0.195,1.535-0.08,2.497,0.34c0.827,0.376,1.384,1.063,1.673,2.083
		c0.279,1.012,0.177,2.053-0.3,3.101c-0.817,1.8-2.223,2.783-4.214,2.928c-0.652,0.044-1.577-0.058-2.771-0.332
		c-0.068,0.664-0.058,1.193,0.033,1.561c0.294,1.161,1.084,2.039,2.405,2.61c0.874,0.39,1.829,0.542,2.855,0.462
		c1.252-0.087,2.183-0.347,2.798-0.759L206.594,37.021z"/>
	<polygon fill="#231F20" points="215.1,29.853 212.41,28.667 206.03,42.667 204.859,40.686 210.686,27.897 208.891,27.101 
		209.518,25.721 215.732,28.472 	"/>
	<polygon fill="none" stroke="#231F20" stroke-width="0.1019" points="215.1,29.853 212.41,28.667 206.03,42.667 204.859,40.686 
		210.686,27.897 208.891,27.101 209.518,25.721 215.732,28.472 	"/>
	<polygon fill="#231F20" points="220.967,32.455 218.276,31.259 211.896,45.259 210.723,43.285 216.548,30.496 214.76,29.701 
		215.389,28.312 221.602,31.068 	"/>
	<polygon fill="none" stroke="#231F20" stroke-width="0.1019" points="220.967,32.455 218.276,31.259 211.896,45.259 
		210.723,43.285 216.548,30.496 214.76,29.701 215.389,28.312 221.602,31.068 	"/>
	<path fill="#231F20" d="M230.436,46.636l-4.937-3.615l-1.749,2.328c-0.174,0.231-0.37,0.261-0.608,0.087
		c-0.362-0.265-0.534-1.089-0.516-2.469c0.01-1.389,0.213-2.32,0.578-2.816c0.224-0.297,0.504-0.325,0.836-0.094l7.319,5.35
		L230.436,46.636z M232.541,40.332l-6.904-5.046l0.922-1.221l6.901,5.039L232.541,40.332z"/>
	<path fill="none" stroke="#231F20" stroke-width="0.1019" d="M230.436,46.636l-4.937-3.615l-1.749,2.328
		c-0.174,0.231-0.37,0.261-0.608,0.087c-0.362-0.265-0.534-1.089-0.516-2.469c0.01-1.389,0.213-2.32,0.578-2.816
		c0.224-0.297,0.504-0.325,0.836-0.094l7.319,5.35L230.436,46.636z M232.541,40.332l-6.904-5.046l0.922-1.221l6.901,5.039
		L232.541,40.332z"/>
	<polygon fill="#231F20" points="237.8,44.181 235.44,42.45 226.171,54.784 225.456,52.594 233.915,41.333 232.337,40.18 
		233.26,38.965 238.721,42.956 	"/>
	<polygon fill="none" stroke="#231F20" stroke-width="0.1019" points="237.8,44.181 235.44,42.45 226.171,54.784 225.456,52.594 
		233.915,41.333 232.337,40.18 233.26,38.965 238.721,42.956 	"/>
	<path fill="#231F20" d="M252.888,59.967l-2.256-2.473l-6.943,6.131c-0.206,0.184-0.446,0.144-0.705-0.138
		c-0.178-0.199-0.267-0.983-0.254-2.371c0.011-1.385,0.116-2.176,0.336-2.361c0.047-0.044,0.148-0.077,0.297-0.091
		c0.141-0.014,0.26,0.022,0.336,0.108l1.178,1.291l4.505-3.965l-2.676-2.943l1.151-1.019l6.176,6.818L252.888,59.967z"/>
	<path fill="none" stroke="#231F20" stroke-width="0.1019" d="M252.888,59.967l-2.256-2.473l-6.943,6.131
		c-0.206,0.184-0.446,0.144-0.705-0.138c-0.178-0.199-0.267-0.983-0.254-2.371c0.011-1.385,0.116-2.176,0.336-2.361
		c0.047-0.044,0.148-0.077,0.297-0.091c0.141-0.014,0.26,0.022,0.336,0.108l1.178,1.291l4.505-3.965l-2.676-2.943l1.151-1.019
		l6.176,6.818L252.888,59.967z"/>
	<polygon fill="#231F20" points="257.277,64.627 255.31,62.458 244.599,71.921 244.264,69.705 254.044,61.073 252.737,59.627 
		253.795,58.688 258.34,63.691 	"/>
	<polygon fill="none" stroke="#231F20" stroke-width="0.1019" points="257.277,64.627 255.31,62.458 244.599,71.921 244.264,69.705 
		254.044,61.073 252.737,59.627 253.795,58.688 258.34,63.691 	"/>
	<path fill="#231F20" d="M244.723,74.467c-0.833,0.748-1.753,0.914-2.756,0.531c-0.802-0.304-1.626-0.929-2.478-1.872
		c-0.883-0.961-1.469-2.1-1.769-3.398c-0.368-1.677-0.382-2.888-0.022-3.654l0.722,0.072c-0.238,0.47-0.187,1.341,0.171,2.613
		c0.3,1.07,0.781,1.962,1.436,2.679c0.833,0.915,1.644,1.468,2.439,1.641c0.807,0.192,1.483,0.026,2.047-0.467
		c0.261-0.224,0.39-0.488,0.419-0.788c0.021-0.307-0.175-0.672-0.58-1.113c-0.401-0.445-1.001-0.698-1.811-0.781
		c-0.657-0.047-1.084-0.026-1.272,0.08l0.535-2.096c0.353,0.072,0.702,0.137,1.034,0.195c0.695,0.21,1.258,0.56,1.692,1.03
		c0.759,0.835,1.146,1.782,1.167,2.852C245.72,73.053,245.391,73.877,244.723,74.467z"/>
	<path fill="none" stroke="#231F20" stroke-width="0.1019" d="M244.723,74.467c-0.833,0.748-1.753,0.914-2.756,0.531
		c-0.802-0.304-1.626-0.929-2.478-1.872c-0.883-0.961-1.469-2.1-1.769-3.398c-0.368-1.677-0.382-2.888-0.022-3.654l0.722,0.072
		c-0.238,0.47-0.187,1.341,0.171,2.613c0.3,1.07,0.781,1.962,1.436,2.679c0.833,0.915,1.644,1.468,2.439,1.641
		c0.807,0.192,1.483,0.026,2.047-0.467c0.261-0.224,0.39-0.488,0.419-0.788c0.021-0.307-0.175-0.672-0.58-1.113
		c-0.401-0.445-1.001-0.698-1.811-0.781c-0.657-0.047-1.084-0.026-1.272,0.08l0.535-2.096c0.353,0.072,0.702,0.137,1.034,0.195
		c0.695,0.21,1.258,0.56,1.692,1.03c0.759,0.835,1.146,1.782,1.167,2.852C245.72,73.053,245.391,73.877,244.723,74.467z"/>
	<path fill="#231F20" d="M256.405,80.915c-0.543-0.209-0.958-0.405-1.252-0.586c-0.932-0.516-1.607-1.102-2.038-1.724
		c-0.752-1.107-0.961-2.379-0.636-3.824c0.329-1.454,1.005-2.509,2.025-3.189c1.058-0.704,2.14-0.763,3.225-0.17
		c0.852,0.456,1.694,1.291,2.515,2.495l0.56,0.824l-1.11,1.937c-0.101-0.246-0.218-0.499-0.349-0.759
		c-0.135-0.253-0.28-0.514-0.459-0.773c-1.503-2.205-2.982-2.813-4.439-1.848c-0.68,0.449-1.049,0.991-1.091,1.612
		c-0.062,0.622,0.101,1.215,0.484,1.764c0.694,1.034,1.633,1.832,2.786,2.418c0.893,0.434,1.457,0.622,1.696,0.557L256.405,80.915z
		 M263.881,73.902l-4.768-6.961l1.279-0.853l4.769,6.961L263.881,73.902z"/>
	<path fill="none" stroke="#231F20" stroke-width="0.1019" d="M256.405,80.915c-0.543-0.209-0.958-0.405-1.252-0.586
		c-0.932-0.516-1.607-1.102-2.038-1.724c-0.752-1.107-0.961-2.379-0.636-3.824c0.329-1.454,1.005-2.509,2.025-3.189
		c1.058-0.704,2.14-0.763,3.225-0.17c0.852,0.456,1.694,1.291,2.515,2.495l0.56,0.824l-1.11,1.937
		c-0.101-0.246-0.218-0.499-0.349-0.759c-0.135-0.253-0.28-0.514-0.459-0.773c-1.503-2.205-2.982-2.813-4.439-1.848
		c-0.68,0.449-1.049,0.991-1.091,1.612c-0.062,0.622,0.101,1.215,0.484,1.764c0.694,1.034,1.633,1.832,2.786,2.418
		c0.893,0.434,1.457,0.622,1.696,0.557L256.405,80.915z M263.881,73.902l-4.768-6.961l1.279-0.853l4.769,6.961L263.881,73.902z"/>
	<polygon fill="#231F20" points="267.517,79.234 265.876,76.823 252.957,85.401 253.022,83.109 264.813,75.276 263.717,73.671 
		264.997,72.821 268.792,78.381 	"/>
	<polygon fill="none" stroke="#231F20" stroke-width="0.1019" points="267.517,79.234 265.876,76.823 252.957,85.401 
		253.022,83.109 264.813,75.276 263.717,73.671 264.997,72.821 268.792,78.381 	"/>
	<polygon fill="#231F20" points="271.11,84.497 269.461,82.083 256.549,90.661 256.615,88.361 268.409,80.535 267.307,78.931 
		268.59,78.078 272.39,83.644 	"/>
	<polygon fill="none" stroke="#231F20" stroke-width="0.1019" points="271.11,84.497 269.461,82.083 256.549,90.661 256.615,88.361 
		268.409,80.535 267.307,78.931 268.59,78.078 272.39,83.644 	"/>
	<path fill="#231F20" d="M278.184,99.405l-1.628-3.5l-3.564,1.613l-2.53-5.458c-0.267-0.564-0.693-0.701-1.315-0.427
		c-0.325,0.145-0.571,0.477-0.722,0.99c-0.062,0.152-0.108,0.398-0.137,0.716c0.177,0.18,0.331,0.346,0.45,0.498
		c0.38,0.477,0.728,1.063,1.046,1.75c0.526,1.135,0.621,2.292,0.303,3.47c-0.281,1.084-0.795,1.786-1.539,2.126
		c-0.903,0.412-1.851,0.365-2.823-0.156c-0.316-0.17-0.705-0.47-1.172-0.911l1.176-2.226c0.353,0.655,0.627,1.117,0.845,1.402
		c0.698,0.879,1.338,1.19,1.924,0.93c0.43-0.196,0.674-0.586,0.719-1.179c0.035-0.585-0.119-1.265-0.482-2.038
		c-0.542-1.178-1.205-1.974-1.984-2.375c-0.791-0.419-1.609-0.426-2.461-0.047c-1.157,0.525-1.768,1.902-1.808,4.135
		c-0.057,1.998,0.058,3.105,0.348,3.315l-0.644-0.174c-0.321-1.786-0.477-3.145-0.462-4.096c0.035-2.884,0.904-4.71,2.609-5.483
		c0.63-0.282,1.374-0.271,2.235,0.043c0.282,0.08,0.642,0.271,1.093,0.553c0.135-0.499,0.265-0.882,0.38-1.143
		c0.38-0.817,0.9-1.381,1.558-1.677c0.528-0.232,0.991-0.275,1.381-0.13c0.405,0.144,0.708,0.441,0.911,0.889l2.09,4.504l1.911-0.86
		l-3.416-7.367l1.414-0.628l5.704,12.312L278.184,99.405z"/>
	<path fill="none" stroke="#231F20" stroke-width="0.1019" d="M278.184,99.405l-1.628-3.5l-3.564,1.613l-2.53-5.458
		c-0.267-0.564-0.693-0.701-1.315-0.427c-0.325,0.145-0.571,0.477-0.722,0.99c-0.062,0.152-0.108,0.398-0.137,0.716
		c0.177,0.18,0.331,0.346,0.45,0.498c0.38,0.477,0.728,1.063,1.046,1.75c0.526,1.135,0.621,2.292,0.303,3.47
		c-0.281,1.084-0.795,1.786-1.539,2.126c-0.903,0.412-1.851,0.365-2.823-0.156c-0.316-0.17-0.705-0.47-1.172-0.911l1.176-2.226
		c0.353,0.655,0.627,1.117,0.845,1.402c0.698,0.879,1.338,1.19,1.924,0.93c0.43-0.196,0.674-0.586,0.719-1.179
		c0.035-0.585-0.119-1.265-0.482-2.038c-0.542-1.178-1.205-1.974-1.984-2.375c-0.791-0.419-1.609-0.426-2.461-0.047
		c-1.157,0.525-1.768,1.902-1.808,4.135c-0.057,1.998,0.058,3.105,0.348,3.315l-0.644-0.174c-0.321-1.786-0.477-3.145-0.462-4.096
		c0.035-2.884,0.904-4.71,2.609-5.483c0.63-0.282,1.374-0.271,2.235,0.043c0.282,0.08,0.642,0.271,1.093,0.553
		c0.135-0.499,0.265-0.882,0.38-1.143c0.38-0.817,0.9-1.381,1.558-1.677c0.528-0.232,0.991-0.275,1.381-0.13
		c0.405,0.144,0.708,0.441,0.911,0.889l2.09,4.504l1.911-0.86l-3.416-7.367l1.414-0.628l5.704,12.312L278.184,99.405z"/>
	<polygon fill="#231F20" points="280.885,105.254 279.666,102.608 265.504,108.98 265.944,106.732 278.879,100.908 278.062,99.144 
		279.467,98.516 282.294,104.624 	"/>
	<polygon fill="none" stroke="#231F20" stroke-width="0.1019" points="280.885,105.254 279.666,102.608 265.504,108.98 
		265.944,106.732 278.879,100.908 278.062,99.144 279.467,98.516 282.294,104.624 	"/>
	<path fill="#231F20" d="M285.579,122.138l-0.893-3.474l-4.2,1.066c-0.339,0.08-1.287-1.027-2.82-3.326
		c-1.535-2.303-2.776-3.344-3.726-3.098c-1.127,0.289-1.835,0.961-2.092,2.024c-0.21,0.832-0.167,1.8,0.119,2.9
		c0.228,0.867,0.596,1.677,1.116,2.422c0.689,0.976,1.248,1.554,1.7,1.728l-1.799,1.454c-0.42-0.369-0.883-0.954-1.382-1.757
		c-0.513-0.817-0.849-1.547-1.023-2.22c-0.42-1.598-0.306-3.152,0.343-4.655c0.755-1.808,2.108-2.95,4.059-3.442
		c1.013-0.26,2.231,0.673,3.644,2.791c1.42,2.119,2.307,3.134,2.675,3.044l2.917-0.737l-2.193-8.452l1.496-0.383l3.567,13.74
		L285.579,122.138z"/>
	<path fill="none" stroke="#231F20" stroke-width="0.1019" d="M285.579,122.138l-0.893-3.474l-4.2,1.066
		c-0.339,0.08-1.287-1.027-2.82-3.326c-1.535-2.303-2.776-3.344-3.726-3.098c-1.127,0.289-1.835,0.961-2.092,2.024
		c-0.21,0.832-0.167,1.8,0.119,2.9c0.228,0.867,0.596,1.677,1.116,2.422c0.689,0.976,1.248,1.554,1.7,1.728l-1.799,1.454
		c-0.42-0.369-0.883-0.954-1.382-1.757c-0.513-0.817-0.849-1.547-1.023-2.22c-0.42-1.598-0.306-3.152,0.343-4.655
		c0.755-1.808,2.108-2.95,4.059-3.442c1.013-0.26,2.231,0.673,3.644,2.791c1.42,2.119,2.307,3.134,2.675,3.044l2.917-0.737
		l-2.193-8.452l1.496-0.383l3.567,13.74L285.579,122.138z"/>
	<path fill="#231F20" d="M287.298,128.735l-0.821-3.152l-15.069,3.81l0.838-2.14l13.769-3.478l-0.491-1.872l1.493-0.383l0.718,2.747
		c1.16-0.853,2.021-1.569,2.559-2.147c1.625-1.75,2.216-3.456,1.793-5.104c-0.198-0.781-0.658-1.287-1.363-1.525
		c-0.53-0.181-1.2-0.174-1.988,0.028c-0.709,0.181-1.373,0.607-1.984,1.287c-0.196,0.217-0.416,0.542-0.676,0.947l-0.178-0.683
		c0.011-0.213,0.352-0.668,1.008-1.349c0.876-0.911,1.812-1.492,2.837-1.749c0.904-0.225,1.656-0.181,2.277,0.122
		c0.802,0.398,1.342,1.15,1.638,2.299c0.471,1.8-0.333,3.803-2.405,6.008c-0.676,0.731-1.774,1.67-3.276,2.805l0.823,3.155
		L287.298,128.735z"/>
	<path fill="none" stroke="#231F20" stroke-width="0.1019" d="M287.298,128.735l-0.821-3.152l-15.069,3.81l0.838-2.14l13.769-3.478
		l-0.491-1.872l1.493-0.383l0.718,2.747c1.16-0.853,2.021-1.569,2.559-2.147c1.625-1.75,2.216-3.456,1.793-5.104
		c-0.198-0.781-0.658-1.287-1.363-1.525c-0.53-0.181-1.2-0.174-1.988,0.028c-0.709,0.181-1.373,0.607-1.984,1.287
		c-0.196,0.217-0.416,0.542-0.676,0.947l-0.178-0.683c0.011-0.213,0.352-0.668,1.008-1.349c0.876-0.911,1.812-1.492,2.837-1.749
		c0.904-0.225,1.656-0.181,2.277,0.122c0.802,0.398,1.342,1.15,1.638,2.299c0.471,1.8-0.333,3.803-2.405,6.008
		c-0.676,0.731-1.774,1.67-3.276,2.805l0.823,3.155L287.298,128.735z"/>
	<rect x="0.041" y="-0.002" fill="none" width="297.324" height="299.825"/>
</g>
</svg>
