<svg xmlns="http://www.w3.org/2000/svg" xml:space="preserve" width="337.66666" height="337.668" viewBox="0 0 337.66666 337.668"><defs><clipPath id="a" clipPathUnits="userSpaceOnUse"><path d="M0 283.465h276.466V0H0Z"/></clipPath></defs><g clip-path="url(#a)" transform="matrix(1.33333 0 0 -1.33333 -15.477 357.81)"><path d="M0 0c-54.087 0-97.934 43.846-97.934 97.934 0 54.087 43.847 97.933 97.934 97.933 54.087 0 97.934-43.846 97.934-97.933C97.934 43.846 54.087 0 0 0m0 224.559c-69.933 0-126.625-56.692-126.625-126.625C-126.625 28-69.933-28.692 0-28.692c69.933 0 126.625 56.692 126.625 126.626 0 69.933-56.692 126.625-126.625 126.625" style="fill:#004387;fill-opacity:1;fill-rule:nonzero;stroke:none" transform="translate(138.233 43.799)"/><path d="M0 0c0-52.052-42.197-94.249-94.249-94.249-52.052 0-94.248 42.197-94.248 94.249 0 52.052 42.196 94.249 94.248 94.249C-42.197 94.249 0 52.052 0 0" style="fill:#a6165f;fill-opacity:1;fill-rule:nonzero;stroke:none" transform="translate(232.482 141.732)"/><path d="M0 0c-1.44-2.007-1.994-3.264-2.099-4.329-.328 1.025-1.129 2.115-2.84 3.987-1.616 1.767-3.751 2.983-6.029 3.672a10.22 10.22 0 0 1 2.86-6.212C-6.399-4.64-4.211-5.699-1.887-6.11c2.141.984 4.029 2.451 5.4 4.28C4.889.003 5.575 1.949 5.642 3.872 3.417 3.154 1.357 1.89 0 0" style="fill:#fff;fill-opacity:1;fill-rule:nonzero;stroke:none" transform="translate(28.919 134.065)"/><path d="M0 0c-.579-2.383-.603-3.739-.318-4.774-.674.839-1.849 1.544-4.152 2.644-2.15 1.052-4.583 1.398-6.953 1.202 1.022-2.014 2.687-3.727 4.971-4.707 2.255-.998 4.666-1.188 6.965-.727 1.646 1.707 2.878 3.77 3.462 5.964.55 2.182.505 4.263-.147 6.073C2.021 4.189.569 2.257 0 0" style="fill:#fff;fill-opacity:1;fill-rule:nonzero;stroke:none" transform="translate(39.259 94.462)"/><path d="M0 0c-.364-2.433-.316-3.821.047-4.835-.732.782-1.912 1.409-4.298 2.296a12.16 12.16 0 0 1-3.518.725A14.344 14.344 0 0 1-11.299-2c.558-.979 1.345-1.827 2.267-2.537a10.94 10.94 0 0 1 3.102-1.7c1.153-.402 2.306-.613 3.493-.61 1.196.008 2.375.197 3.509.541.729.92 1.341 1.917 1.813 2.958.48 1.048.87 2.173 1.074 3.304.209 1.134.241 2.21.109 3.213-.14 1-.434 1.932-.799 2.829-.834-.827-1.585-1.764-2.156-2.773A9.641 9.641 0 0 1 0 0" style="fill:#fff;fill-opacity:1;fill-rule:nonzero;stroke:none" transform="translate(44.202 85.33)"/><path d="M0 0c-.129-1.254-.102-2.193-.01-2.952.091-.761.254-1.339.489-1.821-.408.349-.928.654-1.657.951-.732.296-1.678.58-2.862.96-2.265.693-4.739.609-7.048.009a11.03 11.03 0 0 1 2.454-2.361c.939-.661 1.992-1.182 3.211-1.464 2.4-.594 4.813-.364 7 .487C2.903-4.228 3.758-1.987 3.952.268c.077 1.114.055 2.21-.126 3.22a8.45 8.45 0 0 1-1.01 2.761C1.295 4.483.21 2.344 0 0" style="fill:#fff;fill-opacity:1;fill-rule:nonzero;stroke:none" transform="translate(49.965 76.625)"/><path d="M0 0c.064-2.456.352-3.814.886-4.749-.857.644-2.128 1.055-4.635 1.515-1.18.222-2.404.233-3.587.112a14.046 14.046 0 0 1-3.444-.787 11.11 11.11 0 0 1 1.208-1.188 10.986 10.986 0 0 1 4.811-2.067 10.646 10.646 0 0 1 3.544-.001c1.177.215 2.306.606 3.363 1.14a14.217 14.217 0 0 1 1.273 3.228c.303 1.124.484 2.291.491 3.44.009 1.152-.146 2.215-.45 3.179a9.254 9.254 0 0 1-.563 1.373 8.263 8.263 0 0 1-.701 1.279 13.156 13.156 0 0 1-1.65-3.103A9.362 9.362 0 0 1 0 0" style="fill:#fff;fill-opacity:1;fill-rule:nonzero;stroke:none" transform="translate(56.525 68.56)"/><path d="M0 0c.125-1.254.342-2.165.583-2.893.241-.728.516-1.262.843-1.687-.47.261-1.04.455-1.813.601-.774.146-1.762.23-2.998.366-2.358.225-4.766-.353-6.909-1.404a11.041 11.041 0 0 1 2.879-1.821 9.072 9.072 0 0 1 3.442-.789c2.469-.103 4.785.605 6.758 1.876.905 2.19 1.295 4.558 1.035 6.807-.148 1.108-.392 2.173-.771 3.128a8.458 8.458 0 0 1-1.542 2.501C.37 4.65-.264 2.338 0 0" style="fill:#fff;fill-opacity:1;fill-rule:nonzero;stroke:none" transform="translate(63.784 61.16)"/><path d="M0 0c.521-2.402 1.052-3.69 1.757-4.502-.967.465-2.288.639-4.835.624a12.165 12.165 0 0 1-3.547-.567A14.016 14.016 0 0 1-9.86-5.861c.445-.347.91-.67 1.412-.937a11.068 11.068 0 0 1 5.109-1.134c2.413.024 4.701.971 6.576 2.417.711 2.239.869 4.578.481 6.874-.206 1.135-.556 2.152-1.034 3.044-.239.446-.51.861-.811 1.243a9.38 9.38 0 0 1-.931 1.122A13.131 13.131 0 0 1-.099 3.41 9.614 9.614 0 0 1 0 0" style="fill:#fff;fill-opacity:1;fill-rule:nonzero;stroke:none" transform="translate(71.797 54.442)"/><path d="M0 0c-.044-2.271.742-4.389 2.099-6.072C3.315-4.282 4.028-2.255 4.07-.077c.041 2.179-.595 4.231-1.746 6.066C.908 4.358.042 2.271 0 0" style="fill:#fff;fill-opacity:1;fill-rule:nonzero;stroke:none" transform="translate(24.099 143.715)"/><path d="M0 0c-1.245-2.133-1.679-3.436-1.683-4.507-.423.99-1.323 2-3.202 3.702C-6.66.803-8.9 1.813-11.232 2.285A10.214 10.214 0 0 1-7.801-3.63c1.866-1.59 4.144-2.439 6.497-2.63C.734-5.08 2.477-3.442 3.669-1.492 4.867.463 5.367 2.465 5.253 4.385 3.105 3.461 1.174 2.01 0 0" style="fill:#fff;fill-opacity:1;fill-rule:nonzero;stroke:none" transform="translate(30.085 123.83)"/><path d="M0 0c-1.04-2.24-1.349-3.579-1.253-4.645-.514.946-1.504 1.867-3.535 3.386-1.917 1.434-4.243 2.23-6.609 2.48a10.212 10.212 0 0 1 3.971-5.567c2.007-1.408 4.354-2.039 6.714-2.009 1.919 1.366 3.5 3.161 4.505 5.214C4.802.917 5.112 2.957 4.819 4.858 2.767 3.737.98 2.111 0 0" style="fill:#fff;fill-opacity:1;fill-rule:nonzero;stroke:none" transform="translate(32.203 113.784)"/><path d="M0 0c-.826-2.328-1.009-3.689-.813-4.742-.601.894-1.673 1.719-3.837 3.041C-6.692-.453-9.082.122-11.461.15a10.215 10.215 0 0 1 4.474-5.171c2.13-1.214 4.526-1.623 6.873-1.373C1.668-4.854 3.075-2.92 3.883-.781c.812 2.143.93 4.203.461 6.069C2.406 3.979.778 2.193 0 0" style="fill:#fff;fill-opacity:1;fill-rule:nonzero;stroke:none" transform="translate(35.246 104.017)"/><path d="M0 0c1.44-2.007 1.994-3.264 2.099-4.329.328 1.025 1.129 2.115 2.84 3.987C6.555 1.425 8.69 2.641 10.968 3.33a10.22 10.22 0 0 0-2.86-6.212C6.399-4.64 4.211-5.699 1.887-6.11c-2.141.984-4.029 2.451-5.399 4.28-1.377 1.833-2.063 3.779-2.13 5.702C-3.417 3.154-1.357 1.89 0 0" style="fill:#fff;fill-opacity:1;fill-rule:nonzero;stroke:none" transform="translate(247.548 134.065)"/><path d="M0 0c.579-2.383.603-3.739.318-4.774.674.839 1.849 1.544 4.152 2.644C6.62-1.078 9.053-.732 11.423-.928c-1.022-2.014-2.687-3.727-4.972-4.707-2.254-.998-4.665-1.188-6.964-.727-1.646 1.707-2.878 3.77-3.462 5.964-.55 2.182-.505 4.263.147 6.073C-2.021 4.189-.569 2.257 0 0" style="fill:#fff;fill-opacity:1;fill-rule:nonzero;stroke:none" transform="translate(237.208 94.462)"/><path d="M0 0c.364-2.433.317-3.821-.046-4.835.731.782 1.911 1.409 4.297 2.296a12.16 12.16 0 0 0 3.518.725c1.184.084 2.364.021 3.53-.186-.558-.979-1.345-1.827-2.267-2.537a10.94 10.94 0 0 0-3.102-1.7 10.423 10.423 0 0 0-3.492-.61 12.369 12.369 0 0 0-3.51.541 14.263 14.263 0 0 0-1.813 2.958c-.48 1.048-.87 2.173-1.074 3.304-.209 1.134-.241 2.21-.109 3.213.14 1 .434 1.932.8 2.829.833-.827 1.584-1.764 2.155-2.773A9.641 9.641 0 0 0 0 0" style="fill:#fff;fill-opacity:1;fill-rule:nonzero;stroke:none" transform="translate(232.264 85.33)"/><path d="M0 0c.129-1.254.102-2.193.01-2.952-.091-.761-.254-1.339-.489-1.821.408.349.928.654 1.657.951.732.296 1.679.58 2.862.96 2.265.693 4.739.609 7.048.009a11.03 11.03 0 0 0-2.454-2.361c-.939-.661-1.992-1.182-3.211-1.464-2.4-.594-4.813-.364-7 .487C-2.903-4.228-3.758-1.987-3.952.268c-.077 1.114-.055 2.21.126 3.22a8.45 8.45 0 0 0 1.01 2.761C-1.295 4.483-.21 2.344 0 0" style="fill:#fff;fill-opacity:1;fill-rule:nonzero;stroke:none" transform="translate(226.5 76.625)"/><path d="M0 0c-.064-2.456-.352-3.814-.887-4.749.857.644 2.129 1.055 4.636 1.515 1.18.222 2.404.233 3.587.112a14.046 14.046 0 0 0 3.444-.787 11.11 11.11 0 0 0-1.208-1.188 10.986 10.986 0 0 0-4.811-2.067 10.646 10.646 0 0 0-3.544-.001 12.403 12.403 0 0 0-3.363 1.14 14.217 14.217 0 0 0-1.273 3.228A13.627 13.627 0 0 0-3.91.643c-.009 1.152.146 2.215.45 3.179.151.483.345.936.562 1.373.2.453.434.879.702 1.279a13.156 13.156 0 0 0 1.65-3.103A9.362 9.362 0 0 0 0 0" style="fill:#fff;fill-opacity:1;fill-rule:nonzero;stroke:none" transform="translate(219.942 68.56)"/><path d="M0 0c-.125-1.254-.343-2.165-.583-2.893-.241-.728-.516-1.262-.843-1.687.47.261 1.04.455 1.813.601.774.146 1.762.23 2.998.366 2.358.225 4.765-.353 6.908-1.404a11.036 11.036 0 0 0-2.878-1.821 9.072 9.072 0 0 0-3.442-.789c-2.469-.103-4.786.605-6.758 1.876-.906 2.19-1.296 4.558-1.035 6.807.148 1.108.392 2.173.77 3.128a8.481 8.481 0 0 0 1.543 2.501C-.371 4.65.264 2.338 0 0" style="fill:#fff;fill-opacity:1;fill-rule:nonzero;stroke:none" transform="translate(212.682 61.16)"/><path d="M0 0c-.521-2.402-1.052-3.69-1.757-4.502.967.465 2.288.639 4.835.624a12.177 12.177 0 0 0 3.548-.567A14.028 14.028 0 0 0 9.86-5.861a9.769 9.769 0 0 0-1.412-.937 11.068 11.068 0 0 0-5.109-1.134c-2.413.024-4.701.971-6.576 2.417a14.591 14.591 0 0 0-.481 6.874c.206 1.135.556 2.152 1.034 3.044.239.446.51.861.811 1.243.288.398.592.781.931 1.122.49-1.07.854-2.201 1.041-3.358A9.614 9.614 0 0 0 0 0" style="fill:#fff;fill-opacity:1;fill-rule:nonzero;stroke:none" transform="translate(204.669 54.442)"/><path d="M0 0c.044-2.271-.742-4.389-2.099-6.072-1.216 1.79-1.929 3.817-1.971 5.995-.041 2.179.595 4.231 1.746 6.066C-.908 4.358-.042 2.271 0 0" style="fill:#fff;fill-opacity:1;fill-rule:nonzero;stroke:none" transform="translate(252.367 143.715)"/><path d="M0 0c1.245-2.133 1.679-3.436 1.683-4.507.423.99 1.323 2 3.202 3.702C6.659.803 8.9 1.813 11.232 2.285A10.214 10.214 0 0 0 7.801-3.63C5.935-5.22 3.657-6.069 1.304-6.26-.734-5.08-2.477-3.442-3.669-1.492-4.867.463-5.367 2.465-5.254 4.385-3.105 3.461-1.174 2.01 0 0" style="fill:#fff;fill-opacity:1;fill-rule:nonzero;stroke:none" transform="translate(246.38 123.83)"/><path d="M0 0c1.04-2.24 1.349-3.579 1.253-4.645.514.946 1.504 1.867 3.535 3.386C6.705.175 9.031.971 11.397 1.221a10.212 10.212 0 0 0-3.971-5.567C5.419-5.754 3.072-6.385.712-6.355c-1.919 1.366-3.5 3.161-4.505 5.214C-4.802.917-5.112 2.957-4.819 4.858-2.767 3.737-.98 2.111 0 0" style="fill:#fff;fill-opacity:1;fill-rule:nonzero;stroke:none" transform="translate(244.263 113.784)"/><path d="M0 0c.826-2.328 1.008-3.689.813-4.742.601.894 1.673 1.719 3.837 3.041C6.692-.453 9.082.122 11.461.15a10.215 10.215 0 0 0-4.474-5.171C4.857-6.235 2.461-6.644.114-6.394-1.669-4.854-3.075-2.92-3.883-.781c-.812 2.143-.93 4.203-.461 6.069C-2.406 3.979-.778 2.193 0 0" style="fill:#fff;fill-opacity:1;fill-rule:nonzero;stroke:none" transform="translate(241.22 104.017)"/><path d="m0 0-2.058 1.087C-3.892.715-5.718.459-7.614.174l.359-2.218 2.02.309c.232.045.488.098.771.171.284.074.472.131.566.168l-.735-1.231-.638-1.13-3.792-6.971 2.834-1.496z" style="fill:#fff;fill-opacity:1;fill-rule:nonzero;stroke:none" transform="translate(90.768 48.133)"/><path d="M0 0c.185-.359.275-.759.266-1.198A3.516 3.516 0 0 0 .02-2.447a1.616 1.616 0 0 0-.586-.725 2.199 2.199 0 0 0-.987-.376 2.284 2.284 0 0 0-1.183.171c-.606.24-.971.624-1.108 1.105-.136.482-.068 1.026.201 1.636.331.749.742 1.229 1.226 1.441.483.21.978.2 1.501-.006C-.49.625-.186.36 0 0m2.952-1.05c-.107.995-.436 1.799-.965 2.48A4.866 4.866 0 0 1-.068 2.964c-1.291.535-2.459.626-3.572.187-1.112-.439-1.984-1.292-2.622-2.638-.59-1.246-.73-2.389-.368-3.371.358-.988 1.112-1.739 2.241-2.243.85-.363 1.558-.475 2.105-.369a3.626 3.626 0 0 1 1.46.629l.112-.046c-.348-.771-.766-1.407-1.259-1.904-.493-.497-1.118-.786-1.877-.864-.762-.084-1.716.119-2.841.635-.28.124-.551.267-.814.426-.263.161-.511.32-.743.48l-.975-2.11c.223-.156.513-.325.867-.505l.94-.451c1.146-.527 2.204-.787 3.136-.841.931-.054 1.754.056 2.474.344a5.688 5.688 0 0 1 1.879 1.25c.53.535.984 1.146 1.366 1.831a14.9 14.9 0 0 1 .974 2.128c.472 1.288.645 2.428.537 3.418" style="fill:#fff;fill-opacity:1;fill-rule:nonzero;stroke:none" transform="translate(97.816 42.103)"/><path d="M0 0c1.226.921 2.442 1.911 3.62 2.877.235.197.452.393.65.589.198.194.388.399.571.613l.074-.022-.244-.68-.372-1.122-.315-1.029-.639-2.236C2.231-.671 1.106-.367 0 0m7.92-2.224-1.692.436L8.38 6.567c-.839.229-1.689.415-2.519.676a134.816 134.816 0 0 0-4.146-3.389A144 144 0 0 0-2.639.635L-3.3-1.271c1.994-.683 4-1.326 6.027-1.9l-.782-2.735c.994-.309 2.008-.544 3.013-.813l.709 2.754 1.727-.444z" style="fill:#fff;fill-opacity:1;fill-rule:nonzero;stroke:none" transform="translate(103.734 33.502)"/><path d="M0 0c2.574 3.59 4.96 7.211 7.167 10.944l.231 1.811c-3.177.405-6.339.94-9.462 1.65l-.528-2.382a62.013 62.013 0 0 1 3.31-.68 60.464 60.464 0 0 1 3.33-.575C1.767 7.288-.672 3.962-3.296.624Z" style="fill:#fff;fill-opacity:1;fill-rule:nonzero;stroke:none" transform="translate(117.577 24.85)"/><path d="m0 0-3.691-.052a143.806 143.806 0 0 0-3.161-4.465l-1.006-1.454-.062.003.243 6.007-2.976.153-.93-13.566 3.357-.174.179 4.435c.433.455.861.911 1.285 1.386a151.044 151.044 0 0 1 3.497-5.927l3.959.067C-1.136-11-2.854-8.479-4.458-5.829-2.893-3.947-1.407-1.936 0 0" style="fill:#fff;fill-opacity:1;fill-rule:nonzero;stroke:none" transform="translate(141.711 36.74)"/><path d="M0 0c2.248.271 3.256 2.377 2.881 5.003-.344 2.405-1.795 4.354-3.88 4.101-2.051-.21-3.108-2.26-2.916-4.904C-3.724 1.554-2.229-.231 0 0m-1.183 11.541c4.011.435 6.723-2.196 7.387-5.923.781-4.363-1.712-7.589-6.12-8.067-4.48-.452-7.225 2.52-7.371 6.384-.153 4.076 2.249 7.2 6.104 7.606" style="fill:#fff;fill-opacity:1;fill-rule:nonzero;stroke:none" transform="translate(150.933 25.986)"/><path d="M0 0c1.651.587 3.275 1.247 4.894 1.916l-.968 2.306C2.342 3.568.755 2.923-.859 2.349l-.971 2.652c1.669.591 3.306 1.267 4.943 1.939L2.13 9.263C-.396 8.22-2.942 7.218-5.543 6.375l4.301-12.9c2.592.849 5.148 1.812 7.667 2.855L6.73-.821c-1.863-.763-3.723-1.537-5.621-2.211Z" style="fill:#fff;fill-opacity:1;fill-rule:nonzero;stroke:none" transform="translate(177.114 35.688)"/><path d="M0 0c1.538.393 2.249 1.375 1.94 2.524-.324 1.208-1.303 1.6-2.668 1.265-.725-.169-1.124-.315-1.332-.406l.838-3.657L0 0m3.401-.349C4.46-.476 5.23-1.165 5.933-2.271c.861-1.345 1.813-2.914 2.243-3.334-1.113-.319-2.214-.683-3.34-.958-.337.309-.97 1.291-1.813 2.803C2.219-2.213 1.515-1.937.229-2.223l-.955-.214L.468-7.648c-1.097-.234-2.183-.517-3.289-.709L-5.443 4.801c.924.32 2.292.791 3.85 1.127 1.907.488 3.319.525 4.443.061.938-.395 1.635-1.178 1.991-2.377C5.338 1.959 4.46.428 3.385-.291Z" style="fill:#fff;fill-opacity:1;fill-rule:nonzero;stroke:none" transform="translate(164.458 33.74)"/><path d="m0 0-.005.01zm-2.749-1.413c.935.437 1.834.946 2.75 1.42l.022-.025-2.091 2.194c-.594.599-1.274 1.381-1.822 2.004l-.036-.019c.191-.812.479-1.823.634-2.631Zm6.983-2.885L1.655-1.721C.39-2.382-.859-3.075-2.151-3.681l.581-3.599c-1.049-.527-2.122-1.002-3.194-1.479-.44 4.75-1.064 9.477-1.854 14.145 1.192.557 2.34 1.199 3.506 1.806A193.838 193.838 0 0 1 7.409-2.487z" style="fill:#fff;fill-opacity:1;fill-rule:nonzero;stroke:none" transform="translate(191.31 42.055)"/><path d="M0 0c-.184-.481-.461-.881-.784-1.148l1.887-1.441.018-.014.012-.009s.057.05.142.131c.235.195.462.469.67.808l.006.009c.31.508.575 1.152.744 1.882.147.636.206 1.284.187 1.871l-.003.083a6.633 6.633 0 0 1-.054.564c-.01.07-.022.14-.035.207-.011.054-.021.107-.034.159a3.373 3.373 0 0 1-.086.302C2.204 4.818.938 5.817-1.463 6.273l-8.392 1.595-.568-2.995 8.352-1.586C-.228 2.959.307 2.185.229 1.123A3.187 3.187 0 0 0 .175.61 3.6 3.6 0 0 0 .001.002" style="fill:#fff;fill-opacity:1;fill-rule:nonzero;stroke:none" transform="translate(31.982 157.506)"/><path d="M0 0c-.184-.481-.46-.881-.784-1.148l1.887-1.441.018-.015.001.001.011-.009s.058.05.142.131c.235.194.462.469.67.808l.006.009c.31.508.575 1.152.744 1.882.147.636.206 1.284.187 1.871l-.003.083a5.39 5.39 0 0 1-.089.771c-.011.054-.021.107-.033.159a3.37 3.37 0 0 1-.087.302C2.204 4.818.938 5.818-1.463 6.273l-8.392 1.595-.569-2.994 8.353-1.588C-.228 2.959.307 2.185.229 1.123A3.187 3.187 0 0 0 .175.61 3.639 3.639 0 0 0 .001.001" style="fill:#fff;fill-opacity:1;fill-rule:nonzero;stroke:none" transform="translate(31.945 157.51)"/><path d="m0 0 1.298 4.574-2.383.76L-2.414.656l-2.725.74 1.446 5.085-2.401.772-2.333-8.22L4.786-4.181l1.825 6.418-2.09 1.876L3.115-.846z" style="fill:#fff;fill-opacity:1;fill-rule:nonzero;stroke:none" transform="translate(31.435 170.846)"/><path d="M0 0c.637 1.791-.652 3.571-3.054 4.659-2.227 1.01-4.688.837-5.413-1.167-.751-1.948.664-3.782 3.136-4.715C-2.84-2.162-.673-1.757 0 0m-10.692 4.504c.711 2.015 2.217 3.152 3.823 3.609 1.617.457 3.41.205 5.099-.611C.237 6.531 1.568 5.18 2.214 3.701a5.228 5.228 0 0 0 .443-2.304c-.03-.788-.12-1.641-.454-2.469C.92-4.425-2.726-5.4-6.391-4.15c-3.859 1.312-5.79 4.798-4.301 8.654" style="fill:#fff;fill-opacity:1;fill-rule:nonzero;stroke:none" transform="translate(39.219 182.83)"/><path d="M0 0c.755 1.031 1.01 2.27-.108 3.165-1.071.857-2.191.25-3.057-.93l-.591-.806L-.681-.858c.199.2.396.469.681.858m-5.521 2.741.58.79c.926 1.262.903 2.354.113 2.982-.805.64-1.699.346-2.524-.777a8.362 8.362 0 0 1-.711-1.105Zm3.186 2.841c1.317.868 2.941.938 4.28-.195a3.71 3.71 0 0 0 1.357-2.823c-.031-1.141-.531-2.643-1.97-4.601C.527-3.135-.157-3.895-.605-4.336l-10.922 7.688c.351.753 1.237 2.167 2.162 3.425 1.149 1.527 1.935 2.402 3.056 2.78 1.025.406 2.191.327 3.135-.463.929-.777 1.335-2.019.807-3.487z" style="fill:#fff;fill-opacity:1;fill-rule:nonzero;stroke:none" transform="translate(52.936 206.491)"/><path d="M0 0c1.676-1.72 1.876-3.093.805-4.115-1.073-.969-2.418-.827-4.144.786l-5.706 5.358-2.074-2.358 5.665-5.045c1.621-1.441 3.096-2.123 4.407-2.169a3.785 3.785 0 0 1 1.849.403c.565.301 1.121.724 1.696 1.241 2.298 2.188 2.309 4.97-.529 8.061L-3.22 7.75l-2.254-2.156Z" style="fill:#fff;fill-opacity:1;fill-rule:nonzero;stroke:none" transform="translate(60.846 220.922)"/><path d="M0 0c-1.092-.673-2.046-1.533-3.057-2.317.1-1.849.232-3.674.394-5.475.074-.561.135-1.133.241-1.721l-.046-.037-3.824 4.639-2.415-1.942L.212-17.118l2.145 1.715-2.823 3.425-.042 1.802a148.94 148.94 0 0 0 6.029-2.689c.838.68 1.666 1.373 2.588 1.937C5.373-9.548 2.728-8.471-.08-7.35-.109-4.95-.179-2.367 0 0" style="fill:#fff;fill-opacity:1;fill-rule:nonzero;stroke:none" transform="translate(69.216 238.217)"/><path d="M0 0c.895.249 1.817.361 2.736.482L.454 13.888c-1.037-.142-2.077-.275-3.091-.548Z" style="fill:#fff;fill-opacity:1;fill-rule:nonzero;stroke:none" transform="translate(117.827 244.805)"/><path d="M0 0c1.899.084 2.883 2.109 2.743 4.748-.128 2.437-1.411 4.479-3.535 4.377-2.083-.12-3.046-2.369-2.741-4.958C-3.219 1.486-1.879-.098 0 0m-.917 11.562c4.286.207 6.692-2.819 6.772-6.569C5.95.535 3.601-2.286.061-2.44c-3.57-.371-6.093 2.257-6.67 6.117-.288 2.018.088 3.869 1.075 5.289.986 1.38 2.571 2.497 4.617 2.596" style="fill:#fff;fill-opacity:1;fill-rule:nonzero;stroke:none" transform="translate(129.137 248.643)"/><path d="M0 0c-1.009.278-2.036.493-3.053.741l-3.379-13.172c1.049-.274 2.131-.429 3.153-.797l3.087-1.032 1.905 2.087-4.733 1.579z" style="fill:#fff;fill-opacity:1;fill-rule:nonzero;stroke:none" transform="translate(170.917 255.902)"/><path d="M0 0c-1.06-2.129-2.299-2.793-3.662-2.216-1.322.574-1.59 1.991-.648 4.134l3.167 7.157-2.88 1.254-2.884-7.016C-8.534-.708-7.599-3.19-4.79-4.409a6.468 6.468 0 0 1 2.126-.529 3.978 3.978 0 0 1 1.932.246c1.244.485 2.403 1.617 3.384 3.471l3.56 6.744-2.741 1.492z" style="fill:#fff;fill-opacity:1;fill-rule:nonzero;stroke:none" transform="translate(187.409 241.166)"/><path d="m0 0 2.172-1.742 8.627 10.511-2.452 1.966Z" style="fill:#fff;fill-opacity:1;fill-rule:nonzero;stroke:none" transform="translate(202.712 224.694)"/><path d="M0 0a49.996 49.996 0 0 1-4.204-2.623l-.041.039c.964 1.423 1.75 2.82 2.536 4.302A230.292 230.292 0 0 1 1.033 7.05c-.834.779-1.633 1.599-2.5 2.343A203.75 203.75 0 0 0-7.546-3.56l2.34-2.236a205.22 205.22 0 0 0 6.391 3.294A173.15 173.15 0 0 0 7.642.488c-.728.837-1.454 1.675-2.279 2.417A223.121 223.121 0 0 1 0 0" style="fill:#fff;fill-opacity:1;fill-rule:nonzero;stroke:none" transform="translate(217.704 221.878)"/><path d="m0 0 1.569-1.787 1.408-1.916L4.96-2.178 3.519-.22 1.916 1.608l2.163 1.815 1.732-1.994L7.377-.7 9.38.832C7.775 3.191 5.797 5.25 3.94 7.406L-6.241-1.607l2.205-2.508 1.104-1.253.988-1.346 2.681.607-1.523 2.081c-.534.673-1.127 1.299-1.687 1.95z" style="fill:#fff;fill-opacity:1;fill-rule:nonzero;stroke:none" transform="translate(223.196 212.922)"/><path d="M0 0c.766-1.262 1.871-1.606 2.883-.977 1.062.66 1.153 1.716.435 2.934-.391.635-.649.97-.816 1.126L-.615.995C-.396.672-.206.331 0 0m.534-3.175C.679-4.15.159-5.046-.749-5.959-1.86-7.085-3.192-8.312-3.524-8.778l-1.47 2.424c.223.374 1.014 1.209 2.236 2.424 1.259 1.192 1.36 1.919.763 2.944-.156.248-.296.506-.464.746l-4.442-2.975-1.629 2.211L2.42 6.75c.696-.737 1.775-1.816 2.625-3.248C6.115 1.746 6.606.352 6.456-.879 6.327-1.91 5.739-2.77 4.661-3.404c-1.498-.877-3.137-.468-4.076.26Z" style="fill:#fff;fill-opacity:1;fill-rule:nonzero;stroke:none" transform="translate(232.6 203.368)"/><path d="m0 0 .996-2.596 12.697 4.869-1.13 2.933z" style="fill:#fff;fill-opacity:1;fill-rule:nonzero;stroke:none" transform="translate(235.383 181.921)"/><path d="M0 0c.435-1.131.894-2.254 1.185-3.434L-9.306-6.795l.756-2.676 10.577 3.08.665-2.342 2.845-.574-1.452 5.119-.732 2.558c-.258.848-.616 1.662-.92 2.495Z" style="fill:#fff;fill-opacity:1;fill-rule:nonzero;stroke:none" transform="translate(247.681 180.622)"/><path d="M0 0c1.136.407 2.266.838 3.447 1.101l3.1-10.536 2.682.69L6.411 1.871l2.348.607.638 2.823-5.131-1.328-.597-.17C2.819 3.565.032 2.729-.804 2.445Z" style="fill:#fff;fill-opacity:1;fill-rule:nonzero;stroke:none" transform="translate(102.878 252.213)"/><path d="m0 0-3.471.784a41.897 41.897 0 0 1-2.745.51l-.007.038c.812.494 1.473.905 2.365 1.512l2.941 2.041c-.231 1.168-.402 2.35-.769 3.486-2.144-2.03-4.606-4.032-6.945-5.904l-5.453-1.132.508-2.716 5.58 1.005A156.33 156.33 0 0 0 .641-3.453z" style="fill:#fff;fill-opacity:1;fill-rule:nonzero;stroke:none" transform="translate(255.216 161.837)"/><path d="m0 0-.004.01zm-2.607-1.008C-1.757-.62-.896-.259.002.007L.02-.021l-1.75 2.489c-.508.675-1.101 1.56-1.573 2.223l-.037-.016c.105-.833.295-1.871.384-2.691Zm5.948-3.977L1.335-1.974l-1.763-.591-1.703-.745.509-3.585-2.631-1.148A214.973 214.973 0 0 0-5.92 6.061l1.884.817 1.946.657a212.813 212.813 0 0 0 8.259-11.58Z" style="fill:#fff;fill-opacity:1;fill-rule:nonzero;stroke:none" transform="translate(99.798 245.696)"/><path d="m0 0 .002.011Zm-2.763.404C-1.841.269-.913.161.005.005v-.033L-.219 2.96c-.09.827-.149 1.853-.21 2.676l-.04.006c-.339-.767-.709-1.753-1.054-2.5ZM.292-6.008.126-2.385c-1.201.301-2.445.375-3.666.575l-1.408-3.329-2.839.397A215.132 215.132 0 0 0-1.961 8.173c1.348-.221 2.72-.311 4.047-.643.529-4.773.896-9.516 1.103-14.22Z" style="fill:#fff;fill-opacity:1;fill-rule:nonzero;stroke:none" transform="translate(158.904 250.527)"/><path d="m0 0-7.09 11.604c1.024.656 2.122 1.191 3.18 1.791a155.38 155.38 0 0 0 8.93-6.106L.371 15.782c.853.443 1.673.953 2.553 1.34L8.886 4.856c-.87-.387-1.679-.898-2.522-1.34a153.72 153.72 0 0 1-9.229 6.382l5.077-8.65C1.477.827.703.473 0 0" style="fill:#fff;fill-opacity:1;fill-rule:nonzero;stroke:none" transform="translate(83.684 231.372)"/><path d="m0 0-12.077 6.251c.567 1.074 1.01 2.216 1.68 3.233C-6.702 9.39-3.074 9.172.48 8.835l-8.381 4.857 1.499 2.46 11.455-7.4-1.477-2.441c-3.681.375-7.444.62-11.28.732l8.826-4.768Z" style="fill:#fff;fill-opacity:1;fill-rule:nonzero;stroke:none" transform="translate(45.27 189.808)"/><path d="m0 0-.055 13.598c1.217.033 2.435-.083 3.653-.118a159.228 159.228 0 0 0 4.493-9.858l.412 9.674 2.884-.142L10.155-.428 7.29-.301A156.362 156.362 0 0 1 2.681 9.948L2.548-.081C1.699-.06.849.043 0 0" style="fill:#fff;fill-opacity:1;fill-rule:nonzero;stroke:none" transform="translate(137.883 246.959)"/><path d="m0 0 6.825 11.762c1.072-.582 2.149-1.156 3.144-1.865A158.236 158.236 0 0 0 8.827-.928l5.253 8.137 2.4-1.61L8.54-5.489 6.155-3.902c.541 3.657.957 7.401 1.242 11.223L2.21-1.264C1.521-.764.733-.427 0 0" style="fill:#fff;fill-opacity:1;fill-rule:nonzero;stroke:none" transform="translate(191.01 232.773)"/><path d="M0 0c-.254 1.877-.284 2.74.48 3.152.622.336 1.466.051 2.104-1.133.494-.915.679-1.74.753-2.352l2.498.071.062.014c-.068.891-.324 2.049-1.06 3.413C3.298 6.017.803 6.895-1.242 5.792-2.986 4.851-3.382 2.947-2.99.564c.269-1.732.152-2.537-.596-2.94-.781-.422-1.655-.037-2.333 1.22-.513.95-.756 1.997-.844 2.864l-2.549-.073-.038-.009c-.005-.884.375-2.439 1.121-3.82 1.791-3.32 4.34-3.959 6.349-2.875C-.19-4.158.37-2.558 0 0" style="fill:#fff;fill-opacity:1;fill-rule:nonzero;stroke:none" transform="translate(239.96 191.515)"/><path d="M0 0v66.178l-5.779-4.474L-8.153 0Z" style="fill:#fff;fill-opacity:1;fill-rule:nonzero;stroke:none" transform="translate(131.624 156.968)"/><path d="m0 0-4.138-53.972h8.153L6.276 4.859Z" style="fill:#fff;fill-opacity:1;fill-rule:nonzero;stroke:none" transform="translate(115.858 210.94)"/><path d="m0 0-5.23-45.721h8.151L6.826 5.285Z" style="fill:#fff;fill-opacity:1;fill-rule:nonzero;stroke:none" transform="translate(105.2 202.689)"/><path d="m0 0-5.779 4.474v-66.178h8.153Z" style="fill:#fff;fill-opacity:1;fill-rule:nonzero;stroke:none" transform="translate(150.622 218.672)"/><path d="m0 0-6.275 4.859 2.261-58.831h8.153z" style="fill:#fff;fill-opacity:1;fill-rule:nonzero;stroke:none" transform="translate(160.608 210.94)"/><path d="m0 0-6.826 5.285 3.905-51.006H5.23Z" style="fill:#fff;fill-opacity:1;fill-rule:nonzero;stroke:none" transform="translate(171.267 202.689)"/><path d="M0 0h-42.759v-11.526c3.671 1.547 7.595 2.34 11.722 2.34 6.439 0 11.076-1.961 11.27-2.045l1.587-.682.268-1.706 3.982-25.385.732-4.664-4.581 1.145c-2.46.615-4.979.927-7.487.927-10.371 0-17.69-5.325-17.754-5.373l-1.872-1.392-1.873 1.386c-.073.054-7.391 5.379-17.762 5.379a30.91 30.91 0 0 1-7.488-.927l-4.58-1.145.732 4.664 3.982 25.385.268 1.706 1.586.682c.194.084 4.83 2.045 11.27 2.045 4.127 0 8.052-.793 11.722-2.34V0h-48.103v-13.714h5.345v-16.79c0-14.239 5.071-27.286 13.493-37.458a39.309 39.309 0 0 0-11.935-3.796 70.957 70.957 0 0 1 8.823-10.063 51.057 51.057 0 0 1 11.868 5.277 58.622 58.622 0 0 1 20.509-10.53v12.347c-11.678 4.236-21.203 12.961-26.483 24.095a29.9 29.9 0 0 0 7.242.886c8.377 0 15.946-3.445 21.379-8.992 5.433 5.547 13.002 8.992 21.38 8.992 2.498 0 4.923-.308 7.242-.886-5.28-11.134-14.805-19.859-26.484-24.095v-12.347a58.627 58.627 0 0 1 20.51 10.53 51.057 51.057 0 0 1 11.868-5.277 70.95 70.95 0 0 1 8.822 10.063 39.303 39.303 0 0 0-11.934 3.796C-5.071-57.79 0-44.743 0-30.504v16.79h5.345V0Z" style="fill:#fff;fill-opacity:1;fill-rule:nonzero;stroke:none" transform="translate(183.13 152.496)"/><path d="M0 0s-11.947 5.137-23.894-1.991C-35.842 5.137-47.789 0-47.789 0l-3.982-25.385c15.929 3.983 27.877-4.978 27.877-4.978s11.947 8.961 27.876 4.978z" style="fill:#fff;fill-opacity:1;fill-rule:nonzero;stroke:none" transform="translate(162.127 138.393)"/></g></svg>