<?xml version="1.0" encoding="UTF-8"?>
<svg xmlns="http://www.w3.org/2000/svg" version="1.1" xmlns:xlink="http://www.w3.org/1999/xlink" viewBox="0 0 800.31 228.95">
  <defs>
    <style>
      .cls-1 {
        fill: #6e2b89;
      }

      .cls-2 {
        fill: url(#linear-gradient-2);
      }

      .cls-3 {
        fill: url(#linear-gradient-4);
      }

      .cls-4 {
        fill: url(#linear-gradient-3);
      }

      .cls-5 {
        fill: #333;
      }

      .cls-6 {
        fill: #2babe2;
      }

      .cls-7 {
        fill: url(#linear-gradient);
      }
    </style>
    <linearGradient id="linear-gradient" x1="0" y1="112.09" x2="213.64" y2="112.09" gradientUnits="userSpaceOnUse">
      <stop offset="0" stop-color="#0075c9"/>
      <stop offset="1" stop-color="#00aeef"/>
    </linearGradient>
    <linearGradient id="linear-gradient-2" x1=".02" y1="73.69" x2="213.63" y2="73.69" gradientUnits="userSpaceOnUse">
      <stop offset="0" stop-color="#006da4"/>
      <stop offset="1" stop-color="#006da4" stop-opacity="0"/>
    </linearGradient>
    <linearGradient id="linear-gradient-3" x1="61.17" y1="172.74" x2="127.58" y2="182.75" gradientUnits="userSpaceOnUse">
      <stop offset="0" stop-color="#006da4"/>
      <stop offset=".99" stop-color="#006da4" stop-opacity="0"/>
    </linearGradient>
    <linearGradient id="linear-gradient-4" x1="55.09" y1="192.88" x2="84.87" y2="64.75" gradientUnits="userSpaceOnUse">
      <stop offset="0" stop-color="#953293"/>
      <stop offset="1" stop-color="#953293" stop-opacity="0"/>
    </linearGradient>
  </defs>
  <!-- Generator: Adobe Illustrator 28.6.0, SVG Export Plug-In . SVG Version: 1.2.0 Build 709)  -->
  <g>
    <g id="Layer_1">
      <g>
        <path class="cls-1" d="M489.54,143.24c19.84-.19,24.57-.38,35.72-1.13l1.13,1.13c-.76,10.21-.95,12.66-1.13,23.44l-1.51,1.13c-7.37-.19-16.07,0-24,0h-24.19c-10.21.19-20.41.19-30.81.38l-1.13-2.65c1.13-1.32,2.08-2.65,3.02-3.97,6.8-8.69,13.04-17.95,19.66-26.84,3.59-5.29,7.37-10.39,10.96-15.69,11.72-16.82,14.74-23.25,14.74-32.13,0-10.58-6.24-18.9-17.58-18.9s-18.9,6.43-24,10.39l-1.51-1.13c.38-10.96.38-13.8.57-23.62l.94-1.7c10.21-5.1,21.17-8.69,32.51-8.69,21.17,0,38.93,13.23,38.93,40.07,0,17.39-7.37,27.03-19.66,43.09-2.27,2.83-4.35,5.86-6.62,8.69l-6.05,8.13Z"/>
        <path class="cls-1" d="M575.34,170.07c-7.37,0-20.98-1.32-30.43-14.74-8.69-12.47-10.21-32.32-10.21-48.57,0-22.11,1.7-63.5,40.82-63.5,5.67,0,20.22.57,30.24,14.55,9.26,12.66,10.4,33.83,10.4,48.76,0,25.7-2.83,63.5-40.82,63.5ZM585.17,75.76c-1.13-5.29-3.78-11.72-9.83-11.72-4.54,0-6.62,3.78-7.37,5.1-4.16,7.94-4.35,27.4-4.35,37.04s0,30.62,4.35,38.18c.76,1.32,3.02,4.91,7.56,4.91,6.43,0,8.69-6.99,9.64-12.1,1.51-7.37,2.08-19.28,2.08-28.92,0-8.88-.57-24.95-2.08-32.51Z"/>
        <path class="cls-1" d="M668.89,143.24c19.84-.19,24.57-.38,35.72-1.13l1.13,1.13c-.76,10.21-.95,12.66-1.13,23.44l-1.51,1.13c-7.37-.19-16.07,0-24,0h-24.19c-10.21.19-20.41.19-30.81.38l-1.13-2.65c1.13-1.32,2.08-2.65,3.02-3.97,6.8-8.69,13.04-17.95,19.66-26.84,3.59-5.29,7.37-10.39,10.96-15.69,11.72-16.82,14.74-23.25,14.74-32.13,0-10.58-6.24-18.9-17.58-18.9s-18.9,6.43-24,10.39l-1.51-1.13c.38-10.96.38-13.8.57-23.62l.94-1.7c10.21-5.1,21.17-8.69,32.51-8.69,21.17,0,38.93,13.23,38.93,40.07,0,17.39-7.37,27.03-19.66,43.09-2.27,2.83-4.35,5.86-6.62,8.69l-6.05,8.13Z"/>
        <path class="cls-1" d="M749.02,87.48c3.97-.94,7.37-.94,8.5-.94,20.6,0,36.1,14.93,36.1,38.37,0,14.36-5.48,26.27-14.55,34.4-10.58,9.45-22.3,10.77-31,10.77s-18.9-1.32-29.29-5.67l-1.32-1.7c.57-9.26.76-12.47.76-22.49l1.7-1.13c3.78,3.4,10.02,9.26,21.92,9.26,13.42,0,20.98-7.94,20.98-21.17,0-11.34-6.8-19.28-20.6-19.28-9.45,0-15.69,3.78-19.47,6.43l-1.89-1.13,1.7-22.87c2.08-29.67,2.27-33.07,2.46-43.66l1.32-1.13c8.88,0,11.34.19,20.79,0h16.06c7.56-.19,15.88-.38,23.81-.57l1.32,1.13c-1.13,10.02-1.32,12.47-2.08,22.11l-1.32,1.13c-13.99-.57-17.2-.57-24.19-.76h-10.39l-1.32,18.9Z"/>
      </g>
      <g>
        <path class="cls-6" d="M235.98,142.61c.76.77,1.52,1.53,2.39,2.17,4.35,3.71,11.09,5.37,15.98,5.37,9.78,0,10.76-6.26,10.76-8.44,0-4.99-4.46-7.16-7.72-8.82l-5.43-2.56c-7.5-3.96-17.72-9.46-17.72-26.98,0-7.03,1.41-14.45,6.96-20.58,5.22-5.62,11.96-7.93,21.74-7.93,11.09,0,17.5,3.32,20.76,4.99l.43.77-.98,19.95-.98.51c-1.52-1.41-3.04-2.81-4.78-3.96-3.7-2.56-8.15-3.83-11.63-3.83-4.02,0-5.54,1.28-6.3,1.92-1.3,1.28-2.39,3.58-2.39,5.88,0,4.86,4.89,7.16,7.28,8.31l5.98,2.94c1.85.9,6.96,3.07,11.52,8.05,5.54,6.01,6.3,13.68,6.3,18.41,0,8.57-3.37,14.96-4.35,16.75-6.41,11.12-17.5,13.55-28.48,13.55s-17.06-2.81-20.22-4.22l-.87-1.28c.54-9.72.65-11.25.76-20.58l.98-.38Z"/>
        <path class="cls-6" d="M321.06,167.16c-10.33-.13-12.93-.13-23.69.38l-.43-.64c0-11.51.11-22.89.22-34.26.11-7.29.22-14.57.22-21.86,0-11.25-.22-19.56-.65-33.24l.54-.64c10.65.13,12.93.13,23.59-.38l.43.64c-.33,12.79-.54,20.46-.54,35.16,0,18.03.33,36.31.76,54.21l-.43.64Z"/>
        <path class="cls-6" d="M377.88,131.62c.76-3.45,1.41-6.9,2.17-10.48,1.96-9.08,4.24-18.15,6.3-27.23,1.2-5.5,2.39-10.99,3.48-16.49l.76-.51,29.45-.38.65.77c.33,15.47.54,22.25,1.52,43.47.65,15.21,1.41,30.43,2.07,45.64l-.65.77c-8.91-.13-12.06,0-21.3.38l-.54-.77-.87-49.99v-19.18l-4.02,17.39-1.74,7.8-9.89,43.6-.87.77c-7.17-.13-9.13-.13-16.95.38l-.76-.77c-4.35-19.95-5.43-24.93-8.91-40.27l-1.74-7.54-5.11-22.12-.43,18.15c-.22,10.87-.43,21.73-.43,32.6,0,6.65.11,12.02.22,18.79l-.76.77-18.15.38-.54-.77c2.17-35.8,2.61-46.67,3.59-89.24l.65-.64h14.67c5.22-.13,10.33-.26,15.43-.38l.65.38,12.06,54.72Z"/>
      </g>
      <g>
        <path class="cls-5" d="M248.72,67.09h-5.68c-1.32,0-6.65.21-6.65.21l-.34-.42c.21-6.63.34-13.18.34-19.81v-4.99c0-8.27-.07-16.6-.62-24.87l.35-.43h4.78c2.28,0,6.3-.14,7.75-.21l.28.43c-.21,9.76-.35,19.59-.35,29.43,0,6.77.14,13.54.48,20.23l-.35.43Z"/>
        <path class="cls-5" d="M291.02,57.97c-.21,2.92-.35,5.98-.49,8.69l-.55.43c-10.11,0-20.29.07-30.47.14l-.34-.5c.28-6.56.34-13.11.34-19.74v-14.75c0-5.06-.07-10.05-.48-15.03l.42-.43c7.55,0,25.83-.14,30.4-.14l.35.43c-.21,2.92-.42,5.49-.49,8.27l-.42.43c-5.96-.14-11.84-.21-17.72-.21,0,1.35-.07,3.28-.07,5.27,0,2.28,0,4.56.07,6.06,5.61,0,11.15-.07,16.69-.29l.41.5c-.21,2.71-.35,5.34-.49,8.05l-.41.43c-10.18-.07-16.2-.07-16.2-.07,0,4.2.07,8.34.14,12.47,6.37,0,12.67-.14,18.97-.5l.35.5Z"/>
        <path class="cls-5" d="M329.94,57.97c-.21,2.92-.35,5.98-.49,8.69l-.55.43c-10.11,0-20.29.07-30.47.14l-.35-.5c.28-6.56.35-13.11.35-19.74v-14.75c0-5.06-.07-10.05-.48-15.03l.42-.43c7.55,0,25.83-.14,30.4-.14l.35.43c-.21,2.92-.42,5.49-.49,8.27l-.42.43c-5.96-.14-11.84-.21-17.72-.21,0,1.35-.07,3.28-.07,5.27,0,2.28,0,4.56.07,6.06,5.61,0,11.15-.07,16.69-.29l.42.5c-.21,2.71-.35,5.34-.48,8.05l-.42.43c-10.18-.07-16.2-.07-16.2-.07,0,4.2.07,8.34.14,12.47,6.37,0,12.67-.14,18.97-.5l.35.5Z"/>
        <path class="cls-5" d="M368.85,57.97c-.21,2.92-.35,5.98-.49,8.69l-.55.43c-10.11,0-20.29.07-30.47.14l-.35-.5c.28-6.56.35-13.11.35-19.74v-14.75c0-5.06-.07-10.05-.48-15.03l.42-.43c7.55,0,25.83-.14,30.4-.14l.35.43c-.21,2.92-.42,5.49-.49,8.27l-.42.43c-5.96-.14-11.84-.21-17.73-.21,0,1.35-.07,3.28-.07,5.27,0,2.28,0,4.56.07,6.06,5.61,0,11.15-.07,16.69-.29l.42.5c-.21,2.71-.34,5.34-.48,8.05l-.42.43c-10.18-.07-16.2-.07-16.2-.07,0,4.2.07,8.34.14,12.47,6.37,0,12.67-.14,18.97-.5l.35.5Z"/>
      </g>
      <g>
        <path class="cls-6" d="M237.05,209.43c.3.26.61.52.95.74,1.74,1.26,4.42,1.82,6.38,1.82,3.9,0,4.29-2.13,4.29-2.86,0-1.69-1.78-2.43-3.08-2.99l-2.17-.87c-2.99-1.35-7.07-3.21-7.07-9.15,0-2.39.56-4.9,2.78-6.98,2.08-1.91,4.77-2.69,8.68-2.69,4.42,0,6.98,1.13,8.29,1.69l.17.26-.39,6.77-.39.17c-.61-.48-1.21-.95-1.91-1.34-1.47-.87-3.25-1.3-4.64-1.3-1.6,0-2.21.43-2.52.65-.52.43-.95,1.21-.95,2,0,1.65,1.95,2.43,2.91,2.82l2.39,1c.74.3,2.78,1.04,4.6,2.73,2.21,2.04,2.52,4.64,2.52,6.25,0,2.91-1.34,5.08-1.74,5.68-2.56,3.77-6.98,4.6-11.37,4.6s-6.81-.95-8.07-1.43l-.35-.43c.22-3.3.26-3.82.3-6.98l.39-.13Z"/>
        <path class="cls-6" d="M268.98,208.22c.26,1.3.52,2.26,2,3.17.65.39,2,.91,3.99.91,2.34,0,4.68-.43,6.64-1.74l.3.22-.22,5.55-.26.39c-.48.22-1,.43-1.47.61-.78.26-3.34.95-6.68.95-2.3,0-5.77-.35-8.29-2.08-3.3-2.26-4.64-5.99-4.64-10.02,0-8.89,6.25-12.15,11.71-12.15,2.21,0,4.86.56,6.72,2.04,3.9,3.08,3.95,8.42,3.95,11.63l-.3.35-13.45.17ZM274.58,203.36c-.04-1.08-.17-3.9-2.78-3.9-.22,0-.61,0-1.08.22-1.82.78-1.91,2.69-1.95,3.77l5.81-.09Z"/>
        <path class="cls-6" d="M308.42,217.76c-3.43-.04-4.6-.04-8.55.13l-.22-.26c0-1.52.04-2.99.04-4.51v-2.04c0-3.21-.13-6.9-.3-8.03-.09-.69-.26-2.39-2.21-2.39-.82,0-1.6.39-2.38.78-.09,1.69.04,6.46.09,8.63.09,4.6.13,5.12.22,7.38l-.22.3c-3.51-.04-4.73-.04-8.72.13l-.26-.3c.04-2.73.09-5.47.09-8.2,0-7.38-.26-10.2-.65-13.93l.26-.26c3.82-.52,4.73-.65,8.81-1.52l.43.39-.09,2.39c.61-.43,1.21-.87,1.87-1.26,1.78-.96,3.95-1.26,5.16-1.26,1.87,0,4.03.52,5.38,2.65,1.26,1.91,1.26,4.25,1.26,8.89v2.34c.09,5.16.13,6.12.35,9.63l-.35.3Z"/>
        <path class="cls-6" d="M326.12,203.4c.74.3,1.56.65,2.47,1.39,1.13.91,2.56,2.73,2.56,5.38,0,4.73-3.73,8.11-10.67,8.11-3.12,0-5.9-.74-6.94-1.13-.39-.13-.78-.3-1.13-.43l-.26-.48.3-5.64.43-.22c.52.43,1.04.87,1.65,1.21,1.43.91,3.34,1.43,4.86,1.43,2.56,0,2.6-1.47,2.6-1.65,0-1.08-1.08-1.52-2.26-1.95l-1.82-.74c-1.26-.56-2.91-1.26-3.99-2.56-.69-.82-1.52-2.52-1.52-4.51,0-2.65,1.39-4.77,2.91-5.9,2.43-1.74,5.86-1.82,7.33-1.82,2.95,0,4.86.52,6.98,1.13l.26.26c-.3,2.56-.35,3.21-.48,5.34l-.43.13c-1.04-.74-2.6-1.87-5.38-1.87-2.34,0-2.34,1.56-2.34,1.61,0,.69.69,1.17,1.82,1.65l3.04,1.26Z"/>
        <path class="cls-6" d="M355.57,214.03c-2.26,3.17-5.99,4.25-9.89,4.25-1.52,0-3.9-.22-5.73-.91-5.77-2.08-6.25-7.85-6.25-11.02s.48-6.38,2.52-8.76c2.86-3.34,7.46-3.56,9.41-3.56,3.25,0,6.55.74,8.85,2.99,1.52,1.48,2.99,3.9,2.99,9.11,0,1.56-.17,5.38-1.91,7.9ZM345.68,199.37c-2.69,0-2.99,3.3-2.99,7.2,0,1.39.04,2.65.35,3.86.61,2.47,2.3,2.47,2.56,2.47.96,0,1.69-.61,2.17-1.61.74-1.39.74-4.68.74-5.55,0-3.95-.69-6.38-2.82-6.38Z"/>
        <path class="cls-6" d="M360.82,195.25c3.82-.48,4.81-.61,9.02-1.52l.3.35-.09,4.34c.3-.65.61-1.34,1.04-2,1.17-1.78,2.73-2.73,4.77-2.73.52,0,1,.04,1.52.13l.3.26c-.96,3.99-1.13,4.86-1.82,8.94l-.43.13c-.65-.43-1.17-.78-2.26-.78-3.17,0-3.17,2.65-3.17,5.34,0,.69,0,1.43.04,2.13l.13,7.59-.3.35c-3.86-.04-5.03-.04-8.81.09l-.3-.3c.13-3.99.26-7.98.26-11.97,0-5.08-.17-6.9-.48-10.02l.26-.3Z"/>
        <path class="cls-6" d="M401.47,217.76c-4.12-.04-5.16-.04-9.46.13l-.17-.22c0-3.9.04-7.76.09-11.63.04-2.47.09-4.95.09-7.42,0-3.82-.09-6.64-.26-11.28l.22-.22c4.25.04,5.16.04,9.41-.13l.17.22c-.13,4.34-.22,6.94-.22,11.93,0,6.12.13,12.32.3,18.39l-.17.22Z"/>
        <path class="cls-6" d="M428.63,217.76c-3.43-.04-4.6-.04-8.55.13l-.22-.26c0-1.52.04-2.99.04-4.51v-2.04c0-3.21-.13-6.9-.3-8.03-.09-.69-.26-2.39-2.21-2.39-.82,0-1.6.39-2.39.78-.09,1.69.04,6.46.09,8.63.09,4.6.13,5.12.22,7.38l-.22.3c-3.51-.04-4.73-.04-8.72.13l-.26-.3c.04-2.73.09-5.47.09-8.2,0-7.38-.26-10.2-.65-13.93l.26-.26c3.82-.52,4.73-.65,8.81-1.52l.43.39-.09,2.39c.61-.43,1.21-.87,1.87-1.26,1.78-.96,3.95-1.26,5.16-1.26,1.87,0,4.03.52,5.38,2.65,1.26,1.91,1.26,4.25,1.26,8.89v2.34c.09,5.16.13,6.12.35,9.63l-.35.3Z"/>
        <path class="cls-6" d="M442.6,200.37l-.13,7.59c0,.87,0,2.56.39,3.3.39.69,1.21,1.04,2.04,1.04.78,0,1.52-.22,2.21-.48l.35.17-.43,5.34-.3.3c-1.87.39-3.3.65-5.38.65-4.29,0-6.25-1.34-7.07-4.03-.35-1.17-.35-2.21-.35-4.25s.04-3.95.04-5.9l.09-3.82-2.78.09-.26-.26.26-5.29.3-.3h2.47v-5.68l.22-.3c3.34-.82,4.47-1.13,8.07-2.21l.39.26-.13,8.11c1.56,0,2.17,0,4.12-.17l.35.3-.48,5.21-.35.35c-.69,0-1.34-.04-2-.04l-1.65.04Z"/>
        <path class="cls-6" d="M456.96,208.22c.26,1.3.52,2.26,2,3.17.65.39,2,.91,3.99.91,2.34,0,4.69-.43,6.64-1.74l.3.22-.22,5.55-.26.39c-.48.22-1,.43-1.47.61-.78.26-3.34.95-6.68.95-2.3,0-5.77-.35-8.29-2.08-3.3-2.26-4.64-5.99-4.64-10.02,0-8.89,6.25-12.15,11.71-12.15,2.21,0,4.86.56,6.72,2.04,3.9,3.08,3.95,8.42,3.95,11.63l-.3.35-13.45.17ZM462.55,203.36c-.04-1.08-.17-3.9-2.78-3.9-.22,0-.61,0-1.08.22-1.82.78-1.91,2.69-1.95,3.77l5.81-.09Z"/>
        <path class="cls-6" d="M473.79,195.25c3.82-.48,4.81-.61,9.02-1.52l.3.35-.09,4.34c.3-.65.61-1.34,1.04-2,1.17-1.78,2.73-2.73,4.77-2.73.52,0,1,.04,1.52.13l.3.26c-.96,3.99-1.13,4.86-1.82,8.94l-.43.13c-.65-.43-1.17-.78-2.26-.78-3.17,0-3.17,2.65-3.17,5.34,0,.69,0,1.43.04,2.13l.13,7.59-.3.35c-3.86-.04-5.03-.04-8.81.09l-.3-.3c.13-3.99.26-7.98.26-11.97,0-5.08-.17-6.9-.48-10.02l.26-.3Z"/>
        <path class="cls-6" d="M502.9,200.37c-.04,7.72,0,9.85.35,17.09l-.3.3c-3.73-.04-4.68,0-8.63.13l-.3-.26c.22-5.86.26-8.07.26-17.35l-3.3.13-.26-.26.3-5.25.35-.39,2.91.09c-.04-.82-.09-1.65-.09-2.47,0-4.86.61-9.15,8.37-9.15,1.65,0,3.25.17,4.86.35l.22.26c-.26,2.47-.35,3.25-.43,5.68l-.35.22c-.48-.13-.95-.26-1.47-.26-2.56,0-2.56,2.47-2.52,5.47l3.73-.17.22.3-.43,5.34-.35.26-3.12-.04Z"/>
        <path class="cls-6" d="M521.43,215.94c-1.87,1.13-3.82,2.26-6.29,2.26-4.12,0-7.25-3.12-7.25-7.42,0-7.16,7.68-8.16,13.23-8.89.09-1.08.13-2.26-2.69-2.26-3.04,0-5.21.87-7.81,1.91l-.3-.17.26-5.47.26-.35c2.56-.78,5.08-1.52,9.41-1.52s6.29.87,7.63,2.08c2.17,2,2.08,4.51,2,8.76l-.04,2.78c0,4.38,0,5.38.35,9.76l-.26.35c-3.47-.04-4.34,0-8.2.13l-.3-.3v-1.65ZM521.3,206.61c-2.04.17-5.12.39-5.12,3.04,0,1.47,1.04,2.3,2.47,2.3,1.17,0,1.95-.43,2.65-.87v-4.47Z"/>
        <path class="cls-6" d="M552.53,211.08l-.26,5.9-.22.26c-2,.56-3.64,1.04-6.07,1.04-10.28,0-12.67-7.16-12.67-12.06,0-4.38,1.82-8.24,4.95-10.24,1.82-1.17,4.6-2,7.94-2,2.6,0,4.08.52,6.07,1.21l.22.26c-.39,2.47-.48,3.3-.69,5.94l-.48.13c-.65-.65-1.52-1.6-3.86-1.6-2.73,0-5.08,2.08-5.08,6.03,0,3.47,1.78,6.16,5.68,6.16,2.13,0,2.99-.52,4.16-1.26l.3.22Z"/>
        <path class="cls-6" d="M562.68,208.22c.26,1.3.52,2.26,2,3.17.65.39,2,.91,3.99.91,2.34,0,4.69-.43,6.64-1.74l.3.22-.22,5.55-.26.39c-.48.22-1,.43-1.47.61-.78.26-3.34.95-6.68.95-2.3,0-5.77-.35-8.29-2.08-3.3-2.26-4.64-5.99-4.64-10.02,0-8.89,6.25-12.15,11.71-12.15,2.21,0,4.86.56,6.72,2.04,3.9,3.08,3.95,8.42,3.95,11.63l-.3.35-13.45.17ZM568.28,203.36c-.04-1.08-.17-3.9-2.78-3.9-.22,0-.61,0-1.08.22-1.82.78-1.91,2.69-1.95,3.77l5.81-.09Z"/>
        <path class="cls-6" d="M592.7,203.4c.74.3,1.56.65,2.47,1.39,1.13.91,2.56,2.73,2.56,5.38,0,4.73-3.73,8.11-10.67,8.11-3.12,0-5.9-.74-6.94-1.13-.39-.13-.78-.3-1.13-.43l-.26-.48.3-5.64.43-.22c.52.43,1.04.87,1.65,1.21,1.43.91,3.34,1.43,4.86,1.43,2.56,0,2.6-1.47,2.6-1.65,0-1.08-1.08-1.52-2.26-1.95l-1.82-.74c-1.26-.56-2.91-1.26-3.99-2.56-.69-.82-1.52-2.52-1.52-4.51,0-2.65,1.39-4.77,2.91-5.9,2.43-1.74,5.86-1.82,7.33-1.82,2.95,0,4.86.52,6.98,1.13l.26.26c-.3,2.56-.35,3.21-.48,5.34l-.43.13c-1.04-.74-2.6-1.87-5.38-1.87-2.34,0-2.34,1.56-2.34,1.61,0,.69.69,1.17,1.82,1.65l3.04,1.26Z"/>
        <path class="cls-6" d="M632.18,205.7c.3-1.17.56-2.34.87-3.56.78-3.08,1.69-6.16,2.52-9.24.48-1.87.95-3.73,1.39-5.6l.3-.17,11.76-.13.26.26c.13,5.25.22,7.55.61,14.75.26,5.16.56,10.32.82,15.49l-.26.26c-3.56-.04-4.82,0-8.5.13l-.22-.26-.35-16.96v-6.51l-1.6,5.9-.69,2.65-3.95,14.79-.35.26c-2.86-.04-3.64-.04-6.77.13l-.3-.26c-1.74-6.77-2.17-8.46-3.56-13.67l-.69-2.56-2.04-7.5-.17,6.16c-.09,3.69-.17,7.38-.17,11.06,0,2.26.04,4.08.09,6.38l-.3.26-7.25.13-.22-.26c.87-12.15,1.04-15.83,1.43-30.28l.26-.22h5.86c2.08-.04,4.12-.09,6.16-.13l.26.13,4.82,18.57Z"/>
        <path class="cls-6" d="M662.12,208.22c.26,1.3.52,2.26,2,3.17.65.39,2,.91,3.99.91,2.34,0,4.69-.43,6.64-1.74l.3.22-.22,5.55-.26.39c-.48.22-1,.43-1.47.61-.78.26-3.34.95-6.68.95-2.3,0-5.77-.35-8.29-2.08-3.3-2.26-4.64-5.99-4.64-10.02,0-8.89,6.25-12.15,11.71-12.15,2.21,0,4.86.56,6.72,2.04,3.9,3.08,3.95,8.42,3.95,11.63l-.3.35-13.45.17ZM667.71,203.36c-.04-1.08-.17-3.9-2.78-3.9-.22,0-.61,0-1.08.22-1.82.78-1.91,2.69-1.95,3.77l5.81-.09Z"/>
        <path class="cls-6" d="M686.5,208.22c.26,1.3.52,2.26,2,3.17.65.39,2,.91,3.99.91,2.34,0,4.69-.43,6.64-1.74l.3.22-.22,5.55-.26.39c-.48.22-1,.43-1.47.61-.78.26-3.34.95-6.68.95-2.3,0-5.77-.35-8.29-2.08-3.3-2.26-4.64-5.99-4.64-10.02,0-8.89,6.25-12.15,11.71-12.15,2.21,0,4.86.56,6.72,2.04,3.9,3.08,3.95,8.42,3.95,11.63l-.3.35-13.45.17ZM692.09,203.36c-.04-1.08-.17-3.9-2.78-3.9-.22,0-.61,0-1.08.22-1.82.78-1.91,2.69-1.95,3.77l5.81-.09Z"/>
        <path class="cls-6" d="M712.79,200.37l-.13,7.59c0,.87,0,2.56.39,3.3.39.69,1.21,1.04,2.04,1.04.78,0,1.52-.22,2.21-.48l.35.17-.43,5.34-.3.3c-1.87.39-3.3.65-5.38.65-4.29,0-6.25-1.34-7.07-4.03-.35-1.17-.35-2.21-.35-4.25s.04-3.95.04-5.9l.09-3.82-2.78.09-.26-.26.26-5.29.3-.3h2.47v-5.68l.22-.3c3.34-.82,4.47-1.13,8.07-2.21l.39.26-.13,8.11c1.56,0,2.17,0,4.12-.17l.35.3-.48,5.21-.35.35c-.69,0-1.34-.04-2-.04l-1.65.04Z"/>
        <path class="cls-6" d="M728.93,217.76c-4.12-.04-5.29-.04-9.07.13l-.3-.3c.13-3.9.26-7.81.26-11.76,0-5.12-.22-7.29-.52-10.28l.26-.26c3.95-.56,5.03-.74,9.11-1.52l.22.35c-.04,3.21-.09,6.42-.09,9.63,0,6.77.22,10.19.43,13.71l-.3.3ZM728.62,190.91l-.26.26c-3.73.43-4.6.61-8.29,1.26l-.39-.26-.17-7.07.3-.3,8.55-1.13.26.3v6.94Z"/>
        <path class="cls-6" d="M755.78,217.76c-3.43-.04-4.6-.04-8.55.13l-.22-.26c0-1.52.04-2.99.04-4.51v-2.04c0-3.21-.13-6.9-.3-8.03-.09-.69-.26-2.39-2.21-2.39-.82,0-1.6.39-2.39.78-.09,1.69.04,6.46.09,8.63.09,4.6.13,5.12.22,7.38l-.22.3c-3.51-.04-4.73-.04-8.72.13l-.26-.3c.04-2.73.09-5.47.09-8.2,0-7.38-.26-10.2-.65-13.93l.26-.26c3.82-.52,4.73-.65,8.81-1.52l.43.39-.09,2.39c.61-.43,1.21-.87,1.87-1.26,1.78-.96,3.95-1.26,5.16-1.26,1.87,0,4.03.52,5.38,2.65,1.26,1.91,1.26,4.25,1.26,8.89v2.34c.09,5.16.13,6.12.35,9.63l-.35.3Z"/>
        <path class="cls-6" d="M779.81,199.63c.52,1.04.95,1.95.95,3.38,0,5.25-5.47,7.29-9.41,7.29-.61,0-1.17-.04-1.78-.09l-.82,1.82,3.9.61,1.61.3c2.34.39,8.07,1.43,8.07,7.2,0,3.21-2.17,8.46-12.1,8.46-2.26,0-4.51-.17-6.59-1.04-3.56-1.43-4.12-4.12-4.12-5.47,0-2.95,1.82-4.29,2.73-4.99l-1.69-1.34.04-.35c1.65-2.99,1.87-3.3,3.25-6.2-.56-.3-1.17-.56-1.69-.95-1.26-.96-2.65-2.99-2.65-5.6s1.3-4.64,2.56-5.77c2.78-2.47,7.07-2.47,9.24-2.47,1.52,0,2.08.09,3.21.09h8.46l.3.22c-.17,2.3-.22,2.86-.3,5.42l-.22.26-2.95-.78ZM767.41,219.15c-.17.61-.39,1.21-.39,1.87,0,2.3,2.47,2.91,3.77,2.91,2.26,0,3.12-1.04,3.12-1.95,0-1.52-1.82-1.87-3.38-2.13-.65-.09-2.08-.48-3.12-.69ZM770.31,198.98c-1.65,0-2.52,1.65-2.52,3.08,0,.96.26,3.82,2.65,3.82,1.08,0,2.47-.69,2.47-3.25,0-2-.87-3.64-2.6-3.64Z"/>
      </g>
      <path class="cls-7" d="M123.06,208.46c-21.57,6.29-43.19.06-63.71-13.21-36.04-23.32-43.92-68.45-23.83-105.59,21.18-39.15,68.32-50.11,106.43-27.19,7.92,4.76,14.72,10.68,20.32,17.4,8.21,9.86,21.14,14.43,33.59,11.33l1.06-.26c13.96-3.48,20.86-19.16,14.08-31.85-9.76-18.26-24.71-34.07-44.25-44.98C114.82-14.92,48.35,2.27,16.94,52.79-16.17,106.05.81,175.92,54.37,208.13c22.57,13.57,48,18.26,72.23,15.09,4.29-.56,7.21-4.63,6.35-8.87h0c-.91-4.5-5.48-7.18-9.88-5.9Z"/>
      <path class="cls-1" d="M31.54,90.16c23.22-37.98,72.31-50.62,110.42-27.7,7.92,4.76,14.72,10.68,20.32,17.4,8.21,9.86,21.14,14.43,33.59,11.33l1.06-.26c13.96-3.48,20.86-19.16,14.08-31.85-9.76-18.26-24.71-34.07-44.25-44.98C114.82-14.92,48.35,2.27,16.94,52.79-16.17,106.05.81,175.92,54.37,208.13c14.96,9,31.18,14.07,47.47,15.56C7.49,206.69,13.55,119.59,31.54,90.16Z"/>
      <path class="cls-6" d="M84.06,35.6c46.7-1.51,68.78,25.34,80.25,42.93,7.01,10.75,19.11,15.75,31.56,12.65l1.06-.26c13.96-3.48,20.86-19.16,14.08-31.85-9.76-18.26-24.71-34.07-44.25-44.98C114.82-14.92,48.34,2.27,16.93,52.79,4.68,72.5-.7,94.49.08,116-.81,69.64,37.35,37.12,84.06,35.6Z"/>
      <path class="cls-2" d="M196.92,86.77l-1.06.26c-12.45,3.1-24.55-1.9-31.56-12.65-11.47-17.59-33.55-44.45-80.25-42.93C37.35,32.96-.81,65.48.08,111.84c-.02-.67-.02-1.34-.04-2.01-.04,2.06-.04,4.11.04,6.16C-.81,69.64,37.35,37.12,84.06,35.6c46.7-1.51,68.78,25.34,80.25,42.93,7.01,10.75,19.11,15.75,31.56,12.65l1.06-.26c10.99-2.74,17.6-13.04,16.61-23.49-.85,8.91-7.08,16.96-16.61,19.34Z"/>
      <path class="cls-1" d="M155.41,209.24c0,4.48-3.63,8.11-8.11,8.11s-8.11-3.63-8.11-8.11,3.63-8.11,8.11-8.11,8.11,3.63,8.11,8.11Z"/>
      <path class="cls-4" d="M123.06,208.46c-21.57,6.29-43.19.06-63.71-13.21-22.82-14.76-34.33-38.27-34.62-62.95-.57,25.69,10.95,50.41,34.62,65.72,20.52,13.28,42.14,19.51,63.71,13.21,4.4-1.28,8.97,1.4,9.88,5.9,0,.03,0,.06.01.09.17-.92.19-1.89-.01-2.86-.91-4.5-5.48-7.18-9.88-5.9Z"/>
      <path class="cls-1" d="M172.25,199.16c0,3.27-2.65,5.93-5.93,5.93s-5.93-2.65-5.93-5.93,2.65-5.93,5.93-5.93,5.93,2.65,5.93,5.93Z"/>
      <circle class="cls-1" cx="179.66" cy="189.41" r="3.82"/>
      <path class="cls-3" d="M31.54,90.16c15.03-24.58,40.9-38.53,67.61-39.11-27.86-.53-55.23,13.53-70.87,39.11-17.56,28.73-23.73,112.41,63.75,132.18,3.26.59,6.53,1.04,9.8,1.34C7.49,206.69,13.55,119.59,31.54,90.16Z"/>
    </g>
  </g>
</svg>