<?xml version="1.0" encoding="UTF-8" standalone="no"?>
<!-- Created with Inkscape (http://www.inkscape.org/) -->

<svg
   xmlns:dc="http://purl.org/dc/elements/1.1/"
   xmlns:cc="http://creativecommons.org/ns#"
   xmlns:rdf="http://www.w3.org/1999/02/22-rdf-syntax-ns#"
   xmlns:svg="http://www.w3.org/2000/svg"
   xmlns="http://www.w3.org/2000/svg"
   version="1.1"
   width="550.46875"
   height="92.8125"
   id="svg4204">
  <defs
     id="defs4206" />
  <g
     transform="translate(-87.622768,-428.81308)"
     id="layer1">
    <path
       d="m 363.62277,503.78183 c -0.18106,0 -0.30794,0.16242 -0.375,0.53125 l -2.15625,13.96875 c -0.114,0.7276 -0.29265,1.56008 -0.90625,1.6875 -0.32189,0.0704 -0.48525,0.0625 -0.65625,0.0625 -0.21794,0 -0.34375,0.0523 -0.34375,0.15625 0,0.19112 0.1537,0.21875 0.375,0.21875 0.69742,0 1.77508,-0.0625 2.1875,-0.0625 0.3923,0 1.36924,0.0625 2.28125,0.0625 0.33195,0 0.53125,-0.0276 0.53125,-0.21875 0,-0.10395 -0.16939,-0.15625 -0.34375,-0.15625 -0.21459,0 -0.51395,-0.0311 -0.90625,-0.125 -0.36883,-0.0838 -0.65625,-0.27509 -0.65625,-0.6875 0,-0.33866 0.0189,-0.61106 0.0625,-1 l 1.125,-8.5 0.0937,0 c 0.75778,1.60943 2.08342,4.29399 2.28125,4.75 0.25818,0.59683 1.97358,3.85797 2.5,4.84375 0.34536,0.63706 0.55217,1.0625 0.75,1.0625 0.19447,0 0.3062,-0.17825 0.8125,-1.1875 l 4.75,-9.71875 0.0937,0 1.3125,9.40625 c 0.0838,0.60018 0.0337,0.89726 -0.0937,0.9375 -0.15424,0.0671 -0.25,0.1081 -0.25,0.21875 0,0.12741 0.12205,0.20976 0.625,0.25 0.87513,0.0671 3.88761,0.125 4.4375,0.125 0.30177,0 0.5625,-0.0478 0.5625,-0.21875 0,-0.12742 -0.14928,-0.15625 -0.34375,-0.15625 -0.28165,0 -0.71339,-0.0176 -1.34375,-0.21875 -0.65048,-0.19113 -0.89928,-0.80835 -1.09375,-2.15625 l -1.9687,-13.21875 c -0.0637,-0.45266 -0.20172,-0.65625 -0.40625,-0.65625 -0.19447,0 -0.31451,0.15128 -0.46875,0.5 l -5.9375,12.21875 -5.96875,-12.0625 c -0.28165,-0.56331 -0.39485,-0.65625 -0.5625,-0.65625 z m 172.71875,0.4375 c -0.32859,0 -0.46875,0.0679 -0.46875,0.21875 0,0.14417 0.10569,0.1875 0.34375,0.1875 0.285,0 0.57564,0.0122 0.75,0.0625 0.71419,0.14417 0.88721,0.4945 0.9375,1.21875 0.0436,0.68736 0.0312,1.28219 0.0312,4.53125 l 0,3.75 c 0,1.96485 0.0136,3.66054 -0.0937,4.5625 -0.0939,0.62365 -0.22036,1.10367 -0.65625,1.1875 -0.19783,0.0436 -0.45266,0.0937 -0.78125,0.0937 -0.25818,0 -0.34375,0.0422 -0.34375,0.15625 0,0.14417 0.1525,0.21875 0.4375,0.21875 0.87513,0 2.2437,-0.0625 2.75,-0.0625 1.76367,0 3.20199,0.125 6.34375,0.125 1.12996,0 1.24423,-0.0897 1.375,-0.5625 0.17771,-0.62031 0.34375,-2.22734 0.34375,-2.46875 0,-0.25483 -0.0299,-0.375 -0.1875,-0.375 -0.16765,0 -0.23324,0.11802 -0.25,0.3125 -0.0469,0.40571 -0.29761,1.03755 -0.5625,1.3125 -0.54319,0.58006 -1.40572,0.59375 -2.5625,0.59375 -1.70332,0 -2.24946,-0.14351 -2.625,-0.46875 -0.45265,-0.3856 -0.46875,-1.88561 -0.46875,-4.625 l 0,-3.75 c 0,-3.24906 0.0189,-3.84389 0.0625,-4.53125 0.0402,-0.74772 0.21902,-1.11481 0.8125,-1.21875 0.25483,-0.0503 0.60233,-0.0625 0.84375,-0.0625 0.26153,0 0.375,-0.0433 0.375,-0.1875 0,-0.15089 -0.13238,-0.21875 -0.4375,-0.21875 -0.84831,0 -2.44568,0.0937 -2.96875,0.0937 -0.59013,0 -1.97398,-0.0937 -3,-0.0937 z m -77.0625,3.3125 c -0.171,0 -0.21875,0.2339 -0.21875,0.5625 l -0.15625,9.84375 c -0.0201,1.44514 -0.0853,1.92838 -0.53125,2.0625 -0.228,0.0671 -0.5287,0.0937 -0.75,0.0937 -0.171,0 -0.28125,0.0311 -0.28125,0.125 0,0.15423 0.1537,0.1875 0.375,0.1875 0.88519,0 1.68951,-0.0625 1.84375,-0.0625 0.31518,0 0.99732,0.0625 2.09375,0.0625 0.24477,0 0.40625,-0.0534 0.40625,-0.1875 0,-0.0939 -0.11803,-0.125 -0.3125,-0.125 -0.27159,0 -0.58664,-0.0278 -0.875,-0.125 -0.34536,-0.11736 -0.56022,-0.5495 -0.59375,-1.84375 l -0.1875,-6.96875 0.0625,0 c 0.30848,0.31182 2.18375,2.39029 4.03125,4.1875 1.76703,1.71002 3.93039,3.87916 5,4.875 0.18106,0.18776 0.41269,0.375 0.59375,0.375 0.15424,0 0.21875,-0.16578 0.21875,-0.53125 l 0.1875,-10.5 c 0.0168,-0.92878 0.14217,-1.26878 0.625,-1.40625 0.19112,-0.0503 0.329,-0.0312 0.5,-0.0312 0.19783,0 0.3125,-0.0557 0.3125,-0.15625 0,-0.13077 -0.18495,-0.15625 -0.40625,-0.15625 -0.83154,0 -1.46513,0.0625 -1.65625,0.0625 -0.35877,0 -1.17731,-0.0625 -2.0625,-0.0625 -0.25483,0 -0.4375,0.0255 -0.4375,0.15625 0,0.10059 0.0767,0.15625 0.28125,0.15625 0.228,0 0.64807,-0.007 0.90625,0.0937 0.40571,0.171 0.54574,0.48069 0.5625,1.5 l 0.1875,7.46875 -0.0937,0 c -0.285,-0.26824 -2.59322,-2.658 -3.75,-3.78125 -2.47451,-2.41416 -5.04547,-5.12581 -5.25,-5.34375 -0.28165,-0.30177 -0.44059,-0.53125 -0.625,-0.53125 z m -69.9375,0.0625 c -5.08985,0 -7,3.65666 -7,6.5 0,2.94392 1.94395,6.53125 6.8125,6.53125 4.3086,0 7.03125,-3.0035 7.03125,-6.8125 0,-3.80901 -2.61898,-6.21875 -6.84375,-6.21875 z m 46.34375,0 c -2.5248,0 -4.12661,0.65357 -5.34375,1.75 -1.63291,1.46525 -2,3.43589 -2,4.5625 0,1.61279 0.43066,3.47116 2.09375,4.90625 1.54573,1.31437 3.52013,1.8125 5.84375,1.8125 1.08302,0 2.37514,-0.11012 3.0625,-0.375 0.28165,-0.11401 0.35368,-0.215 0.4375,-0.5 0.17436,-0.56331 0.375,-2.01422 0.375,-2.21875 0,-0.13412 -0.0322,-0.25 -0.15625,-0.25 -0.13077,0 -0.1651,0.0755 -0.21875,0.34375 -0.0671,0.29506 -0.30875,0.77521 -0.59375,1.09375 -0.6773,0.76448 -1.58155,0.9375 -3.09375,0.9375 -2.26998,0 -5.34375,-1.94302 -5.34375,-5.90625 0,-1.61279 0.32189,-3.19596 1.5625,-4.3125 0.74436,-0.6639 1.70883,-1.03125 3.1875,-1.03125 1.5625,0 2.8742,0.44782 3.4375,1.03125 0.42583,0.43253 0.63613,1.00818 0.65625,1.53125 0,0.228 0.0567,0.34375 0.1875,0.34375 0.15424,0 0.16738,-0.12688 0.1875,-0.375 0.0302,-0.33866 0.0256,-1.23472 0.0625,-1.78125 0.0302,-0.58343 0.0625,-0.80674 0.0625,-0.9375 0,-0.10395 -0.0723,-0.17074 -0.25,-0.1875 -0.50966,-0.0503 -1.04037,-0.19743 -1.6875,-0.28125 -0.78125,-0.0972 -1.41591,-0.15625 -2.46875,-0.15625 z m 13.3125,0 c -5.08314,0 -7,3.65666 -7,6.5 0,2.94392 1.97185,6.53125 6.84375,6.53125 4.3086,0 7.03125,-3.0035 7.03125,-6.8125 0,-3.80901 -2.64352,-6.21875 -6.875,-6.21875 z m 24.6875,0 c -0.1073,0 -0.1651,0.0945 -0.21875,0.3125 -0.0302,0.13412 -0.34375,1.63801 -0.34375,1.90625 0,0.18776 0.0389,0.25 0.15625,0.25 0.10059,0 0.15732,-0.05 0.1875,-0.1875 0.0369,-0.13077 0.10354,-0.34899 0.28125,-0.59375 0.24812,-0.36883 0.67047,-0.43522 1.65625,-0.46875 l 2.53125,-0.0625 0,6.8125 c 0,1.52561 -0.003,2.86172 -0.0937,3.5625 -0.0503,0.48283 -0.16135,0.83919 -0.5,0.90625 -0.15088,0.0369 -0.36682,0.0625 -0.625,0.0625 -0.19783,0 -0.25,0.0445 -0.25,0.125 0,0.1207 0.12581,0.1875 0.34375,0.1875 0.6773,0 1.72935,-0.0625 2.125,-0.0625 0.47613,0 1.533,0.0625 2.65625,0.0625 0.18106,0 0.34375,-0.0668 0.34375,-0.1875 0,-0.0805 -0.10019,-0.125 -0.28125,-0.125 -0.25483,0 -0.63694,-0.0256 -0.875,-0.0625 -0.5063,-0.0671 -0.60596,-0.44019 -0.65625,-0.90625 -0.0905,-0.71755 -0.0937,-2.03689 -0.0937,-3.5625 l 0,-6.8125 2.15625,0.0312 c 1.50885,0.0436 1.95976,0.50831 2,0.9375 l 0,0.1875 c 0.0201,0.24812 0.0467,0.34375 0.1875,0.34375 0.10059,0 0.13949,-0.1136 0.15625,-0.28125 0,-0.43589 0.0625,-1.55754 0.0625,-1.90625 0,-0.25148 -0.0322,-0.375 -0.15625,-0.375 -0.13747,0 -0.51073,0.1875 -1.59375,0.1875 l -6.75,0 c -0.5566,0 -1.19126,-0.0468 -1.6875,-0.0937 -0.42918,-0.0369 -0.58463,-0.1875 -0.71875,-0.1875 z m 32.4375,0 c -5.08985,0 -7.03125,3.65666 -7.03125,6.5 0,2.94392 1.97856,6.53125 6.84375,6.53125 4.31195,0 7.03125,-3.0035 7.03125,-6.8125 0,-3.80901 -2.61898,-6.21875 -6.84375,-6.21875 z m 58.5625,0 c -2.35715,0 -3.9375,1.29761 -3.9375,3.125 0,1.3479 0.63574,2.50577 2.5,3.9375 l 0.78125,0.625 c 1.40155,1.0696 1.6875,1.83811 1.6875,2.65625 0,0.88519 -0.75228,1.875 -2.28125,1.875 -1.05284,0 -2.05861,-0.42235 -2.4375,-1.65625 -0.0838,-0.28166 -0.15625,-0.65371 -0.15625,-0.875 0,-0.13412 0.001,-0.25 -0.15625,-0.25 -0.13412,0 -0.19863,0.15477 -0.21875,0.40625 -0.0168,0.26824 -0.0625,1.26878 -0.0625,2.1875 0,0.36547 0.0443,0.44179 0.3125,0.5625 0.73431,0.30847 1.48297,0.4375 2.46875,0.4375 0.90531,0 1.86709,-0.16444 2.71875,-0.6875 1.22049,-0.79131 1.59375,-1.90599 1.59375,-2.875 0,-1.57926 -0.74263,-2.70427 -2.78125,-4.25 l -0.46875,-0.34375 c -1.41161,-1.04614 -1.8125,-1.63507 -1.8125,-2.40625 0,-0.99584 0.74263,-1.71875 2,-1.71875 1.10649,0 1.61682,0.49396 1.875,0.8125 0.35542,0.43253 0.4375,0.94286 0.4375,1.09375 0,0.20118 0.0355,0.3125 0.15625,0.3125 0.13412,0 0.1875,-0.13118 0.1875,-0.5 0,-1.29761 0.0625,-1.77535 0.0625,-2 0,-0.11401 -0.0679,-0.15062 -0.21875,-0.1875 -0.43924,-0.11401 -1.15022,-0.28125 -2.25,-0.28125 z m 10.125,0 c -2.36051,0 -3.9375,1.29761 -3.9375,3.125 0,1.3479 0.66363,2.50577 2.53125,3.9375 l 0.78125,0.625 c 1.4049,1.0696 1.65625,1.83811 1.65625,2.65625 0,0.88519 -0.75899,1.875 -2.28125,1.875 -1.05619,0 -2.06532,-0.42235 -2.4375,-1.65625 -0.0805,-0.28166 -0.125,-0.65371 -0.125,-0.875 0,-0.13412 -0.0366,-0.25 -0.1875,-0.25 -0.13747,0 -0.17744,0.15477 -0.1875,0.40625 -0.0201,0.26824 -0.0937,1.26878 -0.0937,2.1875 0,0.36547 0.0342,0.44179 0.3125,0.5625 0.7276,0.30847 1.48632,0.4375 2.46875,0.4375 0.90196,0 1.8738,-0.16444 2.71875,-0.6875 1.22715,-0.79131 1.5937,-1.90599 1.5937,-2.875 0,-1.57926 -0.74263,-2.70427 -2.78125,-4.25 l -0.46875,-0.34375 c -1.40826,-1.04614 -1.8125,-1.63507 -1.8125,-2.40625 0,-0.99584 0.77052,-1.71875 2.03125,-1.71875 1.10314,0 1.59563,0.49396 1.84375,0.8125 0.35542,0.43253 0.4375,0.94286 0.4375,1.09375 0,0.20118 0.0355,0.3125 0.15625,0.3125 0.14083,0 0.1875,-0.13118 0.1875,-0.5 0,-1.29761 0.0937,-1.77535 0.0937,-2 0,-0.11401 -0.0924,-0.15062 -0.25,-0.1875 -0.43254,-0.11401 -1.15357,-0.28125 -2.25,-0.28125 z m 36.28125,0 c -2.35715,0 -3.90625,1.29761 -3.90625,3.125 0,1.3479 0.63238,2.50577 2.5,3.9375 l 0.78125,0.625 c 1.40826,1.0696 1.6875,1.83811 1.6875,2.65625 0,0.88519 -0.75228,1.875 -2.28125,1.875 -1.05284,0 -2.07202,-0.42235 -2.4375,-1.65625 -0.0872,-0.28166 -0.15625,-0.65371 -0.15625,-0.875 0,-0.13412 -0.002,-0.25 -0.15625,-0.25 -0.13747,0 -0.19863,0.15477 -0.21875,0.40625 -0.0168,0.26824 -0.0625,1.26878 -0.0625,2.1875 0,0.36547 0.0409,0.44179 0.3125,0.5625 0.73431,0.30847 1.48297,0.4375 2.46875,0.4375 0.89525,0 1.84255,-0.16444 2.6875,-0.6875 1.22384,-0.79131 1.625,-1.90599 1.625,-2.875 0,-1.57926 -0.74934,-2.70427 -2.78125,-4.25 l -0.5,-0.34375 c -1.4049,-1.04614 -1.78125,-1.63507 -1.78125,-2.40625 0,-0.99584 0.74263,-1.71875 2,-1.71875 1.09643,0 1.62353,0.49396 1.875,0.8125 0.35542,0.43253 0.4375,0.94286 0.4375,1.09375 0,0.20118 0.0389,0.3125 0.15625,0.3125 0.13412,0 0.1875,-0.13118 0.1875,-0.5 0,-1.29761 0.0625,-1.77535 0.0625,-2 0,-0.11401 -0.0612,-0.15062 -0.21875,-0.1875 -0.43589,-0.11401 -1.17476,-0.28125 -2.28125,-0.28125 z m -192.03125,0.0937 c -0.0838,0 -0.16953,0.0491 -0.25,0.0625 -0.13747,0.0369 -0.42811,0.0636 -0.75,0.0937 -0.32189,0.0168 -3.67221,0.0312 -4.21875,0.0312 -0.47613,0 -1.56679,-0.0625 -2.46875,-0.0625 -0.25147,0 -0.34375,0.0389 -0.34375,0.15625 0,0.114 0.0968,0.15625 0.28125,0.15625 0.24142,0 0.51878,0.001 0.65625,0.0312 0.55995,0.12406 0.68522,0.37419 0.71875,0.9375 0.0369,0.53312 0.0312,0.99973 0.0312,3.53125 l 0,2.9375 c 0,1.52896 0.0247,2.86172 -0.0625,3.5625 -0.0637,0.48283 -0.1647,0.83919 -0.5,0.90625 -0.14753,0.0369 -0.37353,0.0625 -0.625,0.0625 -0.20453,0 -0.25,0.0445 -0.25,0.125 0,0.1207 0.0912,0.1875 0.3125,0.1875 0.68066,0 1.75724,-0.0625 2.15625,-0.0625 0.99584,0 2.12917,0.0937 4.6875,0.0937 0.64377,0 0.81679,-0.005 0.9375,-0.4375 0.0838,-0.33195 0.21875,-1.45816 0.21875,-1.84375 0,-0.16095 -0.0188,-0.28125 -0.15625,-0.28125 -0.11065,0 -0.15062,0.0656 -0.1875,0.25 -0.12071,0.68065 -0.31411,1.02092 -0.75,1.21875 -0.4426,0.20453 -1.15451,0.21875 -1.59375,0.21875 -1.73014,0 -1.99437,-0.25618 -2.03125,-1.40625 -0.0168,-0.47948 0,-2.03045 0,-2.59375 l 0,-1.3125 c 0,-0.0972 0.0166,-0.15625 0.0937,-0.15625 0.41577,0 2.08772,-0.006 2.40625,0.0312 0.62701,0.0637 0.88828,0.32095 0.96875,0.65625 0.0503,0.21459 0.0457,0.42945 0.0625,0.59375 0,0.0838 0.0423,0.15625 0.15625,0.15625 0.15424,0 0.15625,-0.17838 0.15625,-0.3125 0,-0.11736 0.0256,-0.78971 0.0625,-1.125 0.0469,-0.84496 0.125,-1.09027 0.125,-1.1875 0,-0.10059 -0.0613,-0.15625 -0.125,-0.15625 -0.0872,0 -0.12929,0.0846 -0.25,0.21875 -0.15424,0.16429 -0.43133,0.21647 -0.84375,0.25 -0.38895,0.0369 -2.30526,0.0312 -2.6875,0.0312 -0.10059,0 -0.125,-0.0701 -0.125,-0.1875 l 0,-4.1875 c 0,-0.11401 0.0412,-0.1875 0.125,-0.1875 0.34201,0 2.12125,0.029 2.40625,0.0625 0.85166,0.10059 1.00765,0.29868 1.125,0.59375 0.0872,0.20453 0.0937,0.50093 0.0937,0.625 0,0.14082 0.0288,0.21875 0.15625,0.21875 0.11065,0 0.16738,-0.11039 0.1875,-0.1875 0.0335,-0.20454 0.0491,-0.92275 0.0625,-1.09375 0.0503,-0.76784 0.15625,-0.9485 0.15625,-1.0625 0,-0.0872 -0.0378,-0.15625 -0.125,-0.15625 z m 137.9375,0 c -0.0838,0 -0.16282,0.0491 -0.25,0.0625 -0.13412,0.0369 -0.39686,0.0636 -0.71875,0.0937 -0.32189,0.0168 -3.70681,0.0312 -4.25,0.0312 -0.47613,0 -1.54225,-0.0625 -2.4375,-0.0625 -0.25818,0 -0.375,0.0389 -0.375,0.15625 0,0.114 0.0968,0.15625 0.28125,0.15625 0.24142,0 0.51878,0.001 0.65625,0.0312 0.55324,0.12406 0.68522,0.37419 0.71875,0.9375 0.0302,0.53312 0.0312,0.99973 0.0312,3.53125 l 0,2.9375 c 0,1.52896 0.018,2.86172 -0.0625,3.5625 -0.0738,0.48283 -0.16135,0.83919 -0.5,0.90625 -0.15759,0.0369 -0.37017,0.0625 -0.625,0.0625 -0.20453,0 -0.25,0.0445 -0.25,0.125 0,0.1207 0.12581,0.1875 0.34375,0.1875 0.6773,0 1.73605,-0.0625 2.125,-0.0625 0.99919,0 2.15371,0.0937 4.71875,0.0937 0.64042,0 0.7956,-0.005 0.90625,-0.4375 0.0872,-0.33195 0.21875,-1.45816 0.21875,-1.84375 0,-0.16095 0.0125,-0.28125 -0.125,-0.28125 -0.11735,0 -0.16068,0.0656 -0.1875,0.25 -0.12406,0.68065 -0.33865,1.02092 -0.78125,1.21875 -0.4426,0.20453 -1.15451,0.21875 -1.59375,0.21875 -1.73014,0 -2.00107,-0.25618 -2.03125,-1.40625 -0.0201,-0.47948 0,-2.03045 0,-2.59375 l 0,-1.3125 c 0,-0.0972 0.003,-0.15625 0.0937,-0.15625 0.40571,0 2.08436,-0.006 2.40625,0.0312 0.63036,0.0637 0.88493,0.32095 0.96875,0.65625 0.057,0.21459 0.0491,0.42945 0.0625,0.59375 0,0.0838 0.0423,0.15625 0.15625,0.15625 0.15424,0 0.15625,-0.17838 0.15625,-0.3125 0,-0.11736 0.0256,-0.78971 0.0625,-1.125 0.0436,-0.84496 0.125,-1.09027 0.125,-1.1875 0,-0.10059 -0.0546,-0.15625 -0.125,-0.15625 -0.0805,0 -0.136,0.0846 -0.25,0.21875 -0.15088,0.16429 -0.43468,0.21647 -0.84375,0.25 -0.38559,0.0369 -2.31196,0.0312 -2.6875,0.0312 -0.1073,0 -0.125,-0.0701 -0.125,-0.1875 l 0,-4.1875 c 0,-0.11401 0.0345,-0.1875 0.125,-0.1875 0.33865,0 2.12125,0.029 2.40625,0.0625 0.84831,0.10059 1.00429,0.29868 1.125,0.59375 0.0838,0.20453 0.0937,0.50093 0.0937,0.625 0,0.14082 0.0389,0.21875 0.15625,0.21875 0.12406,0 0.17409,-0.11039 0.1875,-0.1875 0.0335,-0.20454 0.0736,-0.92275 0.0937,-1.09375 0.0469,-0.76784 0.125,-0.9485 0.125,-1.0625 0,-0.0872 -0.0378,-0.15625 -0.125,-0.15625 z m -158.84375,0.125 c -0.25483,0 -0.375,0.0389 -0.375,0.15625 0,0.114 0.0935,0.15625 0.28125,0.15625 0.23136,0 0.51878,-0.002 0.65625,0.0312 0.5566,0.1207 0.71312,0.37419 0.75,0.9375 0.0335,0.53312 0.0312,0.99973 0.0312,3.53125 l 0,2.9375 c 0,1.52561 -0.007,2.86172 -0.0937,3.5625 -0.0637,0.48283 -0.15464,0.83919 -0.5,0.90625 -0.14753,0.0369 -0.33222,0.0625 -0.59375,0.0625 -0.19783,0 -0.28125,0.0445 -0.28125,0.125 0,0.1207 0.12581,0.1875 0.34375,0.1875 0.68066,0 1.74397,-0.0625 2.0625,-0.0625 0.25818,0 1.51422,0.0625 2.5,0.0625 0.2213,0 0.34375,-0.0668 0.34375,-0.1875 0,-0.0805 -0.0779,-0.125 -0.21875,-0.125 -0.20453,0 -0.56103,-0.0256 -0.8125,-0.0625 -0.50966,-0.0671 -0.63385,-0.42342 -0.6875,-0.90625 -0.0838,-0.70078 -0.0625,-2.01677 -0.0625,-3.5625 l 0,-0.25 c 0,-0.10059 0.0445,-0.125 0.125,-0.125 l 1.46875,0.0312 c 0.12071,0 0.22532,0.0211 0.3125,0.125 0.21794,0.24476 1.0102,1.37258 1.6875,2.28125 0.94554,1.28084 1.5849,2.05525 2.3125,2.4375 0.4426,0.23471 0.86025,0.34375 1.8125,0.34375 l 1.625,0 c 0.20789,0 0.3125,-0.0534 0.3125,-0.1875 0,-0.0805 -0.0567,-0.125 -0.1875,-0.125 -0.14418,0 -0.28434,-0.0323 -0.46875,-0.0625 -0.25818,-0.0537 -0.95065,-0.1627 -1.90625,-1.125 -0.99919,-1.03273 -2.17865,-2.51074 -3.6875,-4.375 1.71673,-1.36467 2.25,-2.49156 2.25,-3.71875 0,-1.11655 -0.68348,-1.96943 -1.15625,-2.28125 -0.91201,-0.61696 -2.05204,-0.71875 -3.125,-0.71875 -0.52307,0 -1.82618,0.0625 -2.40625,0.0625 -0.35206,0 -1.4139,-0.0625 -2.3125,-0.0625 z m 88.46875,0 c -0.25147,0 -0.375,0.0389 -0.375,0.15625 0,0.114 0.0968,0.15625 0.28125,0.15625 0.23806,0 0.55338,-0.002 0.6875,0.0312 0.55995,0.1207 0.68857,0.37419 0.71875,0.9375 0.0369,0.53312 0.0312,0.99973 0.0312,3.53125 l 0,2.9375 c 0,1.52561 -0.007,2.86172 -0.0937,3.5625 -0.0637,0.48283 -0.16135,0.83919 -0.5,0.90625 -0.14753,0.0369 -0.34228,0.0625 -0.59375,0.0625 -0.20453,0 -0.28125,0.0445 -0.28125,0.125 0,0.1207 0.12245,0.1875 0.34375,0.1875 0.6773,0 1.76516,-0.0625 2.09375,-0.0625 0.24812,0 1.48632,0.0625 2.46875,0.0625 0.2213,0 0.34375,-0.0668 0.34375,-0.1875 0,-0.0805 -0.0534,-0.125 -0.1875,-0.125 -0.20453,0 -0.59228,-0.0256 -0.84375,-0.0625 -0.5063,-0.0671 -0.60596,-0.42342 -0.65625,-0.90625 -0.0838,-0.70078 -0.0937,-2.01677 -0.0937,-3.5625 l 0,-0.25 c 0,-0.10059 0.0412,-0.125 0.125,-0.125 l 1.5,0.0312 c 0.12071,0 0.19407,0.0211 0.28125,0.125 0.21794,0.24476 1.01355,1.37258 1.6875,2.28125 0.9556,1.28084 1.58825,2.05525 2.3125,2.4375 0.44595,0.23471 0.8915,0.34375 1.84375,0.34375 l 1.59375,0 c 0.20453,0 0.34375,-0.0534 0.34375,-0.1875 0,-0.0805 -0.0779,-0.125 -0.21875,-0.125 -0.13412,0 -0.28769,-0.0323 -0.46875,-0.0625 -0.25483,-0.0537 -0.95735,-0.1627 -1.90625,-1.125 -1.00255,-1.03273 -2.17865,-2.51074 -3.6875,-4.375 1.71333,-1.36467 2.24995,-2.49156 2.24995,-3.71875 0,-1.11655 -0.68012,-1.96943 -1.15625,-2.28125 -0.91872,-0.61696 -2.05539,-0.71875 -3.125,-0.71875 -0.52642,0 -1.79829,0.0625 -2.375,0.0625 -0.35877,0 -1.44515,-0.0625 -2.34375,-0.0625 z m 28.90625,0 c -0.25483,0 -0.375,0.0422 -0.375,0.15625 0,0.114 0.12473,0.15625 0.3125,0.15625 0.21459,0 0.39378,-0.002 0.53125,0.0312 0.55995,0.12406 0.71312,0.40209 0.75,0.96875 0.0268,0.53312 0.0312,0.99973 0.0312,3.53125 l 0,2.90625 c 0,1.52896 -0.0166,2.86507 -0.0937,3.5625 -0.0637,0.48283 -0.15464,0.83919 -0.5,0.90625 -0.14753,0.0335 -0.33892,0.0625 -0.59375,0.0625 -0.20789,0 -0.28125,0.0479 -0.28125,0.125 0,0.1207 0.12581,0.1875 0.34375,0.1875 0.68401,0 1.73941,-0.0625 2.125,-0.0625 1.37473,0 2.49652,0.0937 4.9375,0.0937 0.88519,0 0.98981,-0.0754 1.09375,-0.4375 0.14083,-0.48284 0.25,-1.71849 0.25,-1.90625 0,-0.19783 -0.011,-0.3125 -0.125,-0.3125 -0.14083,0 -0.19863,0.0991 -0.21875,0.25 -0.0369,0.31853 -0.23632,0.78205 -0.4375,1 -0.42248,0.4493 -1.06679,0.46875 -1.96875,0.46875 -1.32443,0 -1.77414,-0.0956 -2.0625,-0.34375 -0.35206,-0.30177 -0.34375,-1.46125 -0.34375,-3.59375 l 0,-2.90625 c 0,-2.53152 0.001,-2.99813 0.0312,-3.53125 0.0335,-0.58007 0.17235,-0.88158 0.625,-0.96875 0.20789,-0.0335 0.47184,-0.0312 0.65625,-0.0312 0.20118,0 0.3125,-0.0423 0.3125,-0.15625 0,-0.11401 -0.13358,-0.15625 -0.375,-0.15625 -0.66389,0 -1.87554,0.0625 -2.28125,0.0625 -0.45265,0 -1.54238,-0.0625 -2.34375,-0.0625 z m 70.40625,0 c -0.25483,0 -0.40625,0.0389 -0.40625,0.15625 0,0.114 0.12473,0.15625 0.3125,0.15625 0.23136,0 0.51878,-0.002 0.65625,0.0312 0.55324,0.1207 0.67851,0.37419 0.71875,0.9375 0.0369,0.53312 0.0625,0.99973 0.0625,3.53125 l 0,2.9375 c 0,1.52561 -0.003,2.86172 -0.0937,3.5625 -0.0637,0.48283 -0.15799,0.83919 -0.5,0.90625 -0.14418,0.0369 -0.36682,0.0625 -0.625,0.0625 -0.19447,0 -0.25,0.0445 -0.25,0.125 0,0.1207 0.12245,0.1875 0.34375,0.1875 0.67395,0 1.73726,-0.0625 2.0625,-0.0625 0.25483,0 1.50751,0.0625 2.5,0.0625 0.21459,0 0.3125,-0.0668 0.3125,-0.1875 0,-0.0805 -0.0534,-0.125 -0.1875,-0.125 -0.21124,0 -0.58557,-0.0256 -0.84375,-0.0625 -0.50966,-0.0671 -0.60931,-0.42342 -0.65625,-0.90625 -0.0872,-0.70078 -0.0937,-2.01677 -0.0937,-3.5625 l 0,-0.25 c 0,-0.10059 0.0758,-0.125 0.15625,-0.125 l 1.46875,0.0312 c 0.12071,0 0.22868,0.0211 0.3125,0.125 0.2213,0.24476 1.00684,1.37258 1.6875,2.28125 0.9489,1.28084 1.5849,2.05525 2.3125,2.4375 0.4426,0.23471 0.86025,0.34375 1.8125,0.34375 l 1.625,0 c 0.1534,0 0.2396,-0.0268 0.28125,-0.0937 0.0466,0.0579 0.15538,0.0937 0.3125,0.0937 0.68401,0 1.72935,-0.0625 2.125,-0.0625 0.45601,0 1.5397,0.0625 2.65625,0.0625 0.18777,0 0.3125,-0.0668 0.3125,-0.1875 0,-0.0805 -0.0622,-0.125 -0.25,-0.125 -0.25483,0 -0.63694,-0.0256 -0.875,-0.0625 -0.51636,-0.0671 -0.63721,-0.35985 -0.6875,-0.8125 -0.0671,-0.71084 -0.0625,-2.04011 -0.0625,-3.65625 l 0,-2.9375 c 0,-2.53152 -0.002,-2.99813 0.0312,-3.53125 0.0335,-0.58007 0.16564,-0.85033 0.625,-0.9375 0.20118,-0.0302 0.33235,-0.0312 0.5,-0.0312 0.171,0 0.28125,-0.0567 0.28125,-0.1875 0,-0.10059 -0.12916,-0.125 -0.34375,-0.125 -0.64377,0 -1.66792,0.0625 -2.09375,0.0625 -0.49289,0 -1.53702,-0.0625 -2.1875,-0.0625 -0.26824,0 -0.40625,0.0244 -0.40625,0.125 0,0.13076 0.079,0.1875 0.25,0.1875 0.20453,0 0.43723,0.0156 0.625,0.0625 0.37554,0.0905 0.53232,0.34294 0.5625,0.90625 0.0369,0.53312 0.0625,0.99973 0.0625,3.53125 l 0,2.9375 c 0,1.61614 -0.01,2.92422 -0.0937,3.625 -0.0536,0.47947 -0.16135,0.77669 -0.5,0.84375 -0.15759,0.0369 -0.34228,0.0625 -0.59375,0.0625 -0.16791,0 -0.22781,0.0387 -0.25,0.0937 -0.0193,-0.055 -0.0738,-0.0937 -0.1875,-0.0937 -0.13412,0 -0.28434,-0.0323 -0.46875,-0.0625 -0.25818,-0.0537 -0.954,-0.1627 -1.90625,-1.125 -0.99919,-1.03273 -2.1474,-2.51074 -3.65625,-4.375 1.71003,-1.36467 2.21875,-2.49156 2.21875,-3.71875 0,-1.11655 -0.67342,-1.96943 -1.15625,-2.28125 -0.91211,-0.61696 -2.05214,-0.71875 -3.1251,-0.71875 -0.51971,0 -1.79829,0.0625 -2.375,0.0625 -0.35542,0 -1.41725,-0.0625 -2.3125,-0.0625 z m 30.6875,0 c -0.25818,0 -0.375,0.0422 -0.375,0.15625 0,0.114 0.0968,0.15625 0.28125,0.15625 0.24142,0 0.52213,-0.002 0.65625,0.0312 0.55995,0.12406 0.71312,0.40209 0.75,0.96875 0.0302,0.52977 0.0312,0.99638 0.0312,3.53125 l 0,2.90625 c 0,1.52896 -0.01,2.86172 -0.0937,3.5625 -0.0704,0.48283 -0.16135,0.84254 -0.5,0.90625 -0.15424,0.0369 -0.33892,0.0625 -0.59375,0.0625 -0.20453,0 -0.28125,0.0445 -0.28125,0.125 0,0.1207 0.12916,0.1875 0.34375,0.1875 0.68066,0 1.73941,-0.0625 2.125,-0.0625 0.42583,0 1.51985,0.0625 2.46875,0.0625 0.19447,0 0.3125,-0.0668 0.3125,-0.1875 0,-0.0805 -0.0813,-0.125 -0.21875,-0.125 -0.22465,0 -0.59898,-0.0256 -0.84375,-0.0625 -0.41577,-0.0637 -0.56022,-0.44019 -0.59375,-0.90625 -0.0536,-0.71755 -0.0625,-2.03354 -0.0625,-3.5625 l 0,-1.5 0.0937,0 0.1875,0.25 c 0.35877,0.48283 3.69314,4.32497 4.4375,4.96875 0.73431,0.63706 1.20628,0.98202 2.125,1.0625 0.35206,0.0402 0.64995,0.0625 1.15625,0.0625 l 1.46875,0 c 0.32189,0 0.40625,-0.0668 0.40625,-0.1875 0,-0.0939 -0.1014,-0.125 -0.21875,-0.125 -0.20453,0 -0.5562,-0.0455 -1.0625,-0.25 -0.91537,-0.34536 -1.66524,-1.10838 -2.40625,-1.8125 -0.6672,-0.6136 -3.98681,-4.1183 -4.5937,-4.90625 0.56666,-0.59348 3.12648,-3.09081 3.65625,-3.59375 0.73095,-0.70078 1.31733,-1.02428 1.84375,-1.21875 0.32524,-0.12071 0.73404,-0.1875 0.96875,-0.1875 0.17436,0 0.25,-0.0423 0.25,-0.15625 0,-0.11401 -0.1136,-0.15625 -0.28125,-0.15625 -0.52642,0 -1.44568,0.0625 -1.96875,0.0625 -0.45936,0 -1.39123,-0.0625 -1.75,-0.0625 -0.18441,0 -0.28125,0.0422 -0.28125,0.15625 0,0.10059 0.0712,0.12272 0.21875,0.15625 0.16765,0.0335 0.21875,0.16604 0.21875,0.34375 0,0.28165 -0.36762,0.69675 -0.84375,1.25 -0.49289,0.55995 -2.96124,3.03929 -3.53125,3.65625 l -0.0937,0 0,-0.71875 c 0,-2.53487 -0.006,-3.00148 0.0312,-3.53125 0.0302,-0.58007 0.17235,-0.88158 0.625,-0.96875 0.21124,-0.0335 0.29775,-0.0312 0.46875,-0.0312 0.13412,0 0.25,-0.0423 0.25,-0.15625 0,-0.11401 -0.10904,-0.15625 -0.34375,-0.15625 -0.57671,0 -1.65343,0.0625 -2.0625,0.0625 -0.40236,0 -1.47975,-0.0625 -2.375,-0.0625 z m -227.78125,0.5625 c 2.78299,0 4.96875,2.33397 4.96875,6.0625 0,4.80484 -2.74383,5.34375 -3.9375,5.34375 -3.25576,0 -5.1875,-2.73057 -5.1875,-6.1875 0,-4.14766 2.20481,-5.21875 4.15625,-5.21875 z m 59.6875,0 c 2.77628,0 4.96875,2.33397 4.96875,6.0625 0,4.80484 -2.75054,5.34375 -3.9375,5.34375 -3.25911,0 -5.21875,-2.73057 -5.21875,-6.1875 0,-4.14766 2.23606,-5.21875 4.1875,-5.21875 z m 57.09375,0 c 2.78634,0 4.96875,2.33397 4.96875,6.0625 0,4.80484 -2.75054,5.34375 -3.9375,5.34375 -3.26246,0 -5.21875,-2.73057 -5.21875,-6.1875 0,-4.14766 2.23606,-5.21875 4.1875,-5.21875 z m -103.625,0.21875 c 0.15047,-0.0117 0.32169,0 0.53125,0 1.00925,0 2.625,0.67409 2.625,3.03125 0,1.36466 -0.52495,2.13452 -1.03125,2.5 -0.30177,0.21459 -0.50684,0.3125 -1.1875,0.3125 -0.42918,0 -0.92248,-0.0701 -1.28125,-0.1875 -0.11735,-0.0503 -0.15625,-0.0968 -0.15625,-0.28125 l 0,-5.0625 c 0,-0.13412 0.0389,-0.22318 0.15625,-0.25 0.0872,-0.0268 0.19328,-0.0508 0.34375,-0.0625 z m 88.46875,0 c 0.15088,-0.0117 0.35294,0 0.5625,0 1.0059,0 2.59375,0.67409 2.59375,3.03125 0,1.36466 -0.48699,2.13452 -1,2.5 -0.29842,0.21459 -0.54145,0.3125 -1.21875,0.3125 -0.42583,0 -0.92583,-0.0701 -1.28125,-0.1875 -0.11735,-0.0503 -0.15625,-0.0968 -0.15625,-0.28125 l 0,-5.0625 c 0,-0.13412 0.0389,-0.22318 0.15625,-0.25 0.0822,-0.0268 0.19287,-0.0508 0.34375,-0.0625 z m 99.3125,0 c 0.15047,-0.0117 0.32169,0 0.53125,0 1.0059,0 2.59375,0.67409 2.59375,3.03125 0,1.36466 -0.48699,2.13452 -1,2.5 -0.30177,0.21459 -0.5102,0.3125 -1.1875,0.3125 -0.43254,0 -0.95708,-0.0701 -1.3125,-0.1875 -0.12071,-0.0503 -0.15625,-0.0968 -0.15625,-0.28125 l 0,-5.0625 c 0,-0.13412 0.0355,-0.22318 0.15625,-0.25 0.0838,-0.0268 0.22453,-0.0508 0.375,-0.0625 z m -63.15625,9.71875 c -0.7276,0 -1.03125,0.58422 -1.03125,1 0,0.46606 0.32712,1.03125 1.03125,1.03125 0.65048,0 1.03125,-0.47573 1.03125,-1.0625 0,-0.58007 -0.45454,-0.96875 -1.03125,-0.96875 z m 105.25,0 c -0.73095,0 -1.03125,0.58422 -1.03125,1 0,0.46606 0.28246,1.03125 1,1.03125 0.64377,0 1.0625,-0.47573 1.0625,-1.0625 0,-0.58007 -0.44783,-0.96875 -1.03125,-0.96875 z"
       id="path240"
       style="fill:#6c696a;fill-opacity:1;fill-rule:nonzero;stroke:none" />
    <path
       d="m 416.12277,444.53183 c -0.43924,0 -0.77656,0.43964 -0.9375,1.28125 l -5.40625,32.34375 c -0.27495,1.68655 -0.68643,3.63908 -2.21875,3.9375 -0.81478,0.14753 -1.22707,0.125 -1.65625,0.125 -0.54989,0 -0.84375,0.0956 -0.84375,0.34375 0,0.43924 0.42221,0.5625 0.96875,0.5625 1.74356,0 4.37353,-0.15625 5.40625,-0.15625 0.98578,0 3.42866,0.15625 5.71875,0.15625 0.81813,0 1.3125,-0.12326 1.3125,-0.5625 0,-0.24813 -0.37996,-0.34375 -0.8125,-0.34375 -0.54989,0 -1.33007,-0.0522 -2.3125,-0.25 -0.93213,-0.20118 -1.625,-0.62031 -1.625,-1.5625 0,-0.79802 0.0423,-1.44515 0.15625,-2.34375 l 2.84375,-19.75 0.21875,0 c 1.91121,3.72182 5.17342,9.98846 5.65625,11.03125 0.66054,1.38814 4.97023,8.97331 6.28125,11.25 0.87178,1.49208 1.41336,2.46875 1.90625,2.46875 0.48954,0 0.77388,-0.44757 2.03125,-2.78125 l 11.875,-22.5 0.21875,0 3.28125,21.8125 c 0.21794,1.39819 0.044,2.03111 -0.28125,2.125 -0.37889,0.15423 -0.59375,0.31437 -0.59375,0.5625 0,0.30176 0.33973,0.43736 1.59375,0.53125 2.1828,0.15423 9.69448,0.3125 11.0625,0.3125 0.76448,0 1.4375,-0.1635 1.4375,-0.5625 0,-0.30177 -0.38546,-0.34375 -0.875,-0.34375 -0.71083,0 -1.81693,-0.0507 -3.40625,-0.5 -1.63291,-0.44931 -2.16671,-1.87501 -2.65625,-5 l -4.96875,-30.65625 c -0.16094,-1.03943 -0.48592,-1.53125 -0.96875,-1.53125 -0.49624,0 -0.83316,0.39284 -1.21875,1.1875 l -14.84375,28.3125 -14.875,-27.96875 c -0.70078,-1.29091 -1.03286,-1.53125 -1.46875,-1.53125 z m -208.375,0.40625 c -7.58112,0 -12.59375,3.91632 -12.59375,9.375 0,4.01688 2.06399,7.48499 8.0625,11.75 l 2.53125,1.78125 c 4.5299,3.17528 5.34375,5.50657 5.34375,7.9375 0,2.62874 -2.40372,5.65625 -7.3125,5.65625 -3.38317,0 -6.61213,-1.33183 -7.8125,-5 -0.27159,-0.84496 -0.46875,-1.88748 -0.46875,-2.53125 0,-0.39901 -0.0663,-0.84375 -0.5625,-0.84375 -0.43254,0 -0.6026,0.53688 -0.65625,1.28125 -0.057,0.79466 -0.28125,3.77401 -0.28125,6.5 0,1.09307 0.19072,1.34214 1.0625,1.6875 2.3471,0.94554 4.77227,1.28125 7.9375,1.28125 2.89028,0 5.96487,-0.43858 8.6875,-2.03125 3.92971,-2.32698 5.125,-5.74814 5.125,-8.625 0,-4.71096 -2.39246,-8.04253 -8.9375,-12.65625 l -1.53125,-1.03125 c -4.52654,-3.125 -5.78125,-4.86951 -5.78125,-7.15625 0,-2.97411 2.46635,-5.09375 6.5,-5.09375 3.55082,0 5.11937,1.4953 5.9375,2.4375 1.14337,1.2909 1.40625,2.80069 1.40625,3.25 0,0.59012 0.18026,0.90625 0.5625,0.90625 0.43924,0 0.59375,-0.41028 0.59375,-1.5 0,-3.86601 0.21875,-5.29373 0.21875,-5.9375 0,-0.34872 -0.28836,-0.49652 -0.78125,-0.59375 -1.41832,-0.35207 -3.70589,-0.84375 -7.25,-0.84375 z m 65.6875,0.6875 c -0.81813,0 -1.1875,0.0888 -1.1875,0.4375 0,0.34535 0.30606,0.46875 0.90625,0.46875 0.76448,0 1.68911,0.0278 2.125,0.125 1.80056,0.34871 2.2331,1.15384 2.34375,2.84375 0.11065,1.58931 0.125,2.96246 0.125,10.5 l 0,14.25 c 0,9.72368 0.0539,14.68094 -4.09375,18.5 -1.08972,0.98578 -1.91752,1.52628 -2.625,1.875 -0.92543,0.44594 -1.1875,0.66483 -1.1875,0.90625 0,0.25147 0.21956,0.375 0.4375,0.375 0.27159,0 0.71151,-0.0834 1.09375,-0.28125 1.14672,-0.49625 2.01127,-0.88895 2.71875,-1.28125 5.23738,-2.93052 8.13453,-6.3506 9.28125,-9.375 1.08637,-2.77628 1.3125,-5.95468 1.3125,-8.78125 0,-2.48122 -0.1875,-4.87085 -0.1875,-7 l 0,-9.1875 c 0,-7.53754 0.011,-8.91069 0.125,-10.5 0.1073,-1.73686 0.55593,-2.59563 2.03125,-2.84375 0.65048,-0.0972 0.96231,-0.125 1.5625,-0.125 0.65383,0 1,-0.1234 1,-0.46875 0,-0.34872 -0.39177,-0.4375 -1.15625,-0.4375 -2.1258,0 -5.56733,0.15625 -6.875,0.15625 -1.42167,0 -4.85972,-0.15625 -7.75,-0.15625 z m 318.5625,8.5 c -0.41242,0 -0.63546,0.42033 -1.125,1.5 l -10.28125,23.34375 c -0.82484,1.85755 -1.58437,3.11909 -3.46875,3.34375 -0.33195,0.0402 -0.91577,0.0937 -1.28125,0.0937 -0.32524,0 -0.5,0.0633 -0.5,0.28125 0,0.30176 0.24812,0.375 0.78125,0.375 2.1258,0 4.40115,-0.0937 4.84375,-0.0937 1.27078,0 3.03608,0.0937 4.34375,0.0937 0.45265,0 0.6875,-0.0732 0.6875,-0.375 0,-0.21795 -0.12876,-0.28125 -0.625,-0.28125 l -0.625,0 c -1.26408,0 -1.625,-0.48566 -1.625,-1.15625 0,-0.44595 0.21593,-1.34912 0.625,-2.28125 l 2.1875,-5.3125 c 0.0805,-0.2213 0.17382,-0.28125 0.375,-0.28125 l 9.125,0 c 0.21124,0 0.32913,0.0622 0.40625,0.25 l 3.28125,7.875 c 0.20118,0.44259 -0.0833,0.80123 -0.375,0.875 -0.40571,0.0369 -0.5625,0.0945 -0.5625,0.3125 0,0.25818 0.48109,0.26891 1.21875,0.3125 3.26917,0.0704 6.28139,0.0625 7.75,0.0625 1.51555,0 1.875,-0.0732 1.875,-0.375 0,-0.25819 -0.20936,-0.28125 -0.53125,-0.28125 -0.49624,0 -1.10851,-0.0423 -1.71875,-0.15625 -0.86172,-0.18442 -2.04802,-0.71957 -3.59375,-4.0625 -2.62204,-5.65651 -9.17382,-20.82633 -10.15625,-22.875 -0.40907,-0.85502 -0.66242,-1.1875 -1.03125,-1.1875 z m -369.21875,0.3125 c -0.24477,0 -0.37594,0.20802 -0.5,0.6875 -0.0838,0.29841 -0.875,3.68441 -0.875,4.28125 0,0.40906 0.09,0.59375 0.375,0.59375 0.24477,0 0.38493,-0.13909 0.46875,-0.4375 0.0805,-0.29507 0.27843,-0.75926 0.6875,-1.3125 0.6136,-0.81814 1.59148,-0.98874 3.96875,-1.0625 l 6.09375,-0.15625 0,15.25 c 0,3.4234 -0.0109,6.375 -0.21875,7.9375 -0.12071,1.07966 -0.36937,1.88371 -1.1875,2.03125 -0.37218,0.0738 -0.8518,0.15625 -1.46875,0.15625 -0.48954,0 -0.65625,0.0968 -0.65625,0.28125 0,0.26153 0.30727,0.375 0.84375,0.375 1.63626,0 4.18281,-0.0937 5.125,-0.0937 1.14672,0 3.73834,0.0937 6.4375,0.0937 0.45265,0 0.78125,-0.11347 0.78125,-0.375 0,-0.18442 -0.2036,-0.28125 -0.65625,-0.28125 -0.6136,0 -1.52374,-0.0825 -2.09375,-0.15625 -1.2272,-0.14754 -1.46969,-0.95722 -1.59375,-2 -0.20453,-1.59938 -0.1875,-4.54535 -0.1875,-7.96875 l 0,-15.25 5.15625,0.125 c 3.64135,0.0704 4.73203,1.09683 4.8125,2.0625 l 0.0312,0.40625 c 0.0402,0.55659 0.14351,0.75 0.46875,0.75 0.24477,0 0.33476,-0.22157 0.375,-0.59375 0,-0.96902 0.125,-3.53126 0.125,-4.3125 0,-0.55995 -0.0588,-0.78125 -0.34375,-0.78125 -0.32859,0 -1.31881,0.375 -3.9375,0.375 l -16.1875,0 c -1.35126,0 -2.90679,-0.0735 -4.09375,-0.1875 -1.02266,-0.0704 -1.42141,-0.4375 -1.75,-0.4375 z m 340.0625,0 c -6.09574,0 -9.99022,1.4831 -12.9375,3.9375 -3.92636,3.27587 -4.78125,7.65934 -4.78125,10.1875 0,3.60782 1.05232,7.76999 5.0625,10.96875 3.72518,2.94057 8.42504,4.0625 14.03125,4.0625 2.61869,0 5.74209,-0.25363 7.375,-0.84375 0.69742,-0.26154 0.86132,-0.46339 1.0625,-1.09375 0.40571,-1.26744 0.90625,-4.49156 0.90625,-4.9375 0,-0.29842 -0.0933,-0.5625 -0.375,-0.5625 -0.33195,0 -0.40384,0.15652 -0.53125,0.75 -0.16094,0.67059 -0.70883,1.73001 -1.40625,2.4375 -1.63291,1.71338 -3.83075,2.09375 -7.46875,2.09375 -5.4855,0 -12.90625,-4.40145 -12.90625,-13.25 0,-3.61118 0.80044,-7.13373 3.78125,-9.625 1.80726,-1.48538 4.12662,-2.3125 7.6875,-2.3125 3.76206,0 6.9646,1.00818 8.3125,2.3125 1.02937,0.96901 1.55016,2.25617 1.59375,3.40625 0,0.52306 0.0844,0.84375 0.40625,0.84375 0.36883,0 0.45976,-0.31841 0.5,-0.875 0.0771,-0.74437 0.0479,-2.76946 0.125,-4 0.0872,-1.30097 0.1875,-1.76409 0.1875,-2.0625 0,-0.2213 -0.1757,-0.40062 -0.625,-0.4375 -1.2272,-0.11065 -2.53461,-0.44059 -4.09375,-0.625 -1.88103,-0.22466 -3.36803,-0.375 -5.90625,-0.375 z m -178.84375,0.21875 c -0.20789,0 -0.45172,0.11936 -0.65625,0.15625 -0.32859,0.0704 -0.97211,0.14163 -1.75,0.21875 -0.77789,0.0335 -8.93563,0.0312 -10.25,0.0312 -1.14337,0 -3.70897,-0.125 -5.875,-0.125 -0.6136,0 -0.90625,0.0856 -0.90625,0.34375 0,0.26153 0.2382,0.34375 0.6875,0.34375 0.57336,0 1.26516,0.02 1.59375,0.0937 1.3479,0.26153 1.70078,0.86092 1.78125,2.125 0.0805,1.19031 0.0625,2.2531 0.0625,7.90625 l 0,6.53125 c 0,3.4234 0.017,6.37165 -0.1875,7.9375 -0.15424,1.07631 -0.36602,1.88036 -1.1875,2.03125 -0.36212,0.0738 -0.85851,0.15625 -1.46875,0.15625 -0.49289,0 -0.65625,0.0968 -0.65625,0.28125 0,0.26153 0.27937,0.375 0.8125,0.375 1.63291,0 4.21406,-0.0937 5.15625,-0.0937 2.41416,0 5.16753,0.21875 11.34375,0.21875 1.55579,0 1.9025,0.007 2.1875,-0.96875 0.20789,-0.74102 0.53125,-3.26664 0.53125,-4.125 0,-0.37219 0.0161,-0.6875 -0.3125,-0.6875 -0.28836,0 -0.36373,0.15343 -0.4375,0.5625 -0.28836,1.52225 -0.78085,2.30069 -1.84375,2.75 -1.0629,0.44259 -2.8121,0.46875 -3.875,0.46875 -4.17448,0 -4.82578,-0.55326 -4.90625,-3.125 -0.0402,-1.07632 0,-4.51718 0,-5.78125 l 0,-2.9375 c 0,-0.2213 0.0455,-0.375 0.25,-0.375 0.98578,0 5.03125,0.0512 5.8125,0.125 1.5122,0.15088 2.10461,0.68978 2.3125,1.4375 0.12071,0.47947 0.11601,0.97156 0.15625,1.34375 0,0.18441 0.052,0.34375 0.34375,0.34375 0.36883,0 0.375,-0.42034 0.375,-0.71875 0,-0.26154 0.0758,-1.75564 0.15625,-2.5 0.12741,-1.89445 0.34375,-2.4941 0.34375,-2.71875 0,-0.22466 -0.12031,-0.28125 -0.28125,-0.28125 -0.20453,0 -0.37125,0.17033 -0.65625,0.46875 -0.36883,0.37218 -0.97626,0.48538 -1.96875,0.5625 -0.93549,0.0738 -5.65719,0.0937 -6.5625,0.0937 -0.24142,0 -0.28125,-0.14807 -0.28125,-0.40625 l 0,-9.4375 c 0,-0.26154 0.0801,-0.375 0.28125,-0.375 0.82819,0 5.12178,0.0791 5.8125,0.15625 2.04868,0.22129 2.46164,0.67315 2.75,1.34375 0.20789,0.44594 0.25,1.08221 0.25,1.34375 0,0.33529 0.0866,0.53125 0.375,0.53125 0.28836,0 0.35931,-0.24974 0.40625,-0.4375 0.0771,-0.44595 0.17516,-2.06868 0.21875,-2.4375 0.11735,-1.71338 0.3125,-2.14807 0.3125,-2.40625 0,-0.18442 -0.0421,-0.34375 -0.25,-0.34375 z m 99.0625,0 c -0.20453,0 -0.45842,0.11936 -0.65625,0.15625 -0.32189,0.0704 -0.97211,0.14163 -1.75,0.21875 -0.77789,0.0335 -8.91779,0.0312 -10.21875,0.0312 -1.14672,0 -3.73686,-0.125 -5.90625,-0.125 -0.6136,0 -0.90625,0.0856 -0.90625,0.34375 0,0.26153 0.24155,0.34375 0.6875,0.34375 0.57671,0 1.29976,0.02 1.625,0.0937 1.35796,0.26153 1.66618,0.86092 1.75,2.125 0.0872,1.19031 0.0937,2.2531 0.0937,7.90625 l 0,6.53125 c 0,3.4234 -0.0109,6.37165 -0.21875,7.9375 -0.1643,1.07631 -0.36602,1.88036 -1.1875,2.03125 -0.36883,0.0738 -0.85515,0.15625 -1.46875,0.15625 -0.48283,0 -0.65625,0.0968 -0.65625,0.28125 0,0.26153 0.28273,0.375 0.8125,0.375 1.63961,0 4.22076,-0.0937 5.15625,-0.0937 2.41751,0 5.16753,0.21875 11.34375,0.21875 1.55244,0 1.89914,0.007 2.1875,-0.96875 0.21124,-0.74102 0.5625,-3.26664 0.5625,-4.125 0,-0.37219 -0.0185,-0.6875 -0.34375,-0.6875 -0.28836,0 -0.35703,0.15343 -0.4375,0.5625 -0.29171,1.52225 -0.78085,2.30069 -1.84375,2.75 -1.06625,0.44259 -2.77414,0.46875 -3.84375,0.46875 -4.17112,0 -4.82913,-0.55326 -4.90625,-3.125 -0.0436,-1.07632 0,-4.51718 0,-5.78125 l 0,-2.9375 c 0,-0.2213 0.0176,-0.375 0.21875,-0.375 0.98243,0 5.0279,0.0512 5.8125,0.125 1.50885,0.15088 2.10797,0.68978 2.3125,1.4375 0.12741,0.47947 0.11937,0.97156 0.15625,1.34375 0,0.18441 0.0933,0.34375 0.375,0.34375 0.37218,0 0.34375,-0.42034 0.34375,-0.71875 0,-0.26154 0.10703,-1.75564 0.1875,-2.5 0.12406,-1.89445 0.3125,-2.4941 0.3125,-2.71875 0,-0.22466 -0.11695,-0.28125 -0.28125,-0.28125 -0.20118,0 -0.36789,0.17033 -0.65625,0.46875 -0.35877,0.37218 -0.97962,0.48538 -1.96875,0.5625 -0.93213,0.0738 -5.636,0.0937 -6.53125,0.0937 -0.24142,0 -0.28125,-0.14807 -0.28125,-0.40625 l 0,-9.4375 c 0,-0.26154 0.0767,-0.375 0.28125,-0.375 0.81813,0 5.11843,0.0791 5.8125,0.15625 2.04533,0.22129 2.43375,0.67315 2.71875,1.34375 0.20453,0.44594 0.25,1.08221 0.25,1.34375 0,0.33529 0.0967,0.53125 0.375,0.53125 0.28836,0 0.36266,-0.24974 0.40625,-0.4375 0.0838,-0.44595 0.18187,-2.06868 0.21875,-2.4375 0.12406,-1.71338 0.3125,-2.14807 0.3125,-2.40625 0,-0.18442 -0.0455,-0.34375 -0.25,-0.34375 z m -190.65625,0.28125 c -0.61695,0 -0.90625,0.0856 -0.90625,0.34375 0,0.26153 0.2382,0.34375 0.6875,0.34375 0.57336,0 1.26851,0.02 1.59375,0.0937 1.35796,0.26153 1.66618,0.86092 1.75,2.125 0.0771,1.19031 0.0937,2.2531 0.0937,7.90625 l 0,5.40625 c 0,5.39496 1.57069,8.16497 3.65625,9.875 2.98752,2.45774 6.89311,2.5625 9.0625,2.5625 2.65892,0 5.6242,-0.41417 8.53125,-2.6875 3.43682,-2.67569 3.875,-7.05662 3.875,-11.1875 l 0,-3.96875 c 0,-5.65315 0.01,-6.71594 0.0937,-7.90625 0.0838,-1.30432 0.39351,-1.93724 1.5,-2.125 0.48618,-0.0738 0.74155,-0.0937 1.1875,-0.0937 0.49289,0 0.75,-0.0822 0.75,-0.34375 0,-0.25819 -0.30164,-0.34375 -0.875,-0.34375 -1.59603,0 -4.16336,0.125 -4.65625,0.125 -0.0402,0 -2.63654,-0.125 -4.71875,-0.125 -0.57336,0 -0.84375,0.0856 -0.84375,0.34375 0,0.26153 0.2382,0.34375 0.6875,0.34375 0.4493,0 1.1368,0.02 1.46875,0.0937 1.3479,0.26153 1.69743,0.86092 1.78125,2.125 0.0805,1.19031 0.0625,2.2531 0.0625,7.90625 l 0,4.625 c 0,3.83247 -0.12849,7.17677 -2.375,9.21875 -1.63961,1.48872 -3.85234,2.03125 -5.65625,2.03125 -1.38814,0 -3.25296,-0.15988 -5.09375,-1.53125 -2.00834,-1.48873 -3.1874,-3.76464 -3.1874,-9.15625 l 0,-5.1875 c 0,-5.65315 -0.018,-6.71594 0.0625,-7.90625 0.0838,-1.30432 0.42476,-1.93724 1.53125,-2.125 0.48954,-0.0738 0.7382,-0.0937 1.1875,-0.0937 0.40907,0 0.65625,-0.0822 0.65625,-0.34375 0,-0.25819 -0.29601,-0.34375 -0.90625,-0.34375 -1.47532,0 -4.05218,0.125 -5.03125,0.125 -1.2272,0 -3.79936,-0.125 -5.96875,-0.125 z m 36.59375,0 c -0.6136,0 -0.875,0.0856 -0.875,0.34375 0,0.26153 0.2382,0.34375 0.6875,0.34375 0.57336,0 1.26851,0.02 1.59375,0.0937 1.35461,0.26153 1.66953,0.86092 1.75,2.125 0.0838,1.19031 0.0937,2.25645 0.0937,7.90625 l 0,6.53125 c 0,3.4234 -0.0109,6.37165 -0.21875,7.9375 -0.1643,1.07631 -0.37272,1.88036 -1.1875,2.03125 -0.36883,0.0738 -0.85851,0.15625 -1.46875,0.15625 -0.48954,0 -0.65625,0.0935 -0.65625,0.28125 0,0.25818 0.28608,0.375 0.8125,0.375 1.63961,0 4.21741,-0.0937 5.15625,-0.0937 2.04197,0 5.73459,0.4375 8.71875,0.4375 7.57106,0 11.83772,-2.62809 13.71875,-4.375 2.29009,-2.1191 4.46875,-5.72212 4.46875,-10.40625 0,-4.42596 -1.92007,-7.50283 -3.96875,-9.4375 -4.45948,-4.24154 -11.29293,-4.25 -16.40625,-4.25 -2.45439,0 -5.04172,0.125 -6.3125,0.125 -1.14002,0 -3.74022,-0.125 -5.90625,-0.125 z m 161.40625,0 c -0.6136,0 -0.90625,0.0856 -0.90625,0.34375 0,0.26153 0.23485,0.34375 0.6875,0.34375 0.57336,0 1.27522,0.02 1.59375,0.0937 1.35796,0.26153 1.66953,0.86092 1.75,2.125 0.0805,1.19031 0.0937,2.25645 0.0937,7.90625 l 0,6.53125 c 0,3.4234 0.0103,6.37165 -0.1875,7.9375 -0.1643,1.07631 -0.36937,1.88036 -1.1875,2.03125 -0.36883,0.0738 -0.88305,0.15625 -1.5,0.15625 -0.49624,0 -0.65625,0.0935 -0.65625,0.28125 0,0.25818 0.31062,0.375 0.84375,0.375 1.62956,0 4.18281,-0.0937 5.125,-0.0937 2.05203,0 5.72788,0.4375 8.71875,0.4375 7.56771,0 11.84107,-2.62809 13.71875,-4.375 2.2968,-2.1191 4.46875,-5.72212 4.46875,-10.40625 0,-4.42596 -1.92678,-7.50283 -3.96875,-9.4375 -4.45948,-4.24154 -11.28958,-4.25 -16.40625,-4.25 -2.45774,0 -5.04842,0.125 -6.3125,0.125 -1.15343,0 -3.71232,-0.125 -5.875,-0.125 z m 38.5,0 c -0.65048,0 -0.96875,0.0945 -0.96875,0.3125 0,0.30176 0.25724,0.375 0.65625,0.375 0.49624,0 1.0161,0.0422 1.46875,0.15625 0.89525,0.18441 1.29453,0.79842 1.375,2.0625 0.0805,1.19031 0.0937,2.2531 0.0937,7.90625 l 0,6.53125 c 0,3.61117 0.0137,6.56585 -0.1875,8.125 -0.12741,1.07631 -0.40397,1.69286 -1.21875,1.84375 -0.36548,0.0738 -0.8518,0.15625 -1.46875,0.15625 -0.48283,0 -0.65625,0.0968 -0.65625,0.28125 0,0.26153 0.30727,0.375 0.84375,0.375 1.63961,0 4.21071,-0.0937 5.15625,-0.0937 1.09978,0 3.66913,0.0937 6.375,0.0937 0.4493,0 0.78125,-0.11347 0.78125,-0.375 0,-0.18442 -0.2103,-0.28125 -0.65625,-0.28125 -0.6136,0 -1.52039,-0.0825 -2.09375,-0.15625 -1.2272,-0.15089 -1.50094,-0.80661 -1.625,-1.8125 -0.1643,-1.59603 -0.1875,-4.54508 -0.1875,-8.15625 l 0,-6.53125 c 0,-5.65315 0.01,-6.71594 0.0937,-7.90625 0.0805,-1.30432 0.42811,-1.93724 1.53125,-2.125 0.48954,-0.0738 0.81304,-0.0937 1.21875,-0.0937 0.40907,0 0.65625,-0.0732 0.65625,-0.375 0,-0.21795 -0.33852,-0.3125 -0.875,-0.3125 -1.55579,0 -3.94609,0.125 -4.96875,0.125 -1.19367,0 -3.78125,-0.125 -5.34375,-0.125 z m 82.53125,0 c -0.6136,0 -0.90625,0.0856 -0.90625,0.34375 0,0.26153 0.26274,0.34375 0.71875,0.34375 0.52642,0 1.01516,0.02 1.34375,0.0937 1.35126,0.26153 1.66618,0.86092 1.75,2.125 0.0738,1.19031 0.0937,2.25645 0.0937,7.90625 l 0,6.53125 c 0,3.4234 -0.0176,6.375 -0.21875,7.9375 -0.1643,1.07966 -0.36602,1.88036 -1.1875,2.03125 -0.35877,0.0738 -0.8518,0.15625 -1.46875,0.15625 -0.49289,0 -0.65625,0.0968 -0.65625,0.28125 0,0.26153 0.27602,0.375 0.8125,0.375 1.62956,0 4.21741,-0.0937 5.15625,-0.0937 3.31611,0 6.01504,0.21875 11.90625,0.21875 2.1258,0 2.34898,-0.18187 2.59375,-1 0.32859,-1.08302 0.59375,-3.87219 0.59375,-4.28125 0,-0.44595 -0.0241,-0.625 -0.3125,-0.625 -0.32524,0 -0.42181,0.1993 -0.46875,0.53125 -0.0805,0.70412 -0.56961,1.76716 -1.0625,2.25 -1.02266,1.00589 -2.61186,1.03125 -4.78125,1.03125 -3.19205,0 -4.24008,-0.25591 -4.9375,-0.8125 -0.85837,-0.6706 -0.875,-3.23875 -0.875,-8 l 0,-6.53125 c 0,-5.6498 0.0133,-6.71594 0.0937,-7.90625 0.0771,-1.30432 0.39686,-1.93724 1.5,-2.125 0.49289,-0.0738 1.1411,-0.0937 1.59375,-0.0937 0.48954,0 0.75,-0.0822 0.75,-0.34375 0,-0.25819 -0.29829,-0.34375 -0.875,-0.34375 -1.59603,0 -4.55888,0.125 -5.53125,0.125 -1.10649,0 -3.70373,-0.125 -5.625,-0.125 z m 18.625,0.25 0,0.4375 1.25,0 0,3.28125 0.5,0 0,-3.28125 1.25,0 0,-0.4375 -3,0 z m 3.46875,0 0,3.71875 0.46875,0 0,-2.1875 c 0,-0.0905 0.0101,-0.25309 0,-0.4375 0,-0.18777 0,-0.31572 0,-0.40625 l 0,-0.125 1.0625,3.15625 0.5,0 1.0625,-3.15625 c 0,0.20118 0,0.38814 0,0.5625 -0.003,0.17435 0,0.32913 0,0.40625 l 0,2.1875 0.46875,0 0,-3.71875 -0.71875,0 -1.0625,3.125 -1.0625,-3.125 -0.71875,0 z m -292.96875,1.5 c 3.19205,0 7.85959,0.44622 11.625,3.71875 1.76032,1.52561 3.90625,4.59148 3.90625,9.3125 0,3.83247 -0.82552,7.20467 -3.4375,9.25 -2.45774,1.93132 -5.23177,2.6875 -9.40625,2.6875 -3.23229,0 -4.81062,-0.78582 -5.34375,-1.5 -0.32524,-0.40572 -0.42851,-1.88373 -0.46875,-2.8125 -0.0402,-0.70749 -0.0625,-3.56024 -0.0625,-7.5 l 0,-4.6875 c 0,-2.94058 -0.009,-6.20468 0.0312,-7.46875 0,-0.40907 0.13117,-0.56787 0.5,-0.71875 0.32524,-0.14754 1.83812,-0.28125 2.65625,-0.28125 z m 161.375,0 c 3.19205,0 7.83169,0.44622 11.59375,3.71875 1.76367,1.52561 3.9375,4.59148 3.9375,9.3125 0,3.83247 -0.81881,7.20467 -3.4375,9.25 -2.45774,1.93132 -5.23177,2.6875 -9.40625,2.6875 -3.23564,0 -4.81062,-0.78582 -5.34375,-1.5 -0.32859,-0.40572 -0.42851,-1.88373 -0.46875,-2.8125 -0.0402,-0.70749 -0.0625,-3.56024 -0.0625,-7.5 l 0,-4.6875 c 0,-2.94058 -0.006,-6.20468 0.0312,-7.46875 0,-0.40907 0.13117,-0.56787 0.5,-0.71875 0.33195,-0.14754 1.83477,-0.28125 2.65625,-0.28125 z m 89.0625,5.0625 c 0.11735,0 0.15062,0.19621 0.1875,0.34375 l 3.6875,9.1875 c 0.0469,0.114 -0.0142,0.21875 -0.21875,0.21875 l -7.53125,0 c -0.15759,0 -0.19984,-0.0991 -0.15625,-0.25 l 3.78125,-9.15625 c 0.0369,-0.14754 0.12594,-0.34375 0.25,-0.34375 z m -338.78125,15.15625 c -2.34039,0 -3.34375,1.79064 -3.34375,3.03125 0,1.38814 0.99786,3.03125 3.28125,3.03125 2.0755,0 3.375,-1.42276 3.375,-3.15625 0,-1.74021 -1.45494,-2.90625 -3.3125,-2.90625 z"
       id="path324"
       style="fill:#231f20;fill-opacity:1;fill-rule:nonzero;stroke:none" />
    <path
       d="m 88.622768,429.81308 0,23.09375 23.093752,0 0,-23.09375 -23.093752,0 z m 28.625002,0 0,23.09375 23.09375,0 0,-23.09375 -23.09375,0 z m 28.6875,0 0,23.09375 23.09375,0 0,-23.09375 -23.09375,0 z m -9.15625,26.28125 -21.84375,6.03125 6.03125,21.8125 21.8125,-6 -6,-21.84375 z m -48.156252,2.40625 0,23.125 23.093752,0 0,-23.125 -23.093752,0 z m 57.312502,0 0,23.125 23.09375,0 0,-23.125 -23.09375,0 z m -57.312502,28.6875 0,23.125 23.093752,0 0,-23.125 -23.093752,0 z m 28.625002,0 0,23.125 23.09375,0 0,-23.125 -23.09375,0 z m 28.6875,0 0,23.125 23.09375,0 0,-23.125 -23.09375,0 z"
       id="path386"
       style="fill:#00695d;fill-opacity:1;fill-rule:evenodd;stroke:none" />
  </g>
</svg>
